<?xml version="1.0" standalone="no"?>
<!DOCTYPE svg PUBLIC "-//W3C//DTD SVG 1.1//EN" "http://www.w3.org/Graphics/SVG/1.1/DTD/svg11.dtd" >
<svg>
<metadata>
Created by FontForge 20090622 at Wed Jun 24 11:03:58 2015
 By deploy user
Copyright &#194;&#169; 2004-2009, Joshua Darden &#38; Phil's Fonts, Inc. All rights reserved. Published by Garagefonts USA 301-879-9222 www.garagefonts.com
</metadata>
<defs>
<font id="FreightSansProBold-Regular" horiz-adv-x="500" >
  <font-face 
    font-family="FreightSans Pro Bold"
    font-weight="700"
    font-stretch="normal"
    units-per-em="1000"
    panose-1="2 0 8 3 4 0 0 2 0 4"
    ascent="800"
    descent="-200"
    x-height="465"
    cap-height="625"
    bbox="-225 -286 1344 1014"
    underline-thickness="20"
    underline-position="-113"
    unicode-range="U+0020-U+FB04"
  />
<missing-glyph 
 />
    <glyph glyph-name="ff" unicode="ff" horiz-adv-x="717" 
d="M235 338v-338h-154v337l-80 6l4 98l75 22l1 30q3 100 48 146.5t134 46.5q69 0 126 -23l-3 -13q-3 -14 -7.5 -32.5t-8.5 -37.5t-7 -32l-3 -12q-48 18 -78 18q-29 0 -41.5 -16.5t-12.5 -51.5v-27h198l1 44q3 100 48.5 146.5t133.5 46.5q69 0 127 -23l-3 -13
q-3 -14 -7.5 -32.5l-9 -37.5l-7.5 -32l-3 -12q-46 18 -77 18q-29 0 -41.5 -16.5t-12.5 -51.5v-37h129l-3 -121h-120v-338h-154v338h-192z" />
    <glyph glyph-name="fi" unicode="fi" horiz-adv-x="610" 
d="M573 601q0 -40 -24 -61.5t-67 -21.5t-67 21.5t-24 61.5q0 39 24.5 61t66.5 22t66.5 -22t24.5 -61zM371 677l-26 -128q-35 15 -63 15q-29 0 -41.5 -16.5t-12.5 -51.5v-37h123l-3 -121h-113v-338h-154v337l-80 6l4 98l75 22l1 40q3 100 48 146.5t133 46.5q54 0 109 -19z
M559 0h-154v457l154 19v-476z" />
    <glyph glyph-name="fl" unicode="fl" horiz-adv-x="634" 
d="M389 673l-3 -13q-3 -14 -7.5 -32.5t-8.5 -37.5t-7 -32l-3 -12q-48 18 -78 18q-29 0 -41.5 -16.5t-12.5 -51.5v-37h130l-3 -121h-120v-338h-154v337l-80 6l4 98l75 22l1 40q3 100 48 146.5t134 46.5q69 0 126 -23zM579 0h-154v661l154 19v-680z" />
    <glyph glyph-name="ffi" unicode="ffi" horiz-adv-x="957" 
d="M920 601q0 -40 -24 -61.5t-67 -21.5t-67 21.5t-24 61.5t24 61.5t67 21.5q42 0 66.5 -22t24.5 -61zM235 338v-338h-154v337l-80 6l4 98l75 22l1 30q3 100 48 146.5t134 46.5q69 0 126 -23l-3 -13q-3 -14 -7.5 -32.5t-8.5 -37.5t-7 -32l-3 -12q-48 18 -78 18
q-29 0 -41.5 -16.5t-12.5 -51.5v-27h198l1 44q3 100 48 146.5t134 46.5q53 0 108 -19q0 -1 -0.5 -3.5t-2 -9.5t-3 -15t-3.5 -17.5l-4 -19l-4 -19t-3.5 -17.5t-3 -14t-1.5 -10l-1 -3q-33 15 -62 15t-41.5 -16.5t-12.5 -51.5v-37h123l-3 -121h-114v-338h-154v338h-192zM905 0
h-154v457l154 19v-476z" />
    <glyph glyph-name="ffl" unicode="ffl" horiz-adv-x="980" 
d="M235 338v-338h-154v337l-80 6l4 98l75 22l1 30q3 100 48 146.5t134 46.5q69 0 126 -23l-3 -13q-3 -14 -7.5 -32.5t-8.5 -37.5t-7 -32l-3 -12q-48 18 -78 18q-29 0 -41.5 -16.5t-12.5 -51.5v-27h198l1 44q3 100 48.5 146.5t133.5 46.5q69 0 127 -23l-3 -13
q-3 -14 -7.5 -32.5l-9 -37.5l-7.5 -32l-3 -12q-46 18 -77 18q-29 0 -41.5 -16.5t-12.5 -51.5v-37h129l-3 -121h-120v-338h-154v338h-192zM925 0h-154v661l154 19v-680z" />
    <glyph glyph-name=".notdef" 
 />
    <glyph glyph-name=".null" horiz-adv-x="0" 
 />
    <glyph glyph-name="nonmarkingreturn" horiz-adv-x="333" 
 />
    <glyph glyph-name="space" unicode=" " horiz-adv-x="228" 
 />
    <glyph glyph-name="exclam" unicode="!" horiz-adv-x="304" 
d="M95 215l-33 437h181l-32 -437h-116zM246 70q0 -40 -25.5 -62.5t-68.5 -22.5t-69 22.5t-26 62.5t26 62t69 22t68.5 -22t25.5 -62z" />
    <glyph glyph-name="quotedbl" unicode="&#x22;" horiz-adv-x="435" 
d="M312 398h-99l115 247l134 -36zM103 398h-99l115 247l133 -36z" />
    <glyph glyph-name="numbersign" unicode="#" horiz-adv-x="622" 
d="M144 353h-109v111h139l47 178h115l-48 -178h141l48 178h114l-48 -178h66v-111h-95l-33 -124h108v-111h-138l-52 -192h-114l52 192h-142l-51 -192h-115l52 192h-66v111h96zM402 359h-143l-36 -136h141z" />
    <glyph glyph-name="dollar" unicode="$" horiz-adv-x="562" 
d="M295 242l-20 -131q98 3 98 64q0 25 -18 40t-60 27zM301 639l14 92h68l-15 -99q79 -13 143 -48l-31 -131q-64 34 -133 48l-5 -31q-4 -31 -9 -62l-5 -31q41 -11 72 -24.5t61 -35t46.5 -54t16.5 -75.5q0 -91 -67.5 -147t-188.5 -56h-13l-17 -107h-68l18 113q-93 14 -160 51
l29 132q76 -40 151 -53l22 136q-39 11 -68.5 23.5t-60 34t-47 55t-16.5 76.5q0 89 62.5 141t176.5 52h24zM261 391l20 123q-91 -1 -91 -59q0 -41 71 -64z" />
    <glyph glyph-name="percent" unicode="%" horiz-adv-x="832" 
d="M369 475q0 -79 -47 -127t-129 -48q-81 0 -128 48t-47 127t47.5 126.5t128.5 47.5t128 -48t47 -126zM734 639l-518 -654h-116l518 654h116zM814 150q0 -80 -47 -127.5t-129 -47.5q-81 0 -128 48t-47 127q0 78 47.5 126t128.5 48t128 -48t47 -126zM266 474q0 44 -20 69.5
t-53 25.5t-52.5 -25.5t-19.5 -69.5q0 -43 19.5 -68t53.5 -25q32 0 52 25.5t20 67.5zM711 149q0 43 -19.5 68.5t-52.5 25.5q-34 0 -53.5 -25.5t-19.5 -68.5q0 -44 19.5 -69t53.5 -25q33 0 52.5 25.5t19.5 68.5z" />
    <glyph glyph-name="ampersand" unicode="&#x26;" horiz-adv-x="658" 
d="M284 384q57 37 57 85q0 31 -20 49.5t-51 18.5q-29 0 -48 -19t-19 -46q0 -53 81 -88zM372 177q-75 79 -141 105q-69 -40 -69 -96q0 -38 25.5 -61t64.5 -23q66 0 120 75zM432 100q-93 -115 -211 -115q-89 0 -145 47.5t-56 123.5q0 62 41.5 107t100.5 59q-93 51 -93 143
q0 69 55.5 121.5t149.5 52.5q88 0 143.5 -42t55.5 -110q0 -50 -34.5 -86.5t-85.5 -51.5q31 -15 86 -66l58 107h163l-143 -187l150 -187l-157 -28z" />
    <glyph glyph-name="quotesingle" unicode="'" horiz-adv-x="226" 
d="M103 398h-99l115 247l133 -36z" />
    <glyph glyph-name="parenleft" unicode="(" horiz-adv-x="425" 
d="M352 -265q-120 64 -208 196.5t-88 303.5q0 116 46 221t110.5 172t139.5 107l81 -105q-98 -60 -164.5 -163.5t-66.5 -231.5t66.5 -231.5t164.5 -163.5z" />
    <glyph glyph-name="parenright" unicode=")" horiz-adv-x="425" 
d="M73 -265l-80 105q98 61 164.5 164t66.5 231t-66.5 231t-164.5 164l80 105q120 -64 208.5 -196.5t88.5 -303.5q0 -117 -46 -221.5t-110.5 -171.5t-140.5 -107z" />
    <glyph glyph-name="asterisk" unicode="*" horiz-adv-x="394" 
d="M184 406l-99 -126l-76 104l151 56v9l-149 57l75 104l98 -127l8 3l11 160l121 -40l-92 -134l6 -6l152 43v-128l-152 43l-5 -7l89 -135l-122 -39l-7 161z" />
    <glyph glyph-name="plus" unicode="+" horiz-adv-x="526" 
d="M493 181h-168v-170h-123v170h-168l3 116h165v170h123v-170h165z" />
    <glyph glyph-name="comma" unicode="," horiz-adv-x="278" 
d="M24 79q4 40 34 65.5t73 25.5q51 0 85.5 -38t34.5 -90q0 -113 -169 -204l-68 60q50 36 75 60t25 46q0 21 -19.5 37.5t-70.5 37.5z" />
    <glyph glyph-name="hyphen" unicode="-" horiz-adv-x="372" 
d="M346 181h-318v123h318v-123z" />
    <glyph glyph-name="period" unicode="." horiz-adv-x="278" 
d="M234 76q0 -41 -26 -66t-68 -25q-43 0 -69 25t-26 66t26 66t69 25q42 0 68 -25t26 -66z" />
    <glyph glyph-name="slash" unicode="/" horiz-adv-x="286" 
d="M319 702l-243 -901h-126l243 901h126z" />
    <glyph glyph-name="zero" unicode="0" horiz-adv-x="574" 
d="M539 241q0 -116 -69.5 -186t-184.5 -70t-183 69t-68 184q0 116 69 185.5t184 69.5t183.5 -68.5t68.5 -183.5zM390 239q0 64 -28.5 101t-75.5 37t-75 -37t-28 -101q0 -65 28.5 -101.5t75.5 -36.5q46 0 74.5 37t28.5 101z" />
    <glyph glyph-name="one" unicode="1" horiz-adv-x="387" 
d="M153 0v336l-116 -27l-3 127l272 59v-495h-153z" />
    <glyph glyph-name="two" unicode="2" 
d="M473 0h-432v107q158 100 185 121q59 45 59 81q0 56 -76 56q-64 0 -146 -53l-34 114q98 68 216 68q95 0 149.5 -44t54.5 -114q0 -59 -49 -109t-150 -102h221z" />
    <glyph glyph-name="three" unicode="3" horiz-adv-x="481" 
d="M317 175q70 -13 108 -56.5t38 -101.5q0 -94 -74 -149t-183 -55t-195 47l18 123q83 -48 164 -49q52 -2 82.5 19.5t30.5 61.5q0 75 -114 79q-33 1 -82 -5v111q39 7 64.5 13.5t52 18t39.5 29t13 41.5q0 66 -92 66q-64 0 -141 -54l-34 112q96 68 213 68q96 0 157.5 -45.5
t61.5 -119.5q0 -53 -36 -94t-91 -60z" />
    <glyph glyph-name="four" unicode="4" horiz-adv-x="573" 
d="M563 3h-99v-177h-144v177h-276l-19 95l271 387h168v-360h96zM327 122v227l-152 -227h152z" />
    <glyph glyph-name="five" unicode="5" horiz-adv-x="491" 
d="M195 229q24 2 49 2q106 0 164.5 -52.5t58.5 -136.5q0 -101 -70 -165t-187 -64q-108 0 -188 37l14 130q90 -43 169 -43q53 0 83.5 24.5t30.5 67.5q0 41 -31.5 65.5t-97.5 24.5q-68 0 -125 -19l-21 24l43 356h366l3 -126h-244z" />
    <glyph glyph-name="six" unicode="6" horiz-adv-x="570" 
d="M37 273q0 148 106 259.5t287 137.5l37 -125q-106 -19 -180.5 -66.5t-95.5 -118.5l4 -3q61 61 156 61q84 0 136 -52.5t52 -144.5q0 -103 -66.5 -169.5t-183.5 -66.5q-118 0 -185 80t-67 208zM197 223q0 -50 26 -86t70 -36q41 0 65.5 28.5t24.5 77.5q0 44 -24 70.5
t-66 26.5q-53 0 -91 -34q-5 -22 -5 -47z" />
    <glyph glyph-name="seven" unicode="7" 
d="M326 348h-308l3 132h460v-104l-268 -550h-149z" />
    <glyph glyph-name="eight" unicode="8" horiz-adv-x="535" 
d="M293 361q60 33 60 85q0 39 -22.5 60.5t-60.5 21.5q-39 0 -61.5 -21.5t-22.5 -53.5q0 -30 26.5 -52t80.5 -40zM243 262q-33 -16 -50.5 -40t-17.5 -49q0 -36 26.5 -58.5t70.5 -22.5q43 0 66.5 19.5t23.5 55.5q0 58 -119 95zM380 325q123 -50 123 -150q0 -84 -61 -137
t-177 -53q-105 0 -169.5 46.5t-64.5 127.5q0 51 34.5 88.5t92.5 51.5q-117 51 -117 149q0 86 59.5 137t172.5 51q102 0 161.5 -46.5t59.5 -127.5q0 -48 -30.5 -84t-83.5 -53z" />
    <glyph glyph-name="nine" unicode="9" horiz-adv-x="570" 
d="M533 206q0 -148 -106 -259.5t-286 -136.5l-38 124q106 18 179.5 65.5t92.5 118.5l-4 3q-56 -60 -149 -60q-84 0 -137.5 51.5t-53.5 141.5q0 103 67 171.5t183 68.5q118 0 185 -80t67 -208zM373 256q0 51 -25.5 86t-70.5 35q-41 0 -65.5 -28t-24.5 -77q0 -44 24.5 -70.5
t65.5 -26.5q52 0 91 33q5 23 5 48z" />
    <glyph glyph-name="colon" unicode=":" horiz-adv-x="278" 
d="M234 358q0 -41 -26 -66t-68 -25q-43 0 -69 25t-26 66t26 66t69 25q42 0 68 -25t26 -66zM234 76q0 -41 -26 -66t-68 -25q-43 0 -69 25t-26 66t26 66t69 25q42 0 68 -25t26 -66z" />
    <glyph glyph-name="semicolon" unicode=";" horiz-adv-x="278" 
d="M234 358q0 -41 -26 -66t-68 -25q-43 0 -69 25t-26 66t26 66t69 25q42 0 68 -25t26 -66zM24 79q4 40 34 65.5t73 25.5q51 0 85.5 -38t34.5 -90q0 -113 -169 -204l-68 60q50 36 75 60t25 46q0 21 -19.5 37.5t-70.5 37.5z" />
    <glyph glyph-name="less" unicode="&#x3c;" horiz-adv-x="502" 
d="M446 126v-122l-401 182v99l401 182v-122l-245 -105v-10z" />
    <glyph glyph-name="equal" unicode="=" horiz-adv-x="506" 
d="M461 286h-414l-5 115h424zM466 68h-424l5 115h414z" />
    <glyph glyph-name="greater" unicode="&#x3e;" horiz-adv-x="502" 
d="M457 186l-401 -182v122l245 104v10l-245 105v122l401 -182v-99z" />
    <glyph glyph-name="question" unicode="?" horiz-adv-x="418" 
d="M385 450q0 -102 -116 -140q-65 -19 -72 -37q0 -5 10.5 -16.5t26.5 -25t18 -15.5q-89 -15 -98 -15q-38 15 -60.5 47t-22.5 65q0 72 100 99q44 12 59.5 20.5t15.5 26.5q0 25 -26.5 38.5t-72.5 13.5q-54 0 -103 -19l6 129q47 19 109 19q99 0 162.5 -54.5t63.5 -135.5z
M274 70q0 -41 -25.5 -63t-69.5 -22q-43 0 -68.5 22.5t-25.5 62.5t25.5 62t68.5 22q44 0 69.5 -22t25.5 -62z" />
    <glyph glyph-name="at" unicode="@" horiz-adv-x="857" 
d="M597 199q-10 -49 3.5 -72.5t53.5 -23.5q51 0 90 55.5t39 149.5q0 133 -100 218t-234 85q-149 0 -253.5 -109t-104.5 -259q0 -143 93 -241.5t234 -98.5q61 0 127 21l12 -38q-71 -24 -141 -24q-160 0 -265 109.5t-105 270.5q0 168 117.5 288.5t285.5 120.5q157 0 268.5 -95
t111.5 -248q0 -128 -63 -199.5t-153 -71.5q-105 0 -134 83q-51 -61 -120 -61q-60 0 -99.5 45.5t-39.5 120.5q0 100 60 164.5t152 64.5q35 0 82 -20l134 21zM470 176l33 161q-28 28 -63 28q-42 0 -69 -39t-27 -91q0 -38 18.5 -60.5t47.5 -22.5q30 0 60 24z" />
    <glyph glyph-name="A" unicode="A" horiz-adv-x="643" 
d="M423 625l218 -625h-158l-46 133h-232l-45 -133h-158l222 625h199zM402 257l-80 245l-83 -245h163z" />
    <glyph glyph-name="B" unicode="B" horiz-adv-x="620" 
d="M456 327q61 -11 98 -49.5t37 -95.5q0 -84 -57 -133t-196 -49h-273v625h271q130 0 183 -43t53 -120q0 -103 -116 -135zM413 436q0 70 -92 70h-102v-144h94q100 0 100 74zM431 191q0 72 -110 72h-102v-144h107q105 0 105 72z" />
    <glyph glyph-name="C" unicode="C" horiz-adv-x="613" 
d="M583 593l-48 -133q-76 45 -158 45q-81 0 -129.5 -51.5t-48.5 -139.5q0 -90 47.5 -142t131.5 -52q88 0 165 51l33 -141q-82 -45 -205 -45q-153 0 -242.5 85t-89.5 240q0 151 91 240.5t246 89.5q111 0 207 -47z" />
    <glyph glyph-name="D" unicode="D" horiz-adv-x="681" 
d="M645 317q0 -146 -93.5 -231.5t-262.5 -85.5h-224v625h235q163 0 254 -83.5t91 -224.5zM485 311q0 96 -48.5 141.5t-146.5 45.5h-66v-371h74q89 0 138 46t49 138z" />
    <glyph glyph-name="E" unicode="E" horiz-adv-x="565" 
d="M522 0h-457v625h457v-128h-301v-120h242v-127h-242v-122h301v-128z" />
    <glyph glyph-name="F" unicode="F" horiz-adv-x="541" 
d="M65 0v625h447v-131h-290v-129h231v-130h-231v-235h-157z" />
    <glyph glyph-name="G" unicode="G" horiz-adv-x="673" 
d="M623 43q-107 -58 -248 -58q-152 0 -244 86.5t-92 238.5q0 153 91 241.5t246 88.5q145 0 235 -54l-50 -133q-90 52 -180 52q-84 0 -134 -52t-50 -139q0 -95 47 -147t135 -52q55 0 100 19v92h-154v126h298v-309z" />
    <glyph glyph-name="H" unicode="H" horiz-adv-x="699" 
d="M634 0h-159v248h-251v-248h-159v625h159v-243h251v243h159v-625z" />
    <glyph glyph-name="I" unicode="I" horiz-adv-x="292" 
d="M225 0h-159v625h159v-625z" />
    <glyph glyph-name="J" unicode="J" horiz-adv-x="471" 
d="M411 220q0 -235 -224 -235q-101 0 -178 43l32 128q68 -39 121 -39q48 0 69 27t21 88v393h159v-405z" />
    <glyph glyph-name="K" unicode="K" horiz-adv-x="625" 
d="M224 349h1l208 276h182l-247 -305l253 -320h-190l-206 275h-1v-275h-159v625h159v-276z" />
    <glyph glyph-name="L" unicode="L" horiz-adv-x="520" 
d="M486 0h-421v625h159v-492h262v-133z" />
    <glyph glyph-name="M" unicode="M" horiz-adv-x="851" 
d="M649 0l-3 482l-137 -472h-170l-137 471l-4 -481h-148l22 625h225l130 -469l130 469h222l21 -625h-151z" />
    <glyph glyph-name="N" unicode="N" horiz-adv-x="711" 
d="M497 219v406h149v-631h-169l-263 411v-405h-149v625h172z" />
    <glyph glyph-name="O" unicode="O" horiz-adv-x="733" 
d="M694 315q0 -147 -93.5 -238.5t-235.5 -91.5q-144 0 -235 86t-91 240q0 147 93 238t235 91q144 0 235.5 -85.5t91.5 -239.5zM534 311q0 91 -45 146t-124 55q-78 0 -122 -54t-44 -143q0 -91 45 -146.5t124 -55.5q78 0 122 54.5t44 143.5z" />
    <glyph glyph-name="P" unicode="P" horiz-adv-x="594" 
d="M563 408q0 -109 -72 -167.5t-206 -58.5l-61 -1v-181h-159v625h231q128 0 197.5 -59t69.5 -158zM405 404q0 95 -121 95h-64v-195l64 1q121 1 121 99z" />
    <glyph glyph-name="Q" unicode="Q" horiz-adv-x="733" 
d="M546 41l172 -74l-63 -129l-277 148q-4 -1 -13 -1q-144 0 -235 86t-91 240q0 147 93 238t235 91q144 0 235.5 -85.5t91.5 -239.5q0 -90 -39.5 -161.5t-108.5 -112.5zM534 311q0 91 -45 146t-124 55q-78 0 -122 -54t-44 -143q0 -92 45 -148t124 -56q78 0 122 54.5t44 145.5
z" />
    <glyph glyph-name="R" unicode="R" horiz-adv-x="617" 
d="M224 204v-204h-159v625v0v0v0h1v0v0h1v0h1v0h1v0h1h1h1h1h1h1h1h1h1h1h1h1h1h1h1h1h1h1h1h1h1h1h1h1h1h1h1h1h1h1h1h1h1h1h1h1h1h1h1h1h1h2h1h1h1h1h1h1h1h2h1h1h1h1h1h2h1h1h1h1h2h1h1h1h2h1h1h2h1h1h2h1h1h2h1h1h2h1h1h2h1h2h1h1h2h1h2h1h1h2h1h2h1h2h1h2h1h2h1h2h1h2
h1h2h2h1h2h1h2h1h2h2h1h2h1h2h2h1h2h2h1h2h2h1h2h2h1h2h2h1h2h2h1h2h2h2h1h2h2h2h2h1h2h2h2h2h1h2h2h2h2h2h1h2h2h2h2h2h2h2h2h2h2h2h2h2h2h2h9q122 0 187.5 -53t65.5 -145q0 -131 -128 -180l160 -247h-179l-125 210zM221 322l80 2q105 8 105 93q0 82 -118 82h-67v-177z" />
    <glyph glyph-name="S" unicode="S" horiz-adv-x="564" 
d="M273 116q43 0 69 15.5t26 43.5q0 29 -28 44t-100 35q-41 11 -71 23.5t-62.5 34t-50 56t-17.5 78.5q0 89 63 141t177 52q134 0 234 -55l-31 -131q-103 55 -202 55q-82 0 -82 -53q0 -15 8.5 -26t30.5 -21t39.5 -15.5t53.5 -15.5q41 -11 72 -24.5t61 -35t46.5 -54
t16.5 -75.5q0 -91 -67.5 -147t-188.5 -56q-141 0 -241 57l30 132q109 -58 214 -58z" />
    <glyph glyph-name="T" unicode="T" horiz-adv-x="602" 
d="M579 492h-199v-492h-159v492h-199v133h557v-133z" />
    <glyph glyph-name="U" unicode="U" horiz-adv-x="672" 
d="M612 255q0 -133 -73.5 -201.5t-202.5 -68.5q-127 0 -201 64t-74 192v384h158v-363q0 -143 121 -143q57 0 85.5 33t28.5 104v0v0v0v0v1v0v0v1v0v1v0v1v0v1v0v1v0v1v1v1v1v1v1v1v1v1v1v1v1v1v1v1v1v1v1v1v1v1v1v1v1v1v1v1v1v1v1v1v1v1v1v1v1v1v1v1v1v1v1v1v1v1v1v1v1v1v1v1
v1v1v1v1v1v1v1v1v1v1v1v1v1v1v1v1v2v1v1v1v1v1v1v1v2v1v1v1v1v1v2v1v1v1v1v1v2v1v1v1v2v1v1v1v2v1v1v1v2v1v1v1v2v1v1v2v1v1v1v2v1v1v2v1v1v2v1v2v1v1v2v1v1v2v1v2v1v1v2v1v2v1v1v2v1v2v1v2v1v1v2v1v2v1v2v1v2v1v2v1v2v1v2v1v2v1v2v1v2v1v2v1v2v2v1v2v1v2v1v2v1v2v2v1v2v1v2
v2v1v2v1v2v2v1v2v2v1v2v1v2v2v1v2v2v1v2v2v1v2v2v1v2v2v2v1v2v2v1v2v2v2v1v2v2v1v2v2v2v1v2v2v2v1v2v2v2v2v1v2v2v2v2v1v2v2v2v2v1v2v2v2v2v2v1v2v2v2v2v2v2v1v2v2v2v2v8h158v-370z" />
    <glyph glyph-name="V" unicode="V" horiz-adv-x="634" 
d="M630 625l-215 -625h-199l-211 625h164l148 -471l147 471h166z" />
    <glyph glyph-name="W" unicode="W" horiz-adv-x="955" 
d="M478 445l-123 -445h-165l-167 625h170l84 -442l112 442h182l114 -442l84 442h163l-167 -625h-166z" />
    <glyph glyph-name="X" unicode="X" horiz-adv-x="645" 
d="M320 213l-135 -213h-174l215 313l-209 312h179l126 -203l129 203h177l-211 -306l217 -319h-181z" />
    <glyph glyph-name="Y" unicode="Y" horiz-adv-x="611" 
d="M601 625l-217 -388v-237h-156v238l-218 387h169l129 -247l125 247h168z" />
    <glyph glyph-name="Z" unicode="Z" horiz-adv-x="580" 
d="M542 0h-511v105l312 387h-306v133h506v-106l-311 -385h310v-134z" />
    <glyph glyph-name="bracketleft" unicode="[" horiz-adv-x="415" 
d="M408 -205h-340v897h340v-114h-203v-670h203v-113z" />
    <glyph glyph-name="backslash" unicode="\" horiz-adv-x="292" 
d="M-26 702h126l243 -901h-126z" />
    <glyph glyph-name="bracketright" unicode="]" horiz-adv-x="416" 
d="M7 -205v113h203v670h-203v114h341v-897h-341z" />
    <glyph glyph-name="asciicircum" unicode="^" horiz-adv-x="398" 
d="M389 527h-105l-83 107h-2l-81 -107h-107l119 187h140z" />
    <glyph glyph-name="underscore" unicode="_" horiz-adv-x="543" 
d="M551 -117h-559v117h559v-117z" />
    <glyph glyph-name="grave" unicode="`" horiz-adv-x="397" 
d="M294 527h-96l-169 185h166z" />
    <glyph glyph-name="a" unicode="a" horiz-adv-x="511" 
d="M305 118v89q-72 -8 -101 -23.5t-29 -46.5q0 -22 16 -36t42 -14q44 0 72 31zM309 56h-3q-60 -71 -134 -71q-60 0 -101 37.5t-41 91.5q0 157 275 165v9q0 37 -19.5 54t-62.5 17q-64 0 -158 -47l-32 113q104 55 214 55q116 0 165 -50.5t47 -152.5l-1 -138q0 -23 6.5 -29.5
t31.5 -8.5l-15 -110q-138 -18 -172 65z" />
    <glyph glyph-name="b" unicode="b" horiz-adv-x="567" 
d="M538 238q0 -112 -68 -182t-165 -70q-53 0 -105 19l-145 -20v676l154 19v-263q61 63 131 63q87 0 142.5 -66t55.5 -176zM384 230q0 60 -25 93.5t-72 33.5q-43 0 -78 -32v0v0v0v-1v0v0v-1v0v-1v-1v0v-1v-1v-1v-1v-1v-1v-1v-1v-1v-1v-1v-1v-1v-1v-1v-1v-1v-1v-1v-1v-1v-1v-1
v-1v-1v-1v-1v-1v-1v-1v-1v-1v-1v-1v-1v-1v-2v-1v-1v-1v-1v-1v-1v-1v-2v-1v-1v-1v-1v-2v-1v-1v-1v-2v-1v-1v-1v-2v-1v-1v-2v-1v-1v-2v-1v-1v-2v-1v-2v-1v-1v-2v-1v-2v-1v-1v-2v-1v-2v-1v-2v-1v-2v-1v-2v-1v-2v-1v-2v-1v-2v-1v-2v-2v-1v-2v-1v-2v-1v-2v-2v-1v-2v-2v-1v-2v-2
v-1v-2v-2v-1v-2v-2v-1v-2v-2v-1v-2v-2v-2v-1v-2v-2v-2v-1v-2v-2v-2v-1v-2v-2v-2v-2v-1v-2v-2v-2v-2v-2v-9q29 -19 71 -19q49 0 76.5 35t27.5 94z" />
    <glyph glyph-name="c" unicode="c" horiz-adv-x="484" 
d="M453 23q-62 -38 -170 -38q-117 0 -184.5 63.5t-67.5 180.5q0 115 69.5 183t186.5 68q101 0 169 -39l-30 -116q-63 36 -123 36q-54 0 -84.5 -35t-30.5 -92q0 -61 32 -95t87 -34q66 0 123 35z" />
    <glyph glyph-name="d" unicode="d" horiz-adv-x="570" 
d="M360 463v198l154 19v-680h-154v48q-60 -62 -130 -62q-87 0 -143 66t-56 175q0 112 68 182t165 70q50 0 96 -16zM360 345q-28 20 -71 20q-48 0 -76 -35.5t-28 -94.5q0 -58 27 -92t70 -34q46 0 78 32v0v0v0v1v0v1v0v1v0v1v1v1v1v1v1v1v1v1v1v1v1v1v1v1v1v1v1v1v1v1v1v1v1v1
v1v1v1v1v1v1v1v1v1v1v1v1v1v1v1v1v2v1v1v1v1v1v2v1v1v1v1v2v1v1v1v2v1v1v2v1v1v2v1v1v2v1v1v2v1v1v2v1v2v1v2v1v1v2v1v2v1v2v1v2v1v2v1v2v1v2v1v2v2v1v2v1v2v1v2v2v1v2v2v1v2v1v2v2v1v2v2v1v2v2v2v1v2v2v1v2v2v2v1v2v2v2v1v2v2v2v2v1v2v2v2v2v2v1v2v9z" />
    <glyph glyph-name="e" unicode="e" horiz-adv-x="518" 
d="M181 198v-2q4 -47 35.5 -72.5t87.5 -25.5q74 0 152 45l15 -119q-74 -38 -181 -38q-120 0 -190 64t-70 179q0 113 70 182t182 69q97 0 150.5 -53t53.5 -142q0 -49 -10 -82zM182 275l161 1v9q0 89 -71 89q-38 0 -62 -28.5t-28 -70.5z" />
    <glyph glyph-name="f" unicode="f" horiz-adv-x="371" 
d="M389 673l-3 -13q-3 -14 -7.5 -32.5t-8.5 -37.5t-7 -32l-3 -12q-48 18 -78 18q-29 0 -41.5 -16.5t-12.5 -51.5v-37h130l-3 -121h-120v-338h-154v337l-80 6l4 98l75 22l1 40q3 100 48 146.5t134 46.5q69 0 126 -23z" />
    <glyph glyph-name="g" unicode="g" horiz-adv-x="528" 
d="M177 299q0 -38 18.5 -60t54.5 -22q68 0 68 86q0 38 -18 60t-53 22q-33 0 -51.5 -23.5t-18.5 -62.5zM170 -48q-37 -18 -37 -51q0 -27 32 -44t85 -17q58 0 95 17t37 46q0 27 -28 36.5t-92 9.5q-41 0 -92 3zM109 -31q-34 10 -57.5 32t-23.5 52q0 33 27 62t69 41
q-43 20 -68.5 58t-25.5 86q0 78 60 129t161 51q70 0 142 -33l131 11l7 -125l-90 14q13 -15 13 -51q0 -71 -57.5 -119.5t-146.5 -48.5q-22 0 -62 7q-27 -15 -27 -34q0 -29 85 -29v0h1h1h1h1h1h1h1h1h1h2h1h1h1h1h2h1h1h2h1h2h1h2h1h2h2h1h2h2h2h2h1h2h2h9q215 0 215 -131
q0 -84 -86.5 -137.5t-204.5 -53.5q-99 0 -163 31t-64 90q0 36 29 64t82 34z" />
    <glyph glyph-name="h" unicode="h" horiz-adv-x="565" 
d="M513 0h-154v275q0 74 -64 74q-47 0 -86 -35v-314h-154v661l154 19v-279q69 79 157 79q69 0 108 -43t39 -117v-320z" />
    <glyph glyph-name="i" unicode="i" horiz-adv-x="264" 
d="M223 613q0 -39 -24 -60.5t-67 -21.5t-67 21.5t-24 60.5q0 40 24 61.5t67 21.5t67 -21.5t24 -61.5zM209 0h-154v457l154 19v-476z" />
    <glyph glyph-name="j" unicode="j" horiz-adv-x="263" 
d="M223 613q0 -39 -24 -60.5t-67 -21.5t-67 21.5t-24 60.5q0 40 24 61.5t67 21.5t67 -21.5t24 -61.5zM61 -242l-88 104q45 21 63.5 54.5t18.5 104.5v0v0v0v0v0v0v0v0v0v1v0v0v1v0v1v0v1v0v1v1v0v1v0v1v1v1v1v1v1v1v1v1v1v1v1v1v1v1v1v1v1v1v1v1v1v1v1v1v1v1v1v1v1v1v1v1v1v1
v1v1v1v1v1v1v1v1v1v1v1v1v1v1v1v1v1v1v1v1v1v1v1v1v1v1v1v1v1v1v1v1v1v1v1v1v1v1v1v1v1v1v1v1v1v2v1v1v1v1v1v1v1v1v2v1v1v1v1v1v2v1v1v1v1v2v1v1v1v1v2v1v1v1v1v2v1v1v1v2v1v1v1v2v1v1v2v1v1v1v2v1v1v2v1v1v2v1v1v2v1v1v2v1v1v2v1v1v2v1v2v1v1v2v1v1v2v1v2v1v1v2v1v2v1v2v1
v1v2v1v2v1v2v1v2v1v2v1v2v1v2v1v1v2v1v2v1v2v2v1v2v1v2v1v2v1v2v1v2v1v2v1v2v2v1v2v1v2v1v2v2v1v2v1v2v2v1v2v1v2v2v1v2v2v1v2v1v2v2v1v2v2v1v2v2v1v2v2v1v2v2v1v2v2v1v2v2v1v2v2v2v1v2v2v1v2v2v2v1v2v2v2v1v2v2v2v1v2v2v2v1v2v2v2v2v1v2v2v2v2v1v2v2v2v2v1v2v2v2v2v2v1v2v2
v2v2v2v2v1v2v2v2v2v2v2v1v2v2v9l154 19v0v0v0v0v-1v0v0v0v-1v0v0v-1v0v-1v0v-1v0v-1v0v-1v-1v0v-1v-1v-1v0v-1v-1v-1v-1v-1v-1v-1v-1v-1v-1v-1v-1v-1v-1v-1v-1v-1v-1v-1v-1v-1v-1v-1v-1v-1v-1v-1v-1v-1v-1v-1v-1v-1v-1v-1v-1v-1v-1v-1v-1v-1v-1v-1v-1v-1v-1v-1v-1v-1v-1v-1
v-1v-1v-1v-1v-1v-1v-1v-1v-1v-1v-1v-1v-1v-1v-1v-1v-1v-1v-1v-1v-1v-1v-1v-1v-1v-1v-1v-1v-1v-2v-1v-1v-1v-1v-1v-1v-1v-2v-1v-1v-1v-1v-1v-1v-2v-1v-1v-1v-1v-2v-1v-1v-1v-1v-2v-1v-1v-1v-1v-2v-1v-1v-1v-2v-1v-1v-1v-2v-1v-1v-1v-2v-1v-1v-2v-1v-1v-2v-1v-1v-1v-2v-1v-1
v-2v-1v-1v-2v-1v-1v-2v-1v-2v-1v-1v-2v-1v-1v-2v-1v-2v-1v-1v-2v-1v-2v-1v-1v-2v-1v-2v-1v-2v-1v-1v-2v-1v-2v-1v-2v-1v-2v-1v-2v-1v-1v-2v-1v-2v-1v-2v-1v-2v-1v-2v-1v-2v-2v-1v-2v-1v-2v-1v-2v-1v-2v-1v-2v-1v-2v-2v-1v-2v-1v-2v-1v-2v-2v-1v-2v-1v-2v-2v-1v-2v-1v-2v-2
v-1v-2v-1v-2v-2v-1v-2v-2v-1v-2v-2v-1v-2v-2v-1v-2v-2v-1v-2v-2v-1v-2v-2v-1v-2v-2v-1v-2v-2v-2v-1v-2v-2v-1v-2v-2v-2v-1v-2v-2v-2v-1v-2v-2v-2v-1v-2v-2v-2v-2v-1v-2v-2v-2v-2v-1v-2v-2v-2v-2v-1v-2v-2v-2v-2v-1v-2v-2v-2v-2v-2v-2v-1v-2v-2v-2v-2v-2v-2v-2v-1v-2v-2v-2
v-2v-2v-2v-2v-2v-2v-2v-2v-2v-2v-1v-2v-2v-10q0 -105 -34 -165t-114 -88z" />
    <glyph glyph-name="k" unicode="k" horiz-adv-x="532" 
d="M210 218h-1v-218h-154v661l154 19v-415h1l142 200h177l-171 -221l172 -244h-175z" />
    <glyph glyph-name="l" unicode="l" horiz-adv-x="264" 
d="M209 0h-154v661l154 19v-680z" />
    <glyph glyph-name="m" unicode="m" horiz-adv-x="847" 
d="M794 0h-154v274q0 75 -63 75q-41 0 -75 -30v-27v-292h-154v274q0 75 -64 75q-42 0 -75 -28v-321h-154v457l154 19v-65q67 69 148 69q44 0 79.5 -21.5t51.5 -61.5q71 83 161 83q68 0 106.5 -43t38.5 -118v-319z" />
    <glyph glyph-name="n" unicode="n" horiz-adv-x="565" 
d="M513 0h-154v275q0 40 -16.5 57t-49.5 17q-45 0 -84 -35v-314h-154v457l154 19v-76q70 80 156 80q69 0 108.5 -42.5t39.5 -117.5v-320z" />
    <glyph glyph-name="o" unicode="o" horiz-adv-x="559" 
d="M529 234q0 -114 -72 -181.5t-180 -67.5t-177.5 65.5t-69.5 180.5t72 182t181 67q108 0 177 -66t69 -180zM376 233q0 60 -25.5 95t-71.5 35t-71 -35t-25 -96q0 -60 25 -94.5t72 -34.5t71.5 34.5t24.5 95.5z" />
    <glyph glyph-name="p" unicode="p" horiz-adv-x="570" 
d="M209 417q61 63 130 63q87 0 143 -66t56 -176q0 -112 -68 -182t-165 -70q-48 0 -96 15v-208h-154v664l154 19v-59zM209 325v0v0v0v-1v0v0v-1v0v-1v-1v0v-1v-1v-1v-1v-1v-1v-1v-1v-1v-1v-1v-1v-1v-1v-1v-1v-1v-1v-1v-1v-1v-1v-1v-1v-1v-1v-1v-1v-1v-1v-1v-1v-1v-1v-1v-1v-2
v-1v-1v-1v-1v-1v-1v-1v-2v-1v-1v-1v-1v-2v-1v-1v-1v-2v-1v-1v-1v-2v-1v-1v-2v-1v-1v-2v-1v-1v-2v-1v-2v-1v-1v-2v-1v-2v-1v-1v-2v-1v-2v-1v-2v-1v-2v-1v-2v-1v-2v-1v-2v-1v-2v-1v-2v-2v-1v-2v-1v-2v-1v-2v-2v-1v-2v-2v-1v-2v-2v-1v-2v-2v-1v-2v-2v-1v-2v-2v-1v-2v-2v-2v-1
v-2v-2v-2v-1v-2v-2v-2v-1v-2v-2v-2v-2v-1v-2v-2v-2v-2v-2v-9q29 -19 71 -19q49 0 76.5 35t27.5 94q0 60 -25 93.5t-72 33.5q-43 0 -78 -32z" />
    <glyph glyph-name="q" unicode="q" horiz-adv-x="570" 
d="M514 -207h-154v255q-60 -62 -130 -62q-87 0 -143 66t-56 175q0 112 68 182t165 70q62 0 112 -22l138 19v-683zM360 345q-28 20 -71 20q-48 0 -76 -35.5t-28 -94.5q0 -58 27 -92.5t70 -34.5q45 0 78 33v0v0v0v1v0v1v0v1v0v1v1v1v1v1v1v1v1v1v1v1v1v1v1v1v1v1v1v1v1v1v1v1
v1v1v1v1v1v1v1v1v1v1v1v1v1v1v1v1v1v1v2v1v1v1v1v1v2v1v1v1v1v2v1v1v1v2v1v1v2v1v1v2v1v1v2v1v1v2v1v1v2v1v2v1v2v1v1v2v1v2v1v2v1v2v1v2v1v2v1v2v1v2v2v1v2v1v2v1v2v2v1v2v2v1v2v1v2v2v1v2v2v1v2v2v2v1v2v2v1v2v2v2v1v2v2v2v1v2v2v2v2v1v2v2v2v2v2v1v2v9z" />
    <glyph glyph-name="r" unicode="r" horiz-adv-x="401" 
d="M209 271v-271h-154v457l154 19v-68q41 72 112 72q40 0 77 -19l-31 -136q-28 14 -58 14q-61 0 -100 -68z" />
    <glyph glyph-name="s" unicode="s" horiz-adv-x="460" 
d="M432 138q0 -66 -56 -109.5t-155 -43.5q-50 0 -106 11t-91 30l30 111q85 -44 170 -44q63 0 63 38q0 18 -18 28t-61 20q-87 17 -132 52t-45 100q0 66 55 107.5t150 41.5q46 0 100 -11.5t89 -28.5l-31 -110q-86 42 -160 42q-57 0 -57 -35q0 -18 19 -27.5t61 -18.5
q89 -19 132 -53t43 -100z" />
    <glyph glyph-name="t" unicode="t" horiz-adv-x="377" 
d="M355 2q-56 -17 -113 -17q-89 0 -132 40t-39 129l7 177l-70 12l3 98l70 23l2 106h149l-1 -111h116l-3 -121h-124l-5 -167q-3 -61 61 -61q25 0 61 12z" />
    <glyph glyph-name="u" unicode="u" horiz-adv-x="558" 
d="M52 465h154v-275q0 -75 64 -75q44 0 79 31v319h154v-458l-154 -19v69q-66 -72 -151 -72q-68 0 -107 43t-39 117v320z" />
    <glyph glyph-name="v" unicode="v" horiz-adv-x="514" 
d="M518 465l-176 -466h-174l-172 466h165l96 -319l95 319h166z" />
    <glyph glyph-name="w" unicode="w" horiz-adv-x="771" 
d="M298 -2h-156l-131 467h156l63 -309l79 309h161l80 -304l54 304h160l-132 -467h-156l-89 306z" />
    <glyph glyph-name="x" unicode="x" horiz-adv-x="497" 
d="M501 0h-163l-89 149l-88 -149h-166l160 237l-156 228h163l86 -134l83 134h164l-154 -226z" />
    <glyph glyph-name="y" unicode="y" horiz-adv-x="508" 
d="M512 465l-168 -443l-23 -61q-35 -99 -81.5 -138t-122.5 -39q-73 0 -138 30l46 117q48 -21 72 -21q25 0 39 12t27 45l13 36l-182 462h165l99 -306l90 306h164z" />
    <glyph glyph-name="z" unicode="z" horiz-adv-x="459" 
d="M438 0h-420v92l218 246h-209v127h411v-92l-217 -247h217v-126z" />
    <glyph glyph-name="braceleft" unicode="{" horiz-adv-x="400" 
d="M385 -212q-72 2 -119.5 7.5t-89 19.5t-61 40.5t-19.5 66.5q0 45 16.5 104.5t16.5 81.5q0 35 -29 52.5t-93 22.5l-3 65l3 64q65 5 93.5 20.5t28.5 51.5q0 22 -16.5 83t-16.5 106q0 40 19.5 66.5t61 40.5t89 20.5t119.5 8.5v-94q-80 -6 -111 -21t-31 -46q0 -17 13.5 -72.5
t13.5 -100.5q0 -50 -40.5 -84t-105.5 -38v-10q65 -4 105.5 -39t40.5 -85q0 -44 -13.5 -97t-13.5 -72q0 -33 31.5 -49t110.5 -21v-92z" />
    <glyph glyph-name="bar" unicode="|" horiz-adv-x="267" 
d="M67 -200v901h133v-901h-133z" />
    <glyph glyph-name="braceright" unicode="}" horiz-adv-x="400" 
d="M396 248l-3 -65q-64 -5 -93 -22.5t-29 -52.5q0 -22 16 -81.5t16 -104.5q0 -40 -19.5 -66.5t-60.5 -40.5t-88.5 -19.5t-119.5 -7.5v92q79 5 110.5 21t31.5 49q0 19 -13.5 72t-13.5 97q0 51 40 85.5t106 38.5v10q-66 4 -106 37.5t-40 84.5q0 45 13.5 100.5t13.5 72.5
q0 31 -31.5 46t-110.5 21v94q72 -2 119.5 -8.5t88.5 -20.5t60.5 -40.5t19.5 -66.5q0 -45 -16 -106t-16 -83q0 -36 28.5 -51.5t93.5 -20.5z" />
    <glyph glyph-name="asciitilde" unicode="~" horiz-adv-x="398" 
d="M391 338q-9 -86 -36 -119.5t-74 -33.5q-35 0 -87 28.5t-64 28.5q-14 0 -21 -10.5t-11 -39.5v0h-1v0h-1h-1h-1h-1h-1h-1h-1h-1h-1h-1h-1h-1h-1h-1h-1h-1h-2h-1h-1h-1h-1h-2h-1h-1h-2h-1h-1h-2h-1h-2h-1h-1h-2h-1h-2h-2h-1h-2h-1h-2h-2h-1h-2h-2h-1h-2h-2h-2h-2h-1h-2h-2
h-2h-2h-2h-2h-2h-9q9 85 35.5 118.5t73.5 33.5q35 0 87.5 -28.5t64.5 -28.5q13 0 20 11t11 40v0h1v0h1h1h1h1h1h1h1h1h1h1h1h1h1h1h1h1h1h1h2h1h1h1h1h2h1h1h2h1h1h2h1h2h1h2h1h2h1h2h1h2h2h1h2h2h1h2h2h1h2h2h2h2h1h2h2h2h2h2h2h8z" />
    <glyph glyph-name="nbspace" unicode="&#xa0;" horiz-adv-x="158" 
 />
    <glyph glyph-name="exclamdown" unicode="&#xa1;" horiz-adv-x="304" 
d="M61 554q0 39 26 62t65 23t64.5 -23t25.5 -62q0 -38 -25.5 -61t-64.5 -23t-65 23t-26 61zM206 409l33 -437h-174l33 437h108z" />
    <glyph glyph-name="cent" unicode="&#xa2;" horiz-adv-x="481" 
d="M373 471q50 -11 83 -30l-30 -116q-35 21 -73 31l-43 -253q61 1 120 37l23 -117q-60 -36 -163 -38l-20 -121h-69l21 126q-90 16 -140.5 77.5t-50.5 161.5q0 115 69 183t186 68h19l17 97h69zM285 362q-49 -5 -76.5 -39.5t-27.5 -88.5q0 -86 62 -118z" />
    <glyph glyph-name="sterling" unicode="&#xa3;" horiz-adv-x="569" 
d="M113 343q-6 42 -6 80q0 101 63 159t168 58q103 0 180 -50q-30 -114 -30 -117q-64 45 -137 45q-47 0 -72 -27.5t-25 -74.5q0 -15 6 -73h169l-5 -69h-157q3 -29 3 -58q0 -37 -7 -65q52 -40 109 -40q69 0 82 95l110 -20q-7 -100 -56 -150.5t-122 -50.5q-86 0 -168 80
q-54 -60 -166 -83q-2 8 -5.5 20.5l-10.5 39l-12 44t-5 16.5q60 14 86 34.5t26 60.5q0 30 -7 77h-92l-4 69h85z" />
    <glyph glyph-name="currency" unicode="&#xa4;" horiz-adv-x="485" 
d="M460 501l-63 -63q18 -41 18 -79q0 -47 -17 -81l67 -67l-74 -74l-66 66q-35 -18 -82 -18q-48 0 -83 16l-60 -60l-73 73l60 60q-17 34 -17 85q0 54 17 83l-63 62l74 74l63 -63q35 18 82 18q46 0 84 -19l60 60zM318 359q0 33 -20.5 55.5t-54.5 22.5q-35 0 -55.5 -22.5
t-20.5 -55.5t20.5 -55.5t55.5 -22.5q34 0 54.5 22.5t20.5 55.5z" />
    <glyph glyph-name="yen" unicode="&#xa5;" horiz-adv-x="612" 
d="M232 243h-175l-4 69h156l-198 313h168l128 -235l126 235h168l-197 -313h156l-5 -69h-174v-66h174l5 -69h-176v-108h-155v108h-176l4 69h175v66z" />
    <glyph glyph-name="brokenbar" unicode="&#xa6;" horiz-adv-x="267" 
d="M67 307v335h133v-335h-133zM67 -139v335h133v-335h-133z" />
    <glyph glyph-name="section" unicode="&#xa7;" horiz-adv-x="527" 
d="M510 300q0 -84 -91 -118q54 -39 54 -94q0 -66 -56 -110t-154 -44q-50 0 -105.5 11.5t-92.5 30.5l30 110q85 -44 170 -44q63 0 63 38q0 20 -29 32t-89 26l-53.5 14t-49 17.5t-46 26t-28 36t-12.5 50.5q0 87 98 118q-49 39 -49 93q0 67 55 108.5t150 41.5q45 0 100 -11
t89 -29l-31 -110q-86 42 -160 42q-57 0 -57 -35q0 -5 2 -9.5t6 -8t8.5 -6.5t12 -6.5t14 -5.5l17 -5l18 -5l20 -5.5t20.5 -5.5q37 -10 63 -20.5t54.5 -27t43.5 -40.5t15 -55zM389 266q0 25 -29.5 41t-92 34t-91.5 31q-34 -26 -34 -59q0 -23 29.5 -39t93 -34.5t92.5 -30.5
q32 24 32 57z" />
    <glyph glyph-name="dieresis" unicode="&#xa8;" horiz-adv-x="398" 
d="M395 608q0 -37 -21 -57t-58 -20q-36 0 -57.5 20t-21.5 57t21.5 57t57.5 20q37 0 58 -20t21 -57zM163 608q0 -37 -22 -57t-58 -20t-58 20t-22 57t22 57t58 20t58 -20t22 -57z" />
    <glyph glyph-name="copyright" unicode="&#xa9;" horiz-adv-x="799" 
d="M399 -59q-154 0 -262 108.5t-108 261.5q0 154 108 263t262 109t262.5 -109t108.5 -263q0 -153 -108.5 -261.5t-262.5 -108.5zM736 311q0 140 -99 240t-238 100t-237.5 -100t-98.5 -240t98.5 -239.5t237.5 -99.5t238 99.5t99 239.5zM551 485l-37 -101q-41 24 -89 24
q-41 0 -65 -25.5t-24 -68.5q0 -46 23 -72t66 -26q47 0 95 27l26 -104q-50 -25 -127 -25q-97 0 -151.5 50.5t-54.5 146.5q0 92 56 146t155 54q60 0 127 -26z" />
    <glyph glyph-name="ordfeminine" unicode="&#xaa;" horiz-adv-x="397" 
d="M395 270l-126 -26q-24 27 -33 59h-4q-44 -58 -107 -58q-47 0 -76.5 29t-29.5 74q0 124 213 134v13q0 23 -15 36.5t-43 13.5q-57 0 -120 -43l-34 86q30 23 78 38t94 15q78 0 120.5 -36.5t42.5 -107.5v-122q0 -52 40 -105zM232 350v77q-101 -10 -101 -58q0 -19 12 -30
t32 -11q35 0 57 22z" />
    <glyph glyph-name="guillemotleft" unicode="&#xab;" horiz-adv-x="605" 
d="M584 109l-25 -97l-257 159v125l257 160l25 -98l-140 -124v-2zM293 117l-27 -95l-249 152v120l249 151l27 -95l-137 -116v-2z" />
    <glyph glyph-name="logicalnot" unicode="&#xac;" horiz-adv-x="506" 
d="M490 341v-250h-116v134h-334l3 116h447z" />
    <glyph glyph-name="uni00AD" unicode="&#xad;" horiz-adv-x="372" 
d="M346 181h-318v123h318v-123z" />
    <glyph glyph-name="registered" unicode="&#xae;" horiz-adv-x="799" 
d="M399 -59q-154 0 -262 108.5t-108 261.5q0 154 108 263t262 109t262.5 -109t108.5 -263q0 -153 -108.5 -261.5t-262.5 -108.5zM736 311q0 140 -99 240t-238 100t-237.5 -100t-98.5 -240t98.5 -239.5t237.5 -99.5t238 99.5t99 239.5zM357 247v-118h-119v374h181
q78 0 119 -32.5t41 -90.5q0 -76 -71 -106l86 -145h-128l-65 121zM356 320l41 1q61 2 61 52q0 48 -63 48h-39v-101z" />
    <glyph glyph-name="macron" unicode="&#xaf;" horiz-adv-x="398" 
d="M382 549h-364l11 87h342z" />
    <glyph glyph-name="degree" unicode="&#xb0;" horiz-adv-x="382" 
d="M356 474q0 -69 -45.5 -116.5t-119.5 -47.5t-119.5 47.5t-45.5 116.5q0 70 45.5 118t119.5 48t119.5 -48t45.5 -118zM302 474q0 50 -30 82.5t-81 32.5t-81.5 -33t-30.5 -82q0 -47 30.5 -80t81.5 -33t81 33t30 80z" />
    <glyph glyph-name="plusminus" unicode="&#xb1;" horiz-adv-x="526" 
d="M493 273h-168v-140h-123v140h-168l3 116h165v140h123v-140h165zM493 0h-459l3 116h453z" />
    <glyph glyph-name="twosuperior" unicode="&#xb2;" horiz-adv-x="330" 
d="M295 273h-278l-2 73q118 99 139 125q22 26 22 50q0 39 -44 39q-45 0 -81 -38q-1 0 -12 20t-20 39.5t-8 19.5q56 51 144 51q68 0 104 -34.5t36 -86.5q0 -39 -30 -72t-113 -96v0v0h1v0h1v0h1h1h1h1h1h1h1h1h1h1h1h1h1h1h1h1h1h1h1h1h1h1h1h2h1h1h1h1h1h1h1h2h1h1h1h1h2h1h1
h2h1h1h1h2h1h2h1h1h2h1h1h2h1h2h1h2h1h2h1h2h1h2h1h2h1h2h2h1h2h1h2h2h1h2h2h1h2h2h1h2h2h1h2h2h2h1h2h2h2h1h2h2h2h2h1h9z" />
    <glyph glyph-name="threesuperior" unicode="&#xb3;" horiz-adv-x="330" 
d="M190 466q55 3 85 -22.5t30 -65.5q0 -54 -45.5 -84t-120.5 -30q-64 0 -121 24l17 81q56 -20 96 -20q66 0 66 35q0 36 -66 36q-14 0 -59 -6v74q58 9 81.5 19t23.5 30q0 28 -41 28q-46 0 -85 -28l-34 80q59 35 135 35q64 0 100.5 -24t36.5 -72q0 -66 -99 -90z" />
    <glyph glyph-name="acute" unicode="&#xb4;" horiz-adv-x="397" 
d="M370 712l-169 -185h-96l99 185h166z" />
    <glyph glyph-name="mu" unicode="&#xb5;" horiz-adv-x="561" 
d="M209 465v-265q0 -50 18.5 -67.5t52.5 -17.5q72 0 72 90v260h154v-465h-153v45q-10 -25 -30 -41t-42 -16q-49 0 -72 40v-261h-154v698h154z" />
    <glyph glyph-name="mu" unicode="&#x3bc;" horiz-adv-x="561" 
d="M209 465v-265q0 -50 18.5 -67.5t52.5 -17.5q72 0 72 90v260h154v-465h-153v45q-10 -25 -30 -41t-42 -16q-49 0 -72 40v-261h-154v698h154z" />
    <glyph glyph-name="paragraph" unicode="&#xb6;" horiz-adv-x="590" 
d="M382 200q-10 -3 -75 -3q-132 0 -200.5 56.5t-68.5 159.5q0 100 73 156t208 56v0v0v0v0v0h1v0h1v0h1v0h1h1h1h1h1h1h1h1h1h1h1h1h1h1h1h1h1h1h1h1h1h1h1h1h1h1h1h1h1h1h1h1h1h1h1h1h1h2h1h1h1h1h1h1h2h1h1h1h1h2h1h1h1h2h1h1h2h1h1h2h1h1h2h1h1h2h1h1h2h1h2h1h1h2h1h2h1h2
h1h2h1h2h1h2h1h2h1h2h1h2h2h1h2h1h2h1h2h2h1h2h2h1h2h1h2h2h1h2h2h2h1h2h2h1h2h2h2h1h2h2h2h1h2h2h2h2h1h2h2h2h2h1h2h2h10v-696h-134v271z" />
    <glyph glyph-name="periodcentered" unicode="&#xb7;" horiz-adv-x="273" 
d="M234 256q0 -41 -26 -66t-68 -25q-43 0 -69 25t-26 66t26 66t69 25q42 0 68 -25t26 -66z" />
    <glyph glyph-name="cedilla" unicode="&#xb8;" horiz-adv-x="398" 
d="M196 -51q54 -2 90.5 -28.5t36.5 -70.5q0 -109 -199 -133l-8 71q117 5 117 52q0 52 -116 43l-10 51l113 105h76z" />
    <glyph glyph-name="onesuperior" unicode="&#xb9;" horiz-adv-x="330" 
d="M128 273v265l-88 -15l-4 93l218 36v-379h-126z" />
    <glyph glyph-name="ordmasculine" unicode="&#xba;" horiz-adv-x="452" 
d="M425 442q0 -90 -57 -144t-144 -54q-86 0 -141.5 53.5t-55.5 144.5t56.5 144.5t144.5 53.5q87 0 142 -53.5t55 -144.5zM302 441q0 50 -20.5 80t-56.5 30q-35 0 -55 -29t-20 -79t20.5 -79.5t56.5 -29.5t55.5 29t19.5 78z" />
    <glyph glyph-name="guillemotright" unicode="&#xbb;" horiz-adv-x="610" 
d="M594 174l-250 -152l-26 95l136 115v2l-136 116l26 95l250 -151v-120zM308 171l-256 -159l-25 97l140 123v2l-140 124l25 98l256 -160v-125z" />
    <glyph glyph-name="onequarter" unicode="&#xbc;" horiz-adv-x="715" 
d="M707 -58h-44v-85h-105v85h-162l-4 75l126 214h145v-211h42zM562 19v140l-78 -140h78zM716 625l-560 -741h-116l560 741h116zM128 273v265l-88 -15l-4 93l218 36v-379h-126z" />
    <glyph glyph-name="onehalf" unicode="&#xbd;" horiz-adv-x="715" 
d="M701 625l-560 -741h-116l560 741h116zM128 273v265l-88 -15l-4 93l218 36v-379h-126zM680 -143h-278l-2 73q118 99 139 125q22 26 22 50q0 39 -44 39q-45 0 -81 -38q-1 0 -12 20t-20 39.5t-8 19.5q56 51 144 51q68 0 104 -34.5t36 -86.5q0 -39 -30 -72t-113 -96v0v0h1v0
h1v0h1h1h1h1h1h1h1h1h1h1h1h1h1h1h1h1h1h1h1h1h1h1h1h2h1h1h1h1h1h1h1h2h1h1h1h1h2h1h1h2h1h1h1h2h1h2h1h1h2h1h1h2h1h2h1h2h1h2h1h2h1h2h1h2h1h2h2h1h2h1h2h2h1h2h2h1h2h2h1h2h2h1h2h2h2h1h2h2h2h1h2h2h2h2h1h9z" />
    <glyph glyph-name="threequarters" unicode="&#xbe;" horiz-adv-x="715" 
d="M707 -58h-44v-85h-105v85h-162l-4 75l126 214h145v-211h42zM562 19v140l-78 -140h78zM716 625l-560 -741h-116l560 741h116zM190 466q55 3 85 -22.5t30 -65.5q0 -54 -45.5 -84t-120.5 -30q-64 0 -121 24l17 81q56 -20 96 -20q66 0 66 35q0 36 -66 36q-14 0 -59 -6v74
q58 9 81.5 19t23.5 30q0 28 -41 28q-46 0 -85 -28l-34 80q59 35 135 35q64 0 100.5 -24t36.5 -72q0 -66 -99 -90z" />
    <glyph glyph-name="questiondown" unicode="&#xbf;" horiz-adv-x="418" 
d="M33 175q0 103 116 139q65 21 72 37q0 6 -11 17.5t-26 24.5t-18 16q89 15 97 15q39 -16 61.5 -47.5t22.5 -65.5q0 -71 -100 -98q-43 -12 -59 -21t-16 -27q0 -24 26.5 -37.5t72.5 -13.5q51 0 103 18l-6 -129q-49 -18 -110 -18q-99 0 -162 54t-63 136zM143 555
q0 40 25.5 62.5t68.5 22.5t69 -22.5t26 -62.5t-26 -62t-69 -22t-68.5 22t-25.5 62z" />
    <glyph glyph-name="Agrave" unicode="&#xc0;" horiz-adv-x="643" 
d="M423 625l218 -625h-158l-46 133h-232l-45 -133h-158l222 625h199zM402 257l-80 245l-83 -245h163zM375 668h-96l-169 185h166z" />
    <glyph glyph-name="Aacute" unicode="&#xc1;" horiz-adv-x="643" 
d="M423 625l218 -625h-158l-46 133h-232l-45 -133h-158l222 625h199zM402 257l-80 245l-83 -245h163zM534 853l-169 -185h-96l99 185h166z" />
    <glyph glyph-name="Acircumflex" unicode="&#xc2;" horiz-adv-x="643" 
d="M423 625l218 -625h-158l-46 133h-232l-45 -133h-158l222 625h199zM402 257l-80 245l-83 -245h163zM511 668h-105l-83 107h-2l-81 -107h-107l119 187h140z" />
    <glyph glyph-name="Atilde" unicode="&#xc3;" horiz-adv-x="643" 
d="M423 625l218 -625h-158l-46 133h-232l-45 -133h-158l222 625h199zM402 257l-80 245l-83 -245h163zM514 824q-9 -86 -36 -119.5t-74 -33.5q-35 0 -87 28.5t-64 28.5q-14 0 -21 -10.5t-11 -39.5v0h-1v0h-1h-1h-1h-1h-1h-1h-1h-1h-1h-1h-1h-1h-1h-1h-1h-1h-2h-1h-1h-1h-1h-2
h-1h-1h-2h-1h-1h-2h-1h-2h-1h-1h-2h-1h-2h-2h-1h-2h-1h-2h-2h-1h-2h-2h-1h-2h-2h-2h-2h-1h-2h-2h-2h-2h-2h-2h-2h-9q9 85 35.5 118.5t73.5 33.5q35 0 87.5 -28.5t64.5 -28.5q13 0 20 11t11 40v0h1v0h1h1h1h1h1h1h1h1h1h1h1h1h1h1h1h1h1h1h2h1h1h1h1h2h1h1h2h1h1h2h1h2h1h2h1
h2h1h2h1h2h2h1h2h2h1h2h2h1h2h2h2h2h1h2h2h2h2h2h2h8z" />
    <glyph glyph-name="Adieresis" unicode="&#xc4;" horiz-adv-x="643" 
d="M423 625l218 -625h-158l-46 133h-232l-45 -133h-158l222 625h199zM402 257l-80 245l-83 -245h163zM514 749q0 -37 -21 -57t-58 -20q-36 0 -57.5 20t-21.5 57t21.5 57t57.5 20q37 0 58 -20t21 -57zM282 749q0 -37 -22 -57t-58 -20t-58 20t-22 57t22 57t58 20t58 -20
t22 -57z" />
    <glyph glyph-name="Aring" unicode="&#xc5;" horiz-adv-x="643" 
d="M402 257l-80 245l-83 -245h163zM219 610q-37 31 -37 81t38.5 84t101.5 34q64 0 102.5 -33.5t38.5 -84.5q0 -49 -37 -80l215 -611h-158l-46 133h-232l-45 -133h-158zM405 692q0 30 -22.5 49t-60.5 19q-37 0 -59 -19t-22 -49t22.5 -50t58.5 -20q38 0 60.5 19.5t22.5 50.5z
" />
    <glyph glyph-name="AE" unicode="&#xc6;" horiz-adv-x="897" 
d="M281 260h122v263zM225 133l-62 -133h-170l304 625h562v-128h-301v-120h249v-127h-249v-122h301v-128h-456v133h-178z" />
    <glyph glyph-name="Ccedilla" unicode="&#xc7;" horiz-adv-x="613" 
d="M311 -11q-127 16 -199.5 99t-72.5 222q0 151 91 240.5t246 89.5q111 0 207 -47l-48 -133q-76 45 -158 45q-81 0 -129.5 -51.5t-48.5 -139.5q0 -90 47.5 -142t131.5 -52q88 0 165 51l33 -141q-75 -42 -194 -45l-41 -36q54 -2 90.5 -28.5t36.5 -70.5q0 -109 -199 -133
l-8 71q117 5 117 52q0 52 -116 43l-10 51z" />
    <glyph glyph-name="Egrave" unicode="&#xc8;" horiz-adv-x="565" 
d="M522 0h-457v625h457v-128h-301v-120h242v-127h-242v-122h301v-128zM352 668h-96l-169 185h166z" />
    <glyph glyph-name="Eacute" unicode="&#xc9;" horiz-adv-x="565" 
d="M522 0h-457v625h457v-128h-301v-120h242v-127h-242v-122h301v-128zM504 853l-169 -185h-96l99 185h166z" />
    <glyph glyph-name="Ecircumflex" unicode="&#xca;" horiz-adv-x="565" 
d="M522 0h-457v625h457v-128h-301v-120h242v-127h-242v-122h301v-128zM484 668h-105l-83 107h-2l-81 -107h-107l119 187h140z" />
    <glyph glyph-name="Edieresis" unicode="&#xcb;" horiz-adv-x="565" 
d="M522 0h-457v625h457v-128h-301v-120h242v-127h-242v-122h301v-128zM491 749q0 -37 -21 -57t-58 -20q-36 0 -57.5 20t-21.5 57t21.5 57t57.5 20q37 0 58 -20t21 -57zM259 749q0 -37 -22 -57t-58 -20t-58 20t-22 57t22 57t58 20t58 -20t22 -57z" />
    <glyph glyph-name="Igrave" unicode="&#xcc;" horiz-adv-x="292" 
d="M225 0h-159v625h159v-625zM199 668h-96l-169 185h166z" />
    <glyph glyph-name="Iacute" unicode="&#xcd;" horiz-adv-x="292" 
d="M225 0h-159v625h159v-625zM353 853l-169 -185h-96l99 185h166z" />
    <glyph glyph-name="Icircumflex" unicode="&#xce;" horiz-adv-x="292" 
d="M225 0h-159v625h159v-625zM335 668h-105l-83 107h-2l-81 -107h-107l119 187h140z" />
    <glyph glyph-name="Idieresis" unicode="&#xcf;" horiz-adv-x="292" 
d="M225 0h-159v625h159v-625zM341 749q0 -37 -21 -57t-58 -20q-36 0 -57.5 20t-21.5 57t21.5 57t57.5 20q37 0 58 -20t21 -57zM109 749q0 -37 -22 -57t-58 -20t-58 20t-22 57t22 57t58 20t58 -20t22 -57z" />
    <glyph glyph-name="Eth" unicode="&#xd0;" horiz-adv-x="716" 
d="M257 377h127v-122h-127v-128h61q90 0 145 47t55 137q0 187 -208 187h-53v-121zM98 255h-83v122h83v248h235q163 0 254 -83.5t91 -224.5q0 -146 -93 -231.5t-262 -85.5h-225v255z" />
    <glyph glyph-name="Ntilde" unicode="&#xd1;" horiz-adv-x="711" 
d="M497 219v406h149v-631h-169l-263 411v-405h-149v625h172zM548 824q-9 -86 -36 -119.5t-74 -33.5q-35 0 -87 28.5t-64 28.5q-13 0 -20.5 -10.5t-11.5 -39.5v0h-1v0h-1h-1h-1h-1h-1h-1h-1h-1h-1h-1h-1h-1h-1h-1h-1h-1h-2h-1h-1h-1h-1h-2h-1h-1h-2h-1h-1h-2h-1h-2h-1h-1h-2
h-1h-2h-2h-1h-2h-1h-2h-2h-1h-2h-2h-1h-2h-2h-2h-2h-1h-2h-2h-2h-2h-2h-2h-2h-9q9 85 35.5 118.5t73.5 33.5q35 0 87.5 -28.5t64.5 -28.5q13 0 20 11t11 40v0h1v0h1h1h1h1h1h1h1h1h1h1h1h1h1h1h1h1h1h1h2h1h1h1h1h2h1h1h2h1h1h2h1h2h1h2h1h2h1h2h1h2h2h1h2h2h1h2h2h1h2h2h2
h2h1h2h2h2h2h2h2h8z" />
    <glyph glyph-name="Ograve" unicode="&#xd2;" horiz-adv-x="733" 
d="M694 315q0 -147 -93.5 -238.5t-235.5 -91.5q-144 0 -235 86t-91 240q0 147 93 238t235 91q144 0 235.5 -85.5t91.5 -239.5zM534 311q0 91 -45 146t-124 55q-78 0 -122 -54t-44 -143q0 -91 45 -146.5t124 -55.5q78 0 122 54.5t44 143.5zM420 674h-96l-169 185h166z" />
    <glyph glyph-name="Oacute" unicode="&#xd3;" horiz-adv-x="733" 
d="M694 315q0 -147 -93.5 -238.5t-235.5 -91.5q-144 0 -235 86t-91 240q0 147 93 238t235 91q144 0 235.5 -85.5t91.5 -239.5zM534 311q0 91 -45 146t-124 55q-78 0 -122 -54t-44 -143q0 -91 45 -146.5t124 -55.5q78 0 122 54.5t44 143.5zM578 859l-169 -185h-96l99 185h166
z" />
    <glyph glyph-name="Ocircumflex" unicode="&#xd4;" horiz-adv-x="733" 
d="M694 315q0 -147 -93.5 -238.5t-235.5 -91.5q-144 0 -235 86t-91 240q0 147 93 238t235 91q144 0 235.5 -85.5t91.5 -239.5zM534 311q0 91 -45 146t-124 55q-78 0 -122 -54t-44 -143q0 -91 45 -146.5t124 -55.5q78 0 122 54.5t44 143.5zM556 668h-105l-83 107h-2l-81 -107
h-107l119 187h140z" />
    <glyph glyph-name="Otilde" unicode="&#xd5;" horiz-adv-x="733" 
d="M694 315q0 -147 -93.5 -238.5t-235.5 -91.5q-144 0 -235 86t-91 240q0 147 93 238t235 91q144 0 235.5 -85.5t91.5 -239.5zM534 311q0 91 -45 146t-124 55q-78 0 -122 -54t-44 -143q0 -91 45 -146.5t124 -55.5q78 0 122 54.5t44 143.5zM559 824q-9 -86 -36 -119.5
t-74 -33.5q-35 0 -87 28.5t-64 28.5q-14 0 -21 -10.5t-11 -39.5v0h-1v0h-1h-1h-1h-1h-1h-1h-1h-1h-1h-1h-1h-1h-1h-1h-1h-1h-2h-1h-1h-1h-1h-2h-1h-1h-2h-1h-1h-2h-1h-2h-1h-1h-2h-1h-2h-2h-1h-2h-1h-2h-2h-1h-2h-2h-1h-2h-2h-2h-2h-1h-2h-2h-2h-2h-2h-2h-2h-9
q9 85 35.5 118.5t73.5 33.5q35 0 87.5 -28.5t64.5 -28.5q13 0 20 11t11 40v0h1v0h1h1h1h1h1h1h1h1h1h1h1h1h1h1h1h1h1h1h2h1h1h1h1h2h1h1h2h1h1h2h1h2h1h2h1h2h1h2h1h2h2h1h2h2h1h2h2h1h2h2h2h2h1h2h2h2h2h2h2h8z" />
    <glyph glyph-name="Odieresis" unicode="&#xd6;" horiz-adv-x="733" 
d="M694 315q0 -147 -93.5 -238.5t-235.5 -91.5q-144 0 -235 86t-91 240q0 147 93 238t235 91q144 0 235.5 -85.5t91.5 -239.5zM534 311q0 91 -45 146t-124 55q-78 0 -122 -54t-44 -143q0 -91 45 -146.5t124 -55.5q78 0 122 54.5t44 143.5zM562 749q0 -37 -21 -57t-58 -20
q-36 0 -57.5 20t-21.5 57t21.5 57t57.5 20q37 0 58 -20t21 -57zM330 749q0 -37 -22 -57t-58 -20t-58 20t-22 57t22 57t58 20t58 -20t22 -57z" />
    <glyph glyph-name="multiply" unicode="&#xd7;" horiz-adv-x="526" 
d="M492 91l-81 -81l-148 149l-147 -149l-81 81l149 147l-150 148l81 81l148 -150l149 150l81 -81l-151 -147z" />
    <glyph glyph-name="Oslash" unicode="&#xd8;" horiz-adv-x="733" 
d="M695 315q0 -147 -93.5 -238.5t-235.5 -91.5q-76 0 -142 26l-46 -78h-72l63 107q-129 88 -129 271q0 147 93 238t235 91q76 0 137 -24l45 76h72l-61 -104q134 -87 134 -273zM438 497q-33 15 -72 15q-78 0 -122.5 -54t-44.5 -143q0 -94 49 -148zM484 463l-192 -332
q33 -18 77 -18q78 0 122 54.5t44 143.5q0 98 -51 152z" />
    <glyph glyph-name="Ugrave" unicode="&#xd9;" horiz-adv-x="672" 
d="M612 255q0 -133 -73.5 -201.5t-202.5 -68.5q-127 0 -201 64t-74 192v384h158v-363q0 -143 121 -143q57 0 85.5 33t28.5 104v0v0v0v0v1v0v0v1v0v1v0v1v0v1v0v1v0v1v1v1v1v1v1v1v1v1v1v1v1v1v1v1v1v1v1v1v1v1v1v1v1v1v1v1v1v1v1v1v1v1v1v1v1v1v1v1v1v1v1v1v1v1v1v1v1v1v1v1
v1v1v1v1v1v1v1v1v1v1v1v1v1v1v1v1v2v1v1v1v1v1v1v1v2v1v1v1v1v1v2v1v1v1v1v1v2v1v1v1v2v1v1v1v2v1v1v1v2v1v1v1v2v1v1v2v1v1v1v2v1v1v2v1v1v2v1v2v1v1v2v1v1v2v1v2v1v1v2v1v2v1v1v2v1v2v1v2v1v1v2v1v2v1v2v1v2v1v2v1v2v1v2v1v2v1v2v1v2v1v2v1v2v2v1v2v1v2v1v2v1v2v2v1v2v1v2
v2v1v2v1v2v2v1v2v2v1v2v1v2v2v1v2v2v1v2v2v1v2v2v1v2v2v2v1v2v2v1v2v2v2v1v2v2v1v2v2v2v1v2v2v2v1v2v2v2v2v1v2v2v2v2v1v2v2v2v2v1v2v2v2v2v2v1v2v2v2v2v2v2v1v2v2v2v2v8h158v-370zM399 668h-96l-169 185h166z" />
    <glyph glyph-name="Uacute" unicode="&#xda;" horiz-adv-x="672" 
d="M612 255q0 -133 -73.5 -201.5t-202.5 -68.5q-127 0 -201 64t-74 192v384h158v-363q0 -143 121 -143q57 0 85.5 33t28.5 104v0v0v0v0v1v0v0v1v0v1v0v1v0v1v0v1v0v1v1v1v1v1v1v1v1v1v1v1v1v1v1v1v1v1v1v1v1v1v1v1v1v1v1v1v1v1v1v1v1v1v1v1v1v1v1v1v1v1v1v1v1v1v1v1v1v1v1v1
v1v1v1v1v1v1v1v1v1v1v1v1v1v1v1v1v2v1v1v1v1v1v1v1v2v1v1v1v1v1v2v1v1v1v1v1v2v1v1v1v2v1v1v1v2v1v1v1v2v1v1v1v2v1v1v2v1v1v1v2v1v1v2v1v1v2v1v2v1v1v2v1v1v2v1v2v1v1v2v1v2v1v1v2v1v2v1v2v1v1v2v1v2v1v2v1v2v1v2v1v2v1v2v1v2v1v2v1v2v1v2v1v2v2v1v2v1v2v1v2v1v2v2v1v2v1v2
v2v1v2v1v2v2v1v2v2v1v2v1v2v2v1v2v2v1v2v2v1v2v2v1v2v2v2v1v2v2v1v2v2v2v1v2v2v1v2v2v2v1v2v2v2v1v2v2v2v2v1v2v2v2v2v1v2v2v2v2v1v2v2v2v2v2v1v2v2v2v2v2v2v1v2v2v2v2v8h158v-370zM539 853l-169 -185h-96l99 185h166z" />
    <glyph glyph-name="Ucircumflex" unicode="&#xdb;" horiz-adv-x="672" 
d="M612 255q0 -133 -73.5 -201.5t-202.5 -68.5q-127 0 -201 64t-74 192v384h158v-363q0 -143 121 -143q57 0 85.5 33t28.5 104v0v0v0v0v1v0v0v1v0v1v0v1v0v1v0v1v0v1v1v1v1v1v1v1v1v1v1v1v1v1v1v1v1v1v1v1v1v1v1v1v1v1v1v1v1v1v1v1v1v1v1v1v1v1v1v1v1v1v1v1v1v1v1v1v1v1v1v1
v1v1v1v1v1v1v1v1v1v1v1v1v1v1v1v1v2v1v1v1v1v1v1v1v2v1v1v1v1v1v2v1v1v1v1v1v2v1v1v1v2v1v1v1v2v1v1v1v2v1v1v1v2v1v1v2v1v1v1v2v1v1v2v1v1v2v1v2v1v1v2v1v1v2v1v2v1v1v2v1v2v1v1v2v1v2v1v2v1v1v2v1v2v1v2v1v2v1v2v1v2v1v2v1v2v1v2v1v2v1v2v1v2v2v1v2v1v2v1v2v1v2v2v1v2v1v2
v2v1v2v1v2v2v1v2v2v1v2v1v2v2v1v2v2v1v2v2v1v2v2v1v2v2v2v1v2v2v1v2v2v2v1v2v2v1v2v2v2v1v2v2v2v1v2v2v2v2v1v2v2v2v2v1v2v2v2v2v1v2v2v2v2v2v1v2v2v2v2v2v2v1v2v2v2v2v8h158v-370zM526 668h-105l-83 107h-2l-81 -107h-107l119 187h140z" />
    <glyph glyph-name="Udieresis" unicode="&#xdc;" horiz-adv-x="672" 
d="M612 255q0 -133 -73.5 -201.5t-202.5 -68.5q-127 0 -201 64t-74 192v384h158v-363q0 -143 121 -143q57 0 85.5 33t28.5 104v0v0v0v0v1v0v0v1v0v1v0v1v0v1v0v1v0v1v1v1v1v1v1v1v1v1v1v1v1v1v1v1v1v1v1v1v1v1v1v1v1v1v1v1v1v1v1v1v1v1v1v1v1v1v1v1v1v1v1v1v1v1v1v1v1v1v1v1
v1v1v1v1v1v1v1v1v1v1v1v1v1v1v1v1v2v1v1v1v1v1v1v1v2v1v1v1v1v1v2v1v1v1v1v1v2v1v1v1v2v1v1v1v2v1v1v1v2v1v1v1v2v1v1v2v1v1v1v2v1v1v2v1v1v2v1v2v1v1v2v1v1v2v1v2v1v1v2v1v2v1v1v2v1v2v1v2v1v1v2v1v2v1v2v1v2v1v2v1v2v1v2v1v2v1v2v1v2v1v2v1v2v2v1v2v1v2v1v2v1v2v2v1v2v1v2
v2v1v2v1v2v2v1v2v2v1v2v1v2v2v1v2v2v1v2v2v1v2v2v1v2v2v2v1v2v2v1v2v2v2v1v2v2v1v2v2v2v1v2v2v2v1v2v2v2v2v1v2v2v2v2v1v2v2v2v2v1v2v2v2v2v2v1v2v2v2v2v2v2v1v2v2v2v2v8h158v-370zM532 749q0 -37 -21 -57t-58 -20q-36 0 -57.5 20t-21.5 57t21.5 57t57.5 20q37 0 58 -20
t21 -57zM300 749q0 -37 -22 -57t-58 -20t-58 20t-22 57t22 57t58 20t58 -20t22 -57z" />
    <glyph glyph-name="Yacute" unicode="&#xdd;" horiz-adv-x="611" 
d="M601 625l-217 -388v-237h-156v238l-218 387h169l129 -247l125 247h168zM515 853l-169 -185h-96l99 185h166z" />
    <glyph glyph-name="Thorn" unicode="&#xde;" horiz-adv-x="592" 
d="M563 321q0 -110 -71.5 -168t-206.5 -59h-61v-94h-159v625h159v-87h72q128 0 197.5 -59t69.5 -158zM405 317q0 95 -121 95h-64v-196l63 1q122 3 122 100z" />
    <glyph glyph-name="germandbls" unicode="&#xdf;" horiz-adv-x="645" 
d="M81 0v337l-80 6l4 98l75 22v3v7t0.5 9.5t0.5 9.5v7v2q3 102 68 149t171 47q104 0 162.5 -47.5t58.5 -127.5q0 -30 -13.5 -54t-30 -36t-30 -26t-13.5 -27q0 -14 18 -28t43 -28.5t50.5 -33.5t43.5 -52.5t18 -75.5q0 -81 -50.5 -129t-143.5 -48q-81 0 -158 36l21 118
q58 -36 105 -36q63 0 63 52q0 28 -23 49.5t-50 35t-50 40.5t-23 65q0 42 34.5 88t34.5 76t-21 52.5t-51 22.5q-82 0 -82 -86v-497h-152z" />
    <glyph glyph-name="agrave" unicode="&#xe0;" horiz-adv-x="511" 
d="M298 527h-96l-169 185h166zM305 118v89q-72 -8 -101 -23.5t-29 -46.5q0 -22 16 -36t42 -14q44 0 72 31zM309 56h-3q-60 -71 -134 -71q-60 0 -101 37.5t-41 91.5q0 157 275 165v9q0 37 -19.5 54t-62.5 17q-64 0 -158 -47l-32 113q104 55 214 55q116 0 165 -50.5t47 -152.5
l-1 -138q0 -23 6.5 -29.5t31.5 -8.5l-15 -110q-138 -18 -172 65z" />
    <glyph glyph-name="aacute" unicode="&#xe1;" horiz-adv-x="511" 
d="M305 118v89q-72 -8 -101 -23.5t-29 -46.5q0 -22 16 -36t42 -14q44 0 72 31zM309 56h-3q-60 -71 -134 -71q-60 0 -101 37.5t-41 91.5q0 157 275 165v9q0 37 -19.5 54t-62.5 17q-64 0 -158 -47l-32 113q104 55 214 55q116 0 165 -50.5t47 -152.5l-1 -138q0 -23 6.5 -29.5
t31.5 -8.5l-15 -110q-138 -18 -172 65zM442 712l-169 -185h-96l99 185h166z" />
    <glyph glyph-name="acircumflex" unicode="&#xe2;" horiz-adv-x="511" 
d="M305 118v89q-72 -8 -101 -23.5t-29 -46.5q0 -22 16 -36t42 -14q44 0 72 31zM309 56h-3q-60 -71 -134 -71q-60 0 -101 37.5t-41 91.5q0 157 275 165v9q0 37 -19.5 54t-62.5 17q-64 0 -158 -47l-32 113q104 55 214 55q116 0 165 -50.5t47 -152.5l-1 -138q0 -23 6.5 -29.5
t31.5 -8.5l-15 -110q-138 -18 -172 65zM431 527h-105l-83 107h-2l-81 -107h-107l119 187h140z" />
    <glyph glyph-name="atilde" unicode="&#xe3;" horiz-adv-x="511" 
d="M305 118v89q-72 -8 -101 -23.5t-29 -46.5q0 -22 16 -36t42 -14q44 0 72 31zM309 56h-3q-60 -71 -134 -71q-60 0 -101 37.5t-41 91.5q0 157 275 165v9q0 37 -19.5 54t-62.5 17q-64 0 -158 -47l-32 113q104 55 214 55q116 0 165 -50.5t47 -152.5l-1 -138q0 -23 6.5 -29.5
t31.5 -8.5l-15 -110q-138 -18 -172 65zM440 683q-9 -86 -36 -119.5t-74 -33.5q-35 0 -87 28.5t-64 28.5q-13 0 -20.5 -10.5t-11.5 -39.5v0h-1v0h-1h-1h-1h-1h-1h-1h-1h-1h-1h-1h-1h-1h-1h-1h-1h-1h-2h-1h-1h-1h-1h-2h-1h-1h-2h-1h-1h-2h-1h-2h-1h-1h-2h-1h-2h-2h-1h-2h-1h-2
h-2h-1h-2h-2h-1h-2h-2h-2h-2h-1h-2h-2h-2h-2h-2h-2h-2h-9q9 85 35.5 118.5t73.5 33.5q35 0 87.5 -28.5t64.5 -28.5q13 0 20 11t11 40v0h1v0h1h1h1h1h1h1h1h1h1h1h1h1h1h1h1h1h1h1h2h1h1h1h1h2h1h1h2h1h1h2h1h2h1h2h1h2h1h2h1h2h2h1h2h2h1h2h2h1h2h2h2h2h1h2h2h2h2h2h2h8z
" />
    <glyph glyph-name="adieresis" unicode="&#xe4;" horiz-adv-x="511" 
d="M305 118v89q-72 -8 -101 -23.5t-29 -46.5q0 -22 16 -36t42 -14q44 0 72 31zM309 56h-3q-60 -71 -134 -71q-60 0 -101 37.5t-41 91.5q0 157 275 165v9q0 37 -19.5 54t-62.5 17q-64 0 -158 -47l-32 113q104 55 214 55q116 0 165 -50.5t47 -152.5l-1 -138q0 -23 6.5 -29.5
t31.5 -8.5l-15 -110q-138 -18 -172 65zM444 601q0 -37 -21 -57t-58 -20q-36 0 -57.5 20t-21.5 57t21.5 57t57.5 20q37 0 58 -20t21 -57zM212 601q0 -37 -22 -57t-58 -20t-58 20t-22 57t22 57t58 20t58 -20t22 -57z" />
    <glyph glyph-name="aring" unicode="&#xe5;" horiz-adv-x="511" 
d="M305 118v89q-72 -8 -101 -23.5t-29 -46.5q0 -22 16 -36t42 -14q44 0 72 31zM309 56h-3q-60 -71 -134 -71q-60 0 -101 37.5t-41 91.5q0 157 275 165v9q0 37 -19.5 54t-62.5 17q-64 0 -158 -47l-32 113q104 55 214 55q116 0 165 -50.5t47 -152.5l-1 -138q0 -23 6.5 -29.5
t31.5 -8.5l-15 -110q-138 -18 -172 65zM377 640q1 -51 -38 -84.5t-103 -33.5t-102.5 33.5t-38.5 84.5t38.5 84.5t102.5 33.5t102.5 -33.5t38.5 -84.5zM318 641q0 30 -22 49t-60 19q-37 0 -59 -19t-22 -49t22.5 -50t58.5 -20q38 0 60 19.5t22 50.5z" />
    <glyph glyph-name="ae" unicode="&#xe6;" horiz-adv-x="786" 
d="M347 82q-79 -97 -175 -97q-60 0 -101 37.5t-41 91.5q0 72 66 117t215 48v8q0 72 -88 72q-64 0 -158 -47l-32 113q102 54 216 54q108 0 159 -49q63 50 147 50q95 0 146.5 -54t51.5 -141q0 -49 -10 -82l-296 -5v-2q5 -47 36.5 -72.5t87.5 -25.5q74 0 151 45l15 -119
q-74 -38 -180 -38q-143 0 -210 96zM449 275l160 1q1 2 1 9q0 89 -72 89q-37 0 -61 -28.5t-28 -70.5zM310 207q-72 -6 -103.5 -22.5t-31.5 -47.5q0 -22 16.5 -36t42.5 -14q49 0 89 43q-11 38 -13 77z" />
    <glyph glyph-name="ccedilla" unicode="&#xe7;" horiz-adv-x="485" 
d="M237 -12q-97 12 -151.5 74t-54.5 167q0 115 69.5 183t186.5 68q101 0 169 -39l-30 -116q-63 36 -123 36q-54 0 -84.5 -35t-30.5 -92q0 -61 32 -95t87 -34q66 0 123 35l23 -117q-52 -32 -144 -37l-41 -37q54 -2 90.5 -28.5t36.5 -70.5q0 -109 -199 -133l-8 71
q117 5 117 52q0 52 -116 43l-10 51z" />
    <glyph glyph-name="egrave" unicode="&#xe8;" horiz-adv-x="517" 
d="M327 527h-96l-169 185h166zM181 198v-2q4 -47 35.5 -72.5t87.5 -25.5q74 0 152 45l15 -119q-74 -38 -181 -38q-120 0 -190 64t-70 179q0 113 70 182t182 69q97 0 150.5 -53t53.5 -142q0 -49 -10 -82zM182 275l161 1v9q0 89 -71 89q-38 0 -62 -28.5t-28 -70.5z" />
    <glyph glyph-name="eacute" unicode="&#xe9;" horiz-adv-x="517" 
d="M181 198v-2q4 -47 35.5 -72.5t87.5 -25.5q74 0 152 45l15 -119q-74 -38 -181 -38q-120 0 -190 64t-70 179q0 113 70 182t182 69q97 0 150.5 -53t53.5 -142q0 -49 -10 -82zM182 275l161 1v9q0 89 -71 89q-38 0 -62 -28.5t-28 -70.5zM473 712l-169 -185h-96l99 185h166z
" />
    <glyph glyph-name="ecircumflex" unicode="&#xea;" horiz-adv-x="517" 
d="M181 198v-2q4 -47 35.5 -72.5t87.5 -25.5q74 0 152 45l15 -119q-74 -38 -181 -38q-120 0 -190 64t-70 179q0 113 70 182t182 69q97 0 150.5 -53t53.5 -142q0 -49 -10 -82zM182 275l161 1v9q0 89 -71 89q-38 0 -62 -28.5t-28 -70.5zM448 527h-105l-83 107h-2l-81 -107
h-107l119 187h140z" />
    <glyph glyph-name="edieresis" unicode="&#xeb;" horiz-adv-x="517" 
d="M181 198v-2q4 -47 35.5 -72.5t87.5 -25.5q74 0 152 45l15 -119q-74 -38 -181 -38q-120 0 -190 64t-70 179q0 113 70 182t182 69q97 0 150.5 -53t53.5 -142q0 -49 -10 -82zM182 275l161 1v9q0 89 -71 89q-38 0 -62 -28.5t-28 -70.5zM462 601q0 -37 -21 -57t-58 -20
q-36 0 -57.5 20t-21.5 57t21.5 57t57.5 20q37 0 58 -20t21 -57zM230 601q0 -37 -22 -57t-58 -20t-58 20t-22 57t22 57t58 20t58 -20t22 -57z" />
    <glyph glyph-name="igrave" unicode="&#xec;" horiz-adv-x="264" 
d="M196 527h-96l-169 185h166zM213 0h-154v460l154 13v-473z" />
    <glyph glyph-name="iacute" unicode="&#xed;" horiz-adv-x="264" 
d="M338 712l-169 -185h-96l99 185h166zM213 0h-154v460l154 13v-473z" />
    <glyph glyph-name="icircumflex" unicode="&#xee;" horiz-adv-x="264" 
d="M213 0h-154v460l154 13v-473zM326 527h-105l-83 107h-2l-81 -107h-107l119 187h140z" />
    <glyph glyph-name="idieresis" unicode="&#xef;" horiz-adv-x="264" 
d="M332 601q0 -37 -21 -57t-58 -20q-36 0 -57.5 20t-21.5 57t21.5 57t57.5 20q37 0 58 -20t21 -57zM100 601q0 -37 -22 -57t-58 -20t-58 20t-22 57t22 57t58 20t58 -20t22 -57zM213 0h-154v460l154 13v-473z" />
    <glyph glyph-name="eth" unicode="&#xf0;" horiz-adv-x="575" 
d="M541 265q0 -121 -70.5 -200.5t-191.5 -79.5q-108 0 -176.5 65t-68.5 173q0 107 62.5 168t139.5 61q63 0 110 -42l2 1q-31 53 -98 122l-30 -8l-62 -16l-30 -8l-20 81l73 19l-74 60l170 33q28 -21 60 -50l122 32l21 -82l-76 -19q137 -155 137 -310zM382 229q0 41 -14 85
q-28 30 -85 30q-41 0 -67.5 -32.5t-26.5 -87.5q0 -57 28 -87t70 -30t68.5 32.5t26.5 89.5z" />
    <glyph glyph-name="ntilde" unicode="&#xf1;" horiz-adv-x="565" 
d="M513 0h-154v275q0 40 -16.5 57t-49.5 17q-45 0 -84 -35v-314h-154v457l154 19v-76q70 80 156 80q69 0 108.5 -42.5t39.5 -117.5v-320zM475 683q-9 -86 -36 -119.5t-74 -33.5q-35 0 -87 28.5t-64 28.5q-14 0 -21 -10.5t-11 -39.5v0h-1v0h-1h-1h-1h-1h-1h-1h-1h-1h-1h-1h-1
h-1h-1h-1h-1h-1h-2h-1h-1h-1h-1h-2h-1h-1h-2h-1h-1h-2h-1h-2h-1h-1h-2h-1h-2h-2h-1h-2h-1h-2h-2h-1h-2h-2h-1h-2h-2h-2h-2h-1h-2h-2h-2h-2h-2h-2h-2h-9q9 85 35.5 118.5t73.5 33.5q35 0 87.5 -28.5t64.5 -28.5q13 0 20 11t11 40v0h1v0h1h1h1h1h1h1h1h1h1h1h1h1h1h1h1h1h1h1
h2h1h1h1h1h2h1h1h2h1h1h2h1h2h1h2h1h2h1h2h1h2h2h1h2h2h1h2h2h1h2h2h2h2h1h2h2h2h2h2h2h8z" />
    <glyph glyph-name="ograve" unicode="&#xf2;" horiz-adv-x="559" 
d="M353 527h-96l-169 185h166zM529 234q0 -114 -72 -181.5t-180 -67.5t-177.5 65.5t-69.5 180.5t72 182t181 67q108 0 177 -66t69 -180zM376 233q0 60 -25.5 95t-71.5 35t-71 -35t-25 -96q0 -60 25 -94.5t72 -34.5t71.5 34.5t24.5 95.5z" />
    <glyph glyph-name="oacute" unicode="&#xf3;" horiz-adv-x="559" 
d="M529 234q0 -114 -72 -181.5t-180 -67.5t-177.5 65.5t-69.5 180.5t72 182t181 67q108 0 177 -66t69 -180zM376 233q0 60 -25.5 95t-71.5 35t-71 -35t-25 -96q0 -60 25 -94.5t72 -34.5t71.5 34.5t24.5 95.5zM479 712l-169 -185h-96l99 185h166z" />
    <glyph glyph-name="ocircumflex" unicode="&#xf4;" horiz-adv-x="559" 
d="M529 234q0 -114 -72 -181.5t-180 -67.5t-177.5 65.5t-69.5 180.5t72 182t181 67q108 0 177 -66t69 -180zM376 233q0 60 -25.5 95t-71.5 35t-71 -35t-25 -96q0 -60 25 -94.5t72 -34.5t71.5 34.5t24.5 95.5zM473 527h-105l-83 107h-2l-81 -107h-107l119 187h140z" />
    <glyph glyph-name="otilde" unicode="&#xf5;" horiz-adv-x="559" 
d="M529 234q0 -114 -72 -181.5t-180 -67.5t-177.5 65.5t-69.5 180.5t72 182t181 67q108 0 177 -66t69 -180zM376 233q0 60 -25.5 95t-71.5 35t-71 -35t-25 -96q0 -60 25 -94.5t72 -34.5t71.5 34.5t24.5 95.5zM475 683q-9 -86 -36 -119.5t-74 -33.5q-35 0 -87 28.5t-64 28.5
q-14 0 -21 -10.5t-11 -39.5v0h-1v0h-1h-1h-1h-1h-1h-1h-1h-1h-1h-1h-1h-1h-1h-1h-1h-1h-2h-1h-1h-1h-1h-2h-1h-1h-2h-1h-1h-2h-1h-2h-1h-1h-2h-1h-2h-2h-1h-2h-1h-2h-2h-1h-2h-2h-1h-2h-2h-2h-2h-1h-2h-2h-2h-2h-2h-2h-2h-9q9 85 35.5 118.5t73.5 33.5q35 0 87.5 -28.5
t64.5 -28.5q13 0 20 11t11 40v0h1v0h1h1h1h1h1h1h1h1h1h1h1h1h1h1h1h1h1h1h2h1h1h1h1h2h1h1h2h1h1h2h1h2h1h2h1h2h1h2h1h2h2h1h2h2h1h2h2h1h2h2h2h2h1h2h2h2h2h2h2h8z" />
    <glyph glyph-name="odieresis" unicode="&#xf6;" horiz-adv-x="559" 
d="M529 234q0 -114 -72 -181.5t-180 -67.5t-177.5 65.5t-69.5 180.5t72 182t181 67q108 0 177 -66t69 -180zM376 233q0 60 -25.5 95t-71.5 35t-71 -35t-25 -96q0 -60 25 -94.5t72 -34.5t71.5 34.5t24.5 95.5zM479 601q0 -37 -21 -57t-58 -20q-36 0 -57.5 20t-21.5 57
t21.5 57t57.5 20q37 0 58 -20t21 -57zM247 601q0 -37 -22 -57t-58 -20t-58 20t-22 57t22 57t58 20t58 -20t22 -57z" />
    <glyph glyph-name="divide" unicode="&#xf7;" horiz-adv-x="526" 
d="M493 181h-459l3 116h453zM345 54q0 -35 -22.5 -56.5t-58.5 -21.5t-58.5 21.5t-22.5 56.5t22.5 56.5t58.5 21.5t58.5 -21.5t22.5 -56.5zM345 424q0 -35 -22.5 -56.5t-59.5 -21.5q-36 0 -58 21.5t-22 56.5t22 56.5t58 21.5q37 0 59.5 -21.5t22.5 -56.5z" />
    <glyph glyph-name="oslash" unicode="&#xf8;" horiz-adv-x="559" 
d="M533 232q0 -113 -71 -180t-180 -67q-48 0 -96 16l-39 -68h-73l56 97q-95 68 -95 202q0 114 71 181t181 67q52 0 97 -17l38 63h72l-54 -93q93 -67 93 -201zM329 364q-21 14 -48 14q-47 0 -73 -38t-26 -104q0 -50 20 -91zM386 231q0 45 -18 88l-125 -219q25 -10 44 -10
q47 0 73 38t26 103z" />
    <glyph glyph-name="ugrave" unicode="&#xf9;" horiz-adv-x="558" 
d="M334 527h-96l-169 185h166zM52 465h154v-275q0 -75 64 -75q44 0 79 31v319h154v-458l-154 -19v69q-66 -72 -151 -72q-68 0 -107 43t-39 117v320z" />
    <glyph glyph-name="uacute" unicode="&#xfa;" horiz-adv-x="558" 
d="M52 465h154v-275q0 -75 64 -75q44 0 79 31v319h154v-458l-154 -19v69q-66 -72 -151 -72q-68 0 -107 43t-39 117v320zM489 712l-169 -185h-96l99 185h166z" />
    <glyph glyph-name="ucircumflex" unicode="&#xfb;" horiz-adv-x="558" 
d="M52 465h154v-275q0 -75 64 -75q44 0 79 31v319h154v-458l-154 -19v69q-66 -72 -151 -72q-68 0 -107 43t-39 117v320zM468 527h-105l-83 107h-2l-81 -107h-107l119 187h140z" />
    <glyph glyph-name="udieresis" unicode="&#xfc;" horiz-adv-x="558" 
d="M52 465h154v-275q0 -75 64 -75q44 0 79 31v319h154v-458l-154 -19v69q-66 -72 -151 -72q-68 0 -107 43t-39 117v320zM474 601q0 -37 -21 -57t-58 -20q-36 0 -57.5 20t-21.5 57t21.5 57t57.5 20q37 0 58 -20t21 -57zM242 601q0 -37 -22 -57t-58 -20t-58 20t-22 57t22 57
t58 20t58 -20t22 -57z" />
    <glyph glyph-name="yacute" unicode="&#xfd;" horiz-adv-x="508" 
d="M512 465l-168 -443l-23 -61q-35 -99 -81.5 -138t-122.5 -39q-73 0 -138 30l46 117q48 -21 72 -21q25 0 39 12t27 45l13 36l-182 462h165l99 -306l90 306h164zM457 712l-169 -185h-96l99 185h166z" />
    <glyph glyph-name="thorn" unicode="&#xfe;" horiz-adv-x="570" 
d="M209 1v-212h-154v872l154 19v-261q63 61 128 61q89 0 145 -66t56 -176q0 -112 -68 -182t-165 -70q-48 0 -96 15zM209 325v0v0v0v-1v0v0v-1v0v-1v-1v0v-1v-1v-1v-1v-1v-1v-1v-1v-1v-1v-1v-1v-1v-1v-1v-1v-1v-1v-1v-1v-1v-1v-1v-1v-1v-1v-1v-1v-1v-1v-1v-1v-1v-1v-1v-1v-2
v-1v-1v-1v-1v-1v-1v-1v-2v-1v-1v-1v-1v-2v-1v-1v-1v-2v-1v-1v-1v-2v-1v-1v-2v-1v-1v-2v-1v-1v-2v-1v-2v-1v-1v-2v-1v-2v-1v-1v-2v-1v-2v-1v-2v-1v-2v-1v-2v-1v-2v-1v-2v-1v-2v-1v-2v-2v-1v-2v-1v-2v-1v-2v-2v-1v-2v-2v-1v-2v-2v-1v-2v-2v-1v-2v-2v-1v-2v-2v-1v-2v-2v-2v-1
v-2v-2v-2v-1v-2v-2v-2v-1v-2v-2v-2v-2v-1v-2v-2v-2v-2v-2v-9q29 -19 71 -19q49 0 76.5 35t27.5 94q0 60 -25 93.5t-72 33.5q-43 0 -78 -32z" />
    <glyph glyph-name="ydieresis" unicode="&#xff;" horiz-adv-x="508" 
d="M512 465l-168 -443l-23 -61q-35 -99 -81.5 -138t-122.5 -39q-73 0 -138 30l46 117q48 -21 72 -21q25 0 39 12t27 45l13 36l-182 462h165l99 -306l90 306h164zM448 608q0 -37 -21 -57t-58 -20q-36 0 -57.5 20t-21.5 57t21.5 57t57.5 20q37 0 58 -20t21 -57zM216 608
q0 -37 -22 -57t-58 -20t-58 20t-22 57t22 57t58 20t58 -20t22 -57z" />
    <glyph glyph-name="Amacron" unicode="&#x100;" horiz-adv-x="643" 
d="M423 625l218 -625h-158l-46 133h-232l-45 -133h-158l222 625h199zM402 257l-80 245l-83 -245h163zM503 709h-364l11 87h342z" />
    <glyph glyph-name="amacron" unicode="&#x101;" horiz-adv-x="511" 
d="M305 118v89q-72 -8 -101 -23.5t-29 -46.5q0 -22 16 -36t42 -14q44 0 72 31zM309 56h-3q-60 -71 -134 -71q-60 0 -101 37.5t-41 91.5q0 157 275 165v9q0 37 -19.5 54t-62.5 17q-64 0 -158 -47l-32 113q104 55 214 55q116 0 165 -50.5t47 -152.5l-1 -138q0 -23 6.5 -29.5
t31.5 -8.5l-15 -110q-138 -18 -172 65zM429 549h-364l11 87h342z" />
    <glyph glyph-name="Abreve" unicode="&#x102;" horiz-adv-x="643" 
d="M423 625l218 -625h-158l-46 133h-232l-45 -133h-158l222 625h199zM402 257l-80 245l-83 -245h163zM503 870q-8 -94 -59 -142t-123 -48q-71 0 -122.5 48.5t-59.5 141.5l93 -1q19 -101 89 -101q72 0 89 101z" />
    <glyph glyph-name="abreve" unicode="&#x103;" horiz-adv-x="511" 
d="M305 118v89q-72 -8 -101 -23.5t-29 -46.5q0 -22 16 -36t42 -14q44 0 72 31zM309 56h-3q-60 -71 -134 -71q-60 0 -101 37.5t-41 91.5q0 157 275 165v9q0 37 -19.5 54t-62.5 17q-64 0 -158 -47l-32 113q104 55 214 55q116 0 165 -50.5t47 -152.5l-1 -138q0 -23 6.5 -29.5
t31.5 -8.5l-15 -110q-138 -18 -172 65zM429 710q-8 -94 -59 -142t-123 -48q-71 0 -122.5 48.5t-59.5 141.5l93 -1q19 -101 89 -101q72 0 89 101z" />
    <glyph glyph-name="Aogonek" unicode="&#x104;" horiz-adv-x="643" 
d="M423 625l218 -625q-62 -5 -100.5 -27.5t-38.5 -55.5q0 -45 43 -45q30 0 51 13l21 -78q-42 -27 -104 -27q-55 0 -88 27.5t-33 74.5q0 39 25.5 70.5t64.5 47.5l-45 133h-232l-45 -133h-158l222 625h199zM402 257l-80 245l-83 -245h163z" />
    <glyph glyph-name="aogonek" unicode="&#x105;" horiz-adv-x="511" 
d="M309 56h-3q-60 -71 -134 -71q-60 0 -101 37.5t-41 91.5q0 157 275 165v9q0 37 -19.5 54t-62.5 17q-64 0 -158 -47l-32 113q104 55 214 55q116 0 165 -50.5t47 -152.5l-1 -138q0 -23 6.5 -29.5t31.5 -8.5l-15 -110q-48 -5 -81.5 -25t-33.5 -49q0 -45 44 -45q30 0 51 13
l21 -78q-44 -27 -105 -27q-54 0 -87 27.5t-33 74.5q0 41 26 73.5t68 50.5q-28 17 -42 50zM305 118v89q-72 -8 -101 -23.5t-29 -46.5q0 -22 16 -36t42 -14q44 0 72 31z" />
    <glyph glyph-name="Cacute" unicode="&#x106;" horiz-adv-x="613" 
d="M506 872l-169 -185h-96l99 185h166zM583 593l-48 -133q-76 45 -158 45q-81 0 -129.5 -51.5t-48.5 -139.5q0 -90 47.5 -142t131.5 -52q88 0 165 51l33 -141q-82 -45 -205 -45q-153 0 -242.5 85t-89.5 240q0 151 91 240.5t246 89.5q111 0 207 -47z" />
    <glyph glyph-name="cacute" unicode="&#x107;" horiz-adv-x="484" 
d="M444 712l-169 -185h-96l99 185h166zM453 23q-62 -38 -170 -38q-117 0 -184.5 63.5t-67.5 180.5q0 115 69.5 183t186.5 68q101 0 169 -39l-30 -116q-63 36 -123 36q-54 0 -84.5 -35t-30.5 -92q0 -61 32 -95t87 -34q66 0 123 35z" />
    <glyph glyph-name="Ccircumflex" unicode="&#x108;" horiz-adv-x="613" 
d="M535 687h-105l-83 107h-2l-81 -107h-107l119 187h140zM583 593l-48 -133q-76 45 -158 45q-81 0 -129.5 -51.5t-48.5 -139.5q0 -90 47.5 -142t131.5 -52q88 0 165 51l33 -141q-82 -45 -205 -45q-153 0 -242.5 85t-89.5 240q0 151 91 240.5t246 89.5q111 0 207 -47z" />
    <glyph glyph-name="ccircumflex" unicode="&#x109;" horiz-adv-x="484" 
d="M457 527h-105l-83 107h-2l-81 -107h-107l119 187h140zM453 23q-62 -38 -170 -38q-117 0 -184.5 63.5t-67.5 180.5q0 115 69.5 183t186.5 68q101 0 169 -39l-30 -116q-63 36 -123 36q-54 0 -84.5 -35t-30.5 -92q0 -61 32 -95t87 -34q66 0 123 35z" />
    <glyph glyph-name="Cdotaccent" unicode="&#x10a;" horiz-adv-x="613" 
d="M583 593l-48 -133q-76 45 -158 45q-81 0 -129.5 -51.5t-48.5 -139.5q0 -90 47.5 -142t131.5 -52q88 0 165 51l33 -141q-82 -45 -205 -45q-153 0 -242.5 85t-89.5 240q0 151 91 240.5t246 89.5q111 0 207 -47zM432 762q0 -37 -23 -62t-61 -25q-37 0 -60.5 25t-23.5 62
q0 36 23.5 61.5t60.5 25.5q38 0 61 -25.5t23 -61.5z" />
    <glyph glyph-name="cdotaccent" unicode="&#x10b;" horiz-adv-x="484" 
d="M453 23q-62 -38 -170 -38q-117 0 -184.5 63.5t-67.5 180.5q0 115 69.5 183t186.5 68q101 0 169 -39l-30 -116q-63 36 -123 36q-54 0 -84.5 -35t-30.5 -92q0 -61 32 -95t87 -34q66 0 123 35zM368 600q0 -37 -23 -62t-61 -25q-37 0 -60.5 25t-23.5 62q0 36 23.5 61.5
t60.5 25.5q38 0 61 -25.5t23 -61.5z" />
    <glyph glyph-name="Ccaron" unicode="&#x10c;" horiz-adv-x="613" 
d="M542 874l-119 -187h-140l-119 187h105l83 -108h2l81 108h107zM583 593l-48 -133q-76 45 -158 45q-81 0 -129.5 -51.5t-48.5 -139.5q0 -90 47.5 -142t131.5 -52q88 0 165 51l33 -141q-82 -45 -205 -45q-153 0 -242.5 85t-89.5 240q0 151 91 240.5t246 89.5q111 0 207 -47z
" />
    <glyph glyph-name="ccaron" unicode="&#x10d;" horiz-adv-x="484" 
d="M453 714l-119 -187h-140l-119 187h105l83 -108h2l81 108h107zM453 23q-62 -38 -170 -38q-117 0 -184.5 63.5t-67.5 180.5q0 115 69.5 183t186.5 68q101 0 169 -39l-30 -116q-63 36 -123 36q-54 0 -84.5 -35t-30.5 -92q0 -61 32 -95t87 -34q66 0 123 35z" />
    <glyph glyph-name="Dcaron" unicode="&#x10e;" horiz-adv-x="681" 
d="M482 874l-119 -187h-140l-119 187h105l83 -108h2l81 108h107zM645 317q0 -146 -93.5 -231.5t-262.5 -85.5h-224v625h235q163 0 254 -83.5t91 -224.5zM485 311q0 96 -48.5 141.5t-146.5 45.5h-66v-371h74q89 0 138 46t49 138z" />
    <glyph glyph-name="dcaron" unicode="&#x10f;" horiz-adv-x="817" 
d="M583 600q4 40 34 65t73 25q52 0 86 -37.5t34 -89.5q0 -113 -169 -204l-68 60q50 34 75 58.5t25 46.5q0 21 -19.5 38t-70.5 38zM360 463v198l154 19v-680h-154v48q-60 -62 -130 -62q-87 0 -143 66t-56 175q0 112 68 182t165 70q50 0 96 -16zM360 345q-28 20 -71 20
q-48 0 -76 -35.5t-28 -94.5q0 -58 27 -92t70 -34q46 0 78 32v0v0v0v1v0v1v0v1v0v1v1v1v1v1v1v1v1v1v1v1v1v1v1v1v1v1v1v1v1v1v1v1v1v1v1v1v1v1v1v1v1v1v1v1v1v1v1v1v1v1v2v1v1v1v1v1v2v1v1v1v1v2v1v1v1v2v1v1v2v1v1v2v1v1v2v1v1v2v1v1v2v1v2v1v2v1v1v2v1v2v1v2v1v2v1v2v1v2
v1v2v1v2v2v1v2v1v2v1v2v2v1v2v2v1v2v1v2v2v1v2v2v1v2v2v2v1v2v2v1v2v2v2v1v2v2v2v1v2v2v2v2v1v2v2v2v2v2v1v2v9z" />
    <glyph glyph-name="Dcroat" unicode="&#x110;" horiz-adv-x="716" 
d="M257 377h127v-122h-127v-128h61q90 0 145 47t55 137q0 187 -208 187h-53v-121zM98 255h-83v122h83v248h235q163 0 254 -83.5t91 -224.5q0 -146 -93 -231.5t-262 -85.5h-225v255z" />
    <glyph glyph-name="dcroat" unicode="&#x111;" horiz-adv-x="570" 
d="M360 463v47h-126l11 86h115v65l154 19v-84h51l10 -86l-61 -2v-508h-154v48q-60 -62 -130 -62q-87 0 -143 66t-56 175q0 112 68 182t165 70q50 0 96 -16zM360 345q-28 20 -71 20q-48 0 -76 -35.5t-28 -94.5q0 -58 27 -92t70 -34q46 0 78 32v204z" />
    <glyph glyph-name="Emacron" unicode="&#x112;" horiz-adv-x="565" 
d="M522 0h-457v625h457v-128h-301v-120h242v-127h-242v-122h301v-128zM474 710h-364l11 87h342z" />
    <glyph glyph-name="emacron" unicode="&#x113;" horiz-adv-x="518" 
d="M181 198v-2q4 -47 35.5 -72.5t87.5 -25.5q74 0 152 45l15 -119q-74 -38 -181 -38q-120 0 -190 64t-70 179q0 113 70 182t182 69q97 0 150.5 -53t53.5 -142q0 -49 -10 -82zM182 275l161 1v9q0 89 -71 89q-38 0 -62 -28.5t-28 -70.5zM445 549h-364l11 87h342z" />
    <glyph glyph-name="Ebreve" unicode="&#x114;" horiz-adv-x="565" 
d="M522 0h-457v625h457v-128h-301v-120h242v-127h-242v-122h301v-128zM487 870q-8 -94 -59 -142t-123 -48q-71 0 -122.5 48.5t-59.5 141.5l93 -1q19 -101 89 -101q72 0 89 101z" />
    <glyph glyph-name="ebreve" unicode="&#x115;" horiz-adv-x="518" 
d="M181 198v-2q4 -47 35.5 -72.5t87.5 -25.5q74 0 152 45l15 -119q-74 -38 -181 -38q-120 0 -190 64t-70 179q0 113 70 182t182 69q97 0 150.5 -53t53.5 -142q0 -49 -10 -82zM182 275l161 1v9q0 89 -71 89q-38 0 -62 -28.5t-28 -70.5zM444 710q-8 -94 -59 -142t-123 -48
q-71 0 -122.5 48.5t-59.5 141.5l93 -1q19 -101 89 -101q72 0 89 101z" />
    <glyph glyph-name="Edotaccent" unicode="&#x116;" horiz-adv-x="565" 
d="M522 0h-457v625h457v-128h-301v-120h242v-127h-242v-122h301v-128zM380 760q0 -37 -23 -62t-61 -25q-37 0 -60.5 25t-23.5 62q0 36 23.5 61.5t60.5 25.5q38 0 61 -25.5t23 -61.5z" />
    <glyph glyph-name="edotaccent" unicode="&#x117;" horiz-adv-x="518" 
d="M181 198v-2q4 -47 35.5 -72.5t87.5 -25.5q74 0 152 45l15 -119q-74 -38 -181 -38q-120 0 -190 64t-70 179q0 113 70 182t182 69q97 0 150.5 -53t53.5 -142q0 -49 -10 -82zM182 275l161 1v9q0 89 -71 89q-38 0 -62 -28.5t-28 -70.5zM347 600q0 -37 -23 -62t-61 -25
q-37 0 -60.5 25t-23.5 62q0 36 23.5 61.5t60.5 25.5q38 0 61 -25.5t23 -61.5z" />
    <glyph glyph-name="Eogonek" unicode="&#x118;" horiz-adv-x="565" 
d="M522 0h-61q-55 -38 -55 -83t43 -45q30 0 51 13l21 -78q-42 -27 -104 -27q-55 0 -88 27.5t-33 74.5q0 74 80 118h-311v625h457v-128h-301v-120h242v-127h-242v-122h301v-128z" />
    <glyph glyph-name="eogonek" unicode="&#x119;" horiz-adv-x="518" 
d="M181 198v-2q4 -47 35.5 -72.5t87.5 -25.5q74 0 152 45l15 -119q-45 -13 -80.5 -42t-35.5 -65q0 -45 43 -45q30 0 51 13l21 -78q-42 -27 -104 -27q-55 0 -88 27.5t-33 74.5q0 61 58 104h-13q-120 0 -190 64t-70 179q0 113 70 182t182 69q97 0 150.5 -53t53.5 -142
q0 -49 -10 -82zM182 275l161 1v9q0 89 -71 89q-38 0 -62 -28.5t-28 -70.5z" />
    <glyph glyph-name="Ecaron" unicode="&#x11a;" horiz-adv-x="565" 
d="M487 874l-119 -187h-140l-119 187h105l83 -108h2l81 108h107zM522 0h-457v625h457v-128h-301v-120h242v-127h-242v-122h301v-128z" />
    <glyph glyph-name="ecaron" unicode="&#x11b;" horiz-adv-x="518" 
d="M451 714l-119 -187h-140l-119 187h105l83 -108h2l81 108h107zM181 198v-2q4 -47 35.5 -72.5t87.5 -25.5q74 0 152 45l15 -119q-74 -38 -181 -38q-120 0 -190 64t-70 179q0 113 70 182t182 69q97 0 150.5 -53t53.5 -142q0 -49 -10 -82zM182 275l161 1v9q0 89 -71 89
q-38 0 -62 -28.5t-28 -70.5z" />
    <glyph glyph-name="Gcircumflex" unicode="&#x11c;" horiz-adv-x="673" 
d="M541 687h-105l-83 107h-2l-81 -107h-107l119 187h140zM623 43q-107 -58 -248 -58q-152 0 -244 86.5t-92 238.5q0 153 91 241.5t246 88.5q145 0 235 -54l-50 -133q-90 52 -180 52q-84 0 -134 -52t-50 -139q0 -95 47 -147t135 -52q55 0 100 19v92h-154v126h298v-309z" />
    <glyph glyph-name="gcircumflex" unicode="&#x11d;" horiz-adv-x="528" 
d="M438 527h-105l-83 107h-2l-81 -107h-107l119 187h140zM177 299q0 -38 18.5 -60t54.5 -22q68 0 68 86q0 38 -18 60t-53 22q-33 0 -51.5 -23.5t-18.5 -62.5zM170 -48q-37 -18 -37 -51q0 -27 32 -44t85 -17q58 0 95 17t37 46q0 27 -28 36.5t-92 9.5q-41 0 -92 3zM109 -31
q-34 10 -57.5 32t-23.5 52q0 33 27 62t69 41q-43 20 -68.5 58t-25.5 86q0 78 60 129t161 51q70 0 142 -33l131 11l7 -125l-90 14q13 -15 13 -51q0 -71 -57.5 -119.5t-146.5 -48.5q-22 0 -62 7q-27 -15 -27 -34q0 -29 85 -29v0h1h1h1h1h1h1h1h1h1h2h1h1h1h1h2h1h1h2h1h2h1h2
h1h2h2h1h2h2h2h2h1h2h2h9q215 0 215 -131q0 -84 -86.5 -137.5t-204.5 -53.5q-99 0 -163 31t-64 90q0 36 29 64t82 34z" />
    <glyph glyph-name="Gbreve" unicode="&#x11e;" horiz-adv-x="673" 
d="M623 43q-107 -58 -248 -58q-152 0 -244 86.5t-92 238.5q0 153 91 241.5t246 88.5q145 0 235 -54l-50 -133q-90 52 -180 52q-84 0 -134 -52t-50 -139q0 -95 47 -147t135 -52q55 0 100 19v92h-154v126h298v-309zM535 870q-8 -94 -59 -142t-123 -48q-71 0 -122.5 48.5
t-59.5 141.5l93 -1q19 -101 89 -101q72 0 89 101z" />
    <glyph glyph-name="gbreve" unicode="&#x11f;" horiz-adv-x="528" 
d="M177 299q0 -38 18.5 -60t54.5 -22q68 0 68 86q0 38 -18 60t-53 22q-33 0 -51.5 -23.5t-18.5 -62.5zM170 -48q-37 -18 -37 -51q0 -27 32 -44t85 -17q58 0 95 17t37 46q0 27 -28 36.5t-92 9.5q-41 0 -92 3zM109 -31q-34 10 -57.5 32t-23.5 52q0 33 27 62t69 41
q-43 20 -68.5 58t-25.5 86q0 78 60 129t161 51q70 0 142 -33l131 11l7 -125l-90 14q13 -15 13 -51q0 -71 -57.5 -119.5t-146.5 -48.5q-22 0 -62 7q-27 -15 -27 -34q0 -29 85 -29v0h1h1h1h1h1h1h1h1h1h2h1h1h1h1h2h1h1h2h1h2h1h2h1h2h2h1h2h2h2h2h1h2h2h9q215 0 215 -131
q0 -84 -86.5 -137.5t-204.5 -53.5q-99 0 -163 31t-64 90q0 36 29 64t82 34zM440 710q-8 -94 -59 -142t-123 -48q-71 0 -122.5 48.5t-59.5 141.5l93 -1q19 -101 89 -101q72 0 89 101z" />
    <glyph glyph-name="Gdotaccent" unicode="&#x120;" horiz-adv-x="673" 
d="M623 43q-107 -58 -248 -58q-152 0 -244 86.5t-92 238.5q0 153 91 241.5t246 88.5q145 0 235 -54l-50 -133q-90 52 -180 52q-84 0 -134 -52t-50 -139q0 -95 47 -147t135 -52q55 0 100 19v92h-154v126h298v-309zM453 760q0 -37 -23 -62t-61 -25q-37 0 -60.5 25t-23.5 62
q0 36 23.5 61.5t60.5 25.5q38 0 61 -25.5t23 -61.5z" />
    <glyph glyph-name="gdotaccent" unicode="&#x121;" horiz-adv-x="528" 
d="M177 299q0 -38 18.5 -60t54.5 -22q68 0 68 86q0 38 -18 60t-53 22q-33 0 -51.5 -23.5t-18.5 -62.5zM170 -48q-37 -18 -37 -51q0 -27 32 -44t85 -17q58 0 95 17t37 46q0 27 -28 36.5t-92 9.5q-41 0 -92 3zM109 -31q-34 10 -57.5 32t-23.5 52q0 33 27 62t69 41
q-43 20 -68.5 58t-25.5 86q0 78 60 129t161 51q70 0 142 -33l131 11l7 -125l-90 14q13 -15 13 -51q0 -71 -57.5 -119.5t-146.5 -48.5q-22 0 -62 7q-27 -15 -27 -34q0 -29 85 -29v0h1h1h1h1h1h1h1h1h1h2h1h1h1h1h2h1h1h2h1h2h1h2h1h2h2h1h2h2h2h2h1h2h2h9q215 0 215 -131
q0 -84 -86.5 -137.5t-204.5 -53.5q-99 0 -163 31t-64 90q0 36 29 64t82 34zM339 600q0 -37 -23 -62t-61 -25q-37 0 -60.5 25t-23.5 62q0 36 23.5 61.5t60.5 25.5q38 0 61 -25.5t23 -61.5z" />
    <glyph glyph-name="Gcommaaccent" unicode="&#x122;" horiz-adv-x="673" 
d="M289 -122q1 29 23 50t55 21q40 0 65.5 -25t25.5 -65q0 -48 -36.5 -86.5t-100.5 -58.5l-34 36q66 37 66 72q0 18 -13 31t-51 25zM623 43q-107 -58 -248 -58q-152 0 -244 86.5t-92 238.5q0 153 91 241.5t246 88.5q145 0 235 -54l-50 -133q-90 52 -180 52q-84 0 -134 -52
t-50 -139q0 -95 47 -147t135 -52q55 0 100 19v92h-154v126h298v-309z" />
    <glyph glyph-name="gcommaaccent" unicode="&#x123;" horiz-adv-x="528" 
d="M344 597q-1 -29 -23 -50t-55 -21q-40 0 -65.5 25t-25.5 65q0 48 36.5 86.5t100.5 58.5l34 -36q-66 -37 -66 -72q0 -18 13 -31t51 -25zM177 299q0 -38 18.5 -60t54.5 -22q68 0 68 86q0 38 -18 60t-53 22q-33 0 -51.5 -23.5t-18.5 -62.5zM170 -48q-37 -18 -37 -51
q0 -27 32 -44t85 -17q58 0 95 17t37 46q0 27 -28 36.5t-92 9.5q-41 0 -92 3zM109 -31q-34 10 -57.5 32t-23.5 52q0 33 27 62t69 41q-43 20 -68.5 58t-25.5 86q0 78 60 129t161 51q70 0 142 -33l131 11l7 -125l-90 14q13 -15 13 -51q0 -71 -57.5 -119.5t-146.5 -48.5
q-22 0 -62 7q-27 -15 -27 -34q0 -29 85 -29v0h1h1h1h1h1h1h1h1h1h2h1h1h1h1h2h1h1h2h1h2h1h2h1h2h2h1h2h2h2h2h1h2h2h9q215 0 215 -131q0 -84 -86.5 -137.5t-204.5 -53.5q-99 0 -163 31t-64 90q0 36 29 64t82 34z" />
    <glyph glyph-name="Hcircumflex" unicode="&#x124;" horiz-adv-x="699" 
d="M539 687h-105l-83 107h-2l-81 -107h-107l119 187h140zM634 0h-159v248h-251v-248h-159v625h159v-243h251v243h159v-625z" />
    <glyph glyph-name="hcircumflex" unicode="&#x125;" horiz-adv-x="565" 
d="M334 687h-105l-83 107h-2l-81 -107h-107l119 187h140zM513 0h-154v275q0 74 -64 74q-47 0 -86 -35v-314h-154v661l154 19v-279q69 79 157 79q69 0 108 -43t39 -117v-320z" />
    <glyph glyph-name="Hbar" unicode="&#x126;" horiz-adv-x="699" 
d="M634 0h-159v248h-251v-248h-159v453h-75l11 86h64v86h159v-86h251v86h159v-86h60l11 -86h-71v-453zM224 382h251v71h-251v-71z" />
    <glyph glyph-name="hbar" unicode="&#x127;" horiz-adv-x="565" 
d="M513 0h-154v275q0 74 -64 74q-47 0 -86 -35v-314h-154v510h-61l10 86h51v65l154 19v-84h115l11 -86h-126v-109q69 79 157 79q69 0 108 -43t39 -117v-320z" />
    <glyph glyph-name="Imacron" unicode="&#x12a;" horiz-adv-x="292" 
d="M225 0h-159v625h159v-625zM299 708h-307l9 90h289z" />
    <glyph glyph-name="imacron" unicode="&#x12b;" horiz-adv-x="264" 
d="M213 0h-154v460l154 13v-473zM287 555h-298l9 82h280z" />
    <glyph glyph-name="Ibreve" unicode="&#x12c;" horiz-adv-x="292" 
d="M225 0h-159v625h159v-625zM329 870q-8 -94 -59 -142t-123 -48q-71 0 -122.5 48.5t-59.5 141.5l93 -1q19 -101 89 -101q72 0 89 101z" />
    <glyph glyph-name="ibreve" unicode="&#x12d;" horiz-adv-x="264" 
d="M213 0h-154v460l154 13v-473zM315 710q-8 -94 -59 -142t-123 -48q-71 0 -122.5 48.5t-59.5 141.5l93 -1q19 -101 89 -101q72 0 89 101z" />
    <glyph glyph-name="Iogonek" unicode="&#x12e;" horiz-adv-x="292" 
d="M140 -220q-54 0 -87 27.5t-33 74.5q0 75 80 118h-34v625h159v-625q-37 -7 -66.5 -33t-29.5 -50q0 -45 43 -45q30 0 51 13l22 -78q-44 -27 -105 -27z" />
    <glyph glyph-name="iogonek" unicode="&#x12f;" horiz-adv-x="264" 
d="M122 -220q-55 0 -88 27.5t-33 74.5q0 75 80 118h-26v457l154 19v-476q-45 -8 -71.5 -29.5t-26.5 -53.5q0 -45 43 -45q30 0 51 13l21 -78q-42 -27 -104 -27zM223 613q0 -39 -24 -60.5t-67 -21.5q-42 0 -66 21.5t-24 60.5q0 40 24 61.5t66 21.5q43 0 67 -21.5t24 -61.5z
" />
    <glyph glyph-name="Idotaccent" unicode="&#x130;" horiz-adv-x="292" 
d="M225 0h-159v625h159v-625zM231 760q0 -37 -23 -62t-61 -25q-37 0 -60.5 25t-23.5 62q0 36 23.5 61.5t60.5 25.5q38 0 61 -25.5t23 -61.5z" />
    <glyph glyph-name="dotlessi" unicode="&#x131;" horiz-adv-x="264" 
d="M213 0h-154v460l154 13v-473z" />
    <glyph glyph-name="Jcircumflex" unicode="&#x134;" horiz-adv-x="471" 
d="M519 687h-105l-83 107h-2l-81 -107h-107l119 187h140zM411 220q0 -235 -224 -235q-101 0 -178 43l32 128q68 -39 121 -39q48 0 69 27t21 88v393h159v-405z" />
    <glyph glyph-name="jcircumflex" unicode="&#x135;" horiz-adv-x="263" 
d="M61 -242l-88 104q45 21 63.5 54.5t18.5 104.5v0v0v0v0v0v0v0v0v0v1v0v0v1v0v1v0v1v0v1v1v0v1v0v1v1v1v1v1v1v1v1v1v1v1v1v1v1v1v1v1v1v1v1v1v1v1v1v1v1v1v1v1v1v1v1v1v1v1v1v1v1v1v1v1v1v1v1v1v1v1v1v1v1v1v1v1v1v1v1v1v1v1v1v1v1v1v1v1v1v1v1v1v1v1v1v1v1v1v1v1v1v1v1v2
v1v1v1v1v1v1v1v1v2v1v1v1v1v1v2v1v1v1v1v2v1v1v1v1v2v1v1v1v1v2v1v1v1v2v1v1v1v2v1v1v2v1v1v1v2v1v1v2v1v1v2v1v1v2v1v1v2v1v1v2v1v1v2v1v2v1v1v2v1v1v2v1v2v1v1v2v1v2v1v2v1v1v2v1v2v1v2v1v2v1v2v1v2v1v2v1v1v2v1v2v1v2v2v1v2v1v2v1v2v1v2v1v2v1v2v1v2v2v1v2v1v2v1v2v2v1v2
v1v2v2v1v2v1v2v2v1v2v2v1v2v1v2v2v1v2v2v1v2v2v1v2v2v1v2v2v1v2v2v1v2v2v1v2v2v2v1v2v2v1v2v2v2v1v2v2v2v1v2v2v2v1v2v2v2v1v2v2v2v2v1v2v2v2v2v1v2v2v2v2v1v2v2v2v2v2v1v2v2v2v2v2v2v1v2v2v2v2v2v2v1v2v2v9l154 19v0v0v0v0v-1v0v0v0v-1v0v0v-1v0v-1v0v-1v0v-1v0v-1v-1v0v-1
v-1v-1v0v-1v-1v-1v-1v-1v-1v-1v-1v-1v-1v-1v-1v-1v-1v-1v-1v-1v-1v-1v-1v-1v-1v-1v-1v-1v-1v-1v-1v-1v-1v-1v-1v-1v-1v-1v-1v-1v-1v-1v-1v-1v-1v-1v-1v-1v-1v-1v-1v-1v-1v-1v-1v-1v-1v-1v-1v-1v-1v-1v-1v-1v-1v-1v-1v-1v-1v-1v-1v-1v-1v-1v-1v-1v-1v-1v-1v-1v-1v-1v-1v-2v-1
v-1v-1v-1v-1v-1v-1v-2v-1v-1v-1v-1v-1v-1v-2v-1v-1v-1v-1v-2v-1v-1v-1v-1v-2v-1v-1v-1v-1v-2v-1v-1v-1v-2v-1v-1v-1v-2v-1v-1v-1v-2v-1v-1v-2v-1v-1v-2v-1v-1v-1v-2v-1v-1v-2v-1v-1v-2v-1v-1v-2v-1v-2v-1v-1v-2v-1v-1v-2v-1v-2v-1v-1v-2v-1v-2v-1v-1v-2v-1v-2v-1v-2v-1v-1
v-2v-1v-2v-1v-2v-1v-2v-1v-2v-1v-1v-2v-1v-2v-1v-2v-1v-2v-1v-2v-1v-2v-2v-1v-2v-1v-2v-1v-2v-1v-2v-1v-2v-1v-2v-2v-1v-2v-1v-2v-1v-2v-2v-1v-2v-1v-2v-2v-1v-2v-1v-2v-2v-1v-2v-1v-2v-2v-1v-2v-2v-1v-2v-2v-1v-2v-2v-1v-2v-2v-1v-2v-2v-1v-2v-2v-1v-2v-2v-1v-2v-2v-2v-1
v-2v-2v-1v-2v-2v-2v-1v-2v-2v-2v-1v-2v-2v-2v-1v-2v-2v-2v-2v-1v-2v-2v-2v-2v-1v-2v-2v-2v-2v-1v-2v-2v-2v-2v-1v-2v-2v-2v-2v-2v-2v-1v-2v-2v-2v-2v-2v-2v-2v-1v-2v-2v-2v-2v-2v-2v-2v-2v-2v-2v-2v-2v-2v-1v-2v-2v-10q0 -105 -34 -165t-114 -88zM322 527h-105l-83 107h-2
l-81 -107h-107l119 187h140z" />
    <glyph glyph-name="Kcommaaccent" unicode="&#x136;" horiz-adv-x="625" 
d="M242 -122q1 29 23 50t55 21q40 0 65.5 -25t25.5 -65q0 -48 -36.5 -86.5t-100.5 -58.5l-34 36q66 37 66 72q0 18 -13 31t-51 25zM224 349h1l208 276h182l-247 -305l253 -320h-190l-206 275h-1v-275h-159v625h159v-276z" />
    <glyph glyph-name="kcommaaccent" unicode="&#x137;" horiz-adv-x="532" 
d="M194 -122q1 29 23 50t55 21q40 0 65.5 -25t25.5 -65q0 -48 -36.5 -86.5t-100.5 -58.5l-34 36q66 37 66 72q0 18 -13 31t-51 25zM210 218h-1v-218h-154v661l154 19v-415h1l142 200h177l-171 -221l172 -244h-175z" />
    <glyph glyph-name="Lacute" unicode="&#x139;" horiz-adv-x="520" 
d="M339 872l-169 -185h-96l99 185h166zM486 0h-421v625h159v-492h262v-133z" />
    <glyph glyph-name="lacute" unicode="&#x13a;" horiz-adv-x="264" 
d="M325 882l-169 -185h-96l99 185h166zM209 0h-154v661l154 19v-680z" />
    <glyph glyph-name="Lcommaaccent" unicode="&#x13b;" horiz-adv-x="520" 
d="M187 -122q1 29 23 50t55 21q40 0 65.5 -25t25.5 -65q0 -48 -36.5 -86.5t-100.5 -58.5l-34 36q66 37 66 72q0 18 -13 31t-51 25zM486 0h-421v625h159v-492h262v-133z" />
    <glyph glyph-name="lcommaaccent" unicode="&#x13c;" horiz-adv-x="264" 
d="M47 -122q1 29 23 50t55 21q40 0 65.5 -25t25.5 -65q0 -48 -36.5 -86.5t-100.5 -58.5l-34 36q66 37 66 72q0 18 -13 31t-51 25zM209 0h-154v661l154 19v-680z" />
    <glyph glyph-name="Lcaron" unicode="&#x13d;" horiz-adv-x="655" 
d="M470 548q4 40 34 65t73 25q52 0 86 -37.5t34 -89.5q0 -113 -169 -204l-68 60q50 34 75 58.5t25 46.5q0 21 -19.5 38t-70.5 38zM486 0h-421v625h159v-492h262v-133z" />
    <glyph glyph-name="lcaron" unicode="&#x13e;" horiz-adv-x="536" 
d="M301 602q4 40 34 65t73 25q52 0 86 -37.5t34 -89.5q0 -113 -169 -204l-68 60q50 34 75 58.5t25 46.5q0 21 -19.5 38t-70.5 38zM209 0h-154v661l154 19v-680z" />
    <glyph glyph-name="Ldot" unicode="&#x13f;" horiz-adv-x="622" 
d="M486 0h-421v625h159v-492h262v-133zM689 311q0 -41 -26 -66t-68 -25q-43 0 -69 25t-26 66t26 66t69 25q42 0 68 -25t26 -66z" />
    <glyph glyph-name="ldotaccent" unicode="&#x140;" horiz-adv-x="493" 
d="M209 0h-154v661l154 19v-680zM497 311q0 -41 -26 -66t-68 -25q-43 0 -69 25t-26 66t26 66t69 25q42 0 68 -25t26 -66z" />
    <glyph glyph-name="Lslash" unicode="&#x141;" horiz-adv-x="552" 
d="M258 264v-130h262v-134h-421v221l-82 -22v121l82 22v283h159v-240l141 38v-121z" />
    <glyph glyph-name="lslash" unicode="&#x142;" horiz-adv-x="330" 
d="M243 262v-262h-154v221l-69 -19v122l69 19v318l154 19v-296l70 19v-122z" />
    <glyph glyph-name="Nacute" unicode="&#x143;" horiz-adv-x="711" 
d="M553 872l-169 -185h-96l99 185h166zM497 219v406h149v-631h-169l-263 411v-405h-149v625h172z" />
    <glyph glyph-name="nacute" unicode="&#x144;" horiz-adv-x="565" 
d="M447 712l-169 -185h-96l99 185h166zM513 0h-154v275q0 40 -16.5 57t-49.5 17q-45 0 -84 -35v-314h-154v457l154 19v-76q70 80 156 80q69 0 108.5 -42.5t39.5 -117.5v-320z" />
    <glyph glyph-name="Ncommaaccent" unicode="&#x145;" horiz-adv-x="711" 
d="M280 -122q1 29 23 50t55 21q40 0 65.5 -25t25.5 -65q0 -48 -36.5 -86.5t-100.5 -58.5l-34 36q66 37 66 72q0 18 -13 31t-51 25zM497 219v406h149v-631h-169l-263 411v-405h-149v625h172z" />
    <glyph glyph-name="ncommaaccent" unicode="&#x146;" horiz-adv-x="565" 
d="M201 -122q1 29 23 50t55 21q40 0 65.5 -25t25.5 -65q0 -48 -36.5 -86.5t-100.5 -58.5l-34 36q66 37 66 72q0 18 -13 31t-51 25zM513 0h-154v275q0 40 -16.5 57t-49.5 17q-45 0 -84 -35v-314h-154v457l154 19v-76q70 80 156 80q69 0 108.5 -42.5t39.5 -117.5v-320z" />
    <glyph glyph-name="Ncaron" unicode="&#x147;" horiz-adv-x="711" 
d="M553 874l-119 -187h-140l-119 187h105l83 -108h2l81 108h107zM497 219v406h149v-631h-169l-263 411v-405h-149v625h172z" />
    <glyph glyph-name="ncaron" unicode="&#x148;" horiz-adv-x="565" 
d="M465 714l-119 -187h-140l-119 187h105l83 -108h2l81 108h107zM513 0h-154v275q0 40 -16.5 57t-49.5 17q-45 0 -84 -35v-314h-154v457l154 19v-76q70 80 156 80q69 0 108.5 -42.5t39.5 -117.5v-320z" />
    <glyph glyph-name="Omacron" unicode="&#x14c;" horiz-adv-x="733" 
d="M547 709h-364l11 87h342zM694 315q0 -147 -93.5 -238.5t-235.5 -91.5q-144 0 -235 86t-91 240q0 147 93 238t235 91q144 0 235.5 -85.5t91.5 -239.5zM534 311q0 91 -45 146t-124 55q-78 0 -122 -54t-44 -143q0 -91 45 -146.5t124 -55.5q78 0 122 54.5t44 143.5z" />
    <glyph glyph-name="omacron" unicode="&#x14d;" horiz-adv-x="559" 
d="M460 549h-364l11 87h342zM529 234q0 -114 -72 -181.5t-180 -67.5t-177.5 65.5t-69.5 180.5t72 182t181 67q108 0 177 -66t69 -180zM376 233q0 60 -25.5 95t-71.5 35t-71 -35t-25 -96q0 -60 25 -94.5t72 -34.5t71.5 34.5t24.5 95.5z" />
    <glyph glyph-name="Obreve" unicode="&#x14e;" horiz-adv-x="733" 
d="M694 315q0 -147 -93.5 -238.5t-235.5 -91.5q-144 0 -235 86t-91 240q0 147 93 238t235 91q144 0 235.5 -85.5t91.5 -239.5zM534 311q0 91 -45 146t-124 55q-78 0 -122 -54t-44 -143q0 -91 45 -146.5t124 -55.5q78 0 122 54.5t44 143.5zM544 870q-8 -94 -59 -142t-123 -48
q-71 0 -122.5 48.5t-59.5 141.5l93 -1q19 -101 89 -101q72 0 89 101z" />
    <glyph glyph-name="obreve" unicode="&#x14f;" horiz-adv-x="559" 
d="M529 234q0 -114 -72 -181.5t-180 -67.5t-177.5 65.5t-69.5 180.5t72 182t181 67q108 0 177 -66t69 -180zM376 233q0 60 -25.5 95t-71.5 35t-71 -35t-25 -96q0 -60 25 -94.5t72 -34.5t71.5 34.5t24.5 95.5zM452 710q-8 -94 -59 -142t-123 -48q-71 0 -122.5 48.5
t-59.5 141.5l93 -1q19 -101 89 -101q72 0 89 101z" />
    <glyph glyph-name="Ohungarumlaut" unicode="&#x150;" horiz-adv-x="733" 
d="M662 863l-185 -183h-100l143 183h142zM442 863l-162 -183h-103l123 183h142zM694 315q0 -147 -93.5 -238.5t-235.5 -91.5q-144 0 -235 86t-91 240q0 147 93 238t235 91q144 0 235.5 -85.5t91.5 -239.5zM534 311q0 91 -45 146t-124 55q-78 0 -122 -54t-44 -143
q0 -91 45 -146.5t124 -55.5q78 0 122 54.5t44 143.5z" />
    <glyph glyph-name="ohungarumlaut" unicode="&#x151;" horiz-adv-x="559" 
d="M568 710l-185 -183h-100l143 183h142zM348 710l-162 -183h-103l123 183h142zM529 234q0 -114 -72 -181.5t-180 -67.5t-177.5 65.5t-69.5 180.5t72 182t181 67q108 0 177 -66t69 -180zM376 233q0 60 -25.5 95t-71.5 35t-71 -35t-25 -96q0 -60 25 -94.5t72 -34.5t71.5 34.5
t24.5 95.5z" />
    <glyph glyph-name="OE" unicode="&#x152;" horiz-adv-x="959" 
d="M921 625v-128h-298v-120h246v-127h-246v-122h298v-128h-536q-163 0 -254 83t-91 225q0 147 90 232t259 85h532zM199 314q0 -96 49 -141.5t147 -45.5h69v371h-77q-89 0 -138.5 -46t-49.5 -138z" />
    <glyph glyph-name="oe" unicode="&#x153;" horiz-adv-x="843" 
d="M507 275l161 1v9q0 89 -71 89q-38 0 -62 -28.5t-28 -70.5zM183 232q0 -60 25 -94.5t72 -34.5t71.5 34.5t24.5 95.5q0 60 -25.5 95t-71.5 35t-71 -35t-25 -96zM442 48q-65 -63 -165 -63q-108 0 -177.5 65.5t-69.5 180.5t72 182t181 67q98 0 161 -61q66 61 164 61
t150.5 -53t52.5 -142q0 -49 -10 -82l-295 -5v-2q5 -47 36 -72.5t87 -25.5q74 0 152 45l15 -119q-74 -38 -181 -38q-105 0 -173 62z" />
    <glyph glyph-name="Racute" unicode="&#x154;" horiz-adv-x="617" 
d="M452 872l-169 -185h-96l99 185h166zM224 204v-204h-159v625v0v0v0h1v0v0h1v0h1v0h1v0h1h1h1h1h1h1h1h1h1h1h1h1h1h1h1h1h1h1h1h1h1h1h1h1h1h1h1h1h1h1h1h1h1h1h1h1h1h1h1h1h1h2h1h1h1h1h1h1h1h2h1h1h1h1h1h2h1h1h1h1h2h1h1h1h2h1h1h2h1h1h2h1h1h2h1h1h2h1h1h2h1h2h1h1h2
h1h2h1h1h2h1h2h1h2h1h2h1h2h1h2h1h2h1h2h2h1h2h1h2h1h2h2h1h2h1h2h2h1h2h2h1h2h2h1h2h2h1h2h2h1h2h2h1h2h2h2h1h2h2h2h2h1h2h2h2h2h1h2h2h2h2h2h1h2h2h2h2h2h2h2h2h2h2h2h2h2h2h2h9q122 0 187.5 -53t65.5 -145q0 -131 -128 -180l160 -247h-179l-125 210zM221 322l80 2
q105 8 105 93q0 82 -118 82h-67v-177z" />
    <glyph glyph-name="racute" unicode="&#x155;" horiz-adv-x="401" 
d="M411 712l-169 -185h-96l99 185h166zM209 271v-271h-154v457l154 19v-68q41 72 112 72q40 0 77 -19l-31 -136q-28 14 -58 14q-61 0 -100 -68z" />
    <glyph glyph-name="Rcommaaccent" unicode="&#x156;" horiz-adv-x="617" 
d="M218 -122q1 29 23 50t55 21q40 0 65.5 -25t25.5 -65q0 -48 -36.5 -86.5t-100.5 -58.5l-34 36q66 37 66 72q0 18 -13 31t-51 25zM224 204v-204h-159v625v0v0v0h1v0v0h1v0h1v0h1v0h1h1h1h1h1h1h1h1h1h1h1h1h1h1h1h1h1h1h1h1h1h1h1h1h1h1h1h1h1h1h1h1h1h1h1h1h1h1h1h1h1h2h1
h1h1h1h1h1h1h2h1h1h1h1h1h2h1h1h1h1h2h1h1h1h2h1h1h2h1h1h2h1h1h2h1h1h2h1h1h2h1h2h1h1h2h1h2h1h1h2h1h2h1h2h1h2h1h2h1h2h1h2h1h2h2h1h2h1h2h1h2h2h1h2h1h2h2h1h2h2h1h2h2h1h2h2h1h2h2h1h2h2h1h2h2h2h1h2h2h2h2h1h2h2h2h2h1h2h2h2h2h2h1h2h2h2h2h2h2h2h2h2h2h2h2h2h2h2h9
q122 0 187.5 -53t65.5 -145q0 -131 -128 -180l160 -247h-179l-125 210zM221 322l80 2q105 8 105 93q0 82 -118 82h-67v-177z" />
    <glyph glyph-name="rcommaaccent" unicode="&#x157;" horiz-adv-x="401" 
d="M52 -122q1 29 23 50t55 21q40 0 65.5 -25t25.5 -65q0 -48 -36.5 -86.5t-100.5 -58.5l-34 36q66 37 66 72q0 18 -13 31t-51 25zM209 271v-271h-154v457l154 19v-68q41 72 112 72q40 0 77 -19l-31 -136q-28 14 -58 14q-61 0 -100 -68z" />
    <glyph glyph-name="Rcaron" unicode="&#x158;" horiz-adv-x="617" 
d="M470 874l-119 -187h-140l-119 187h105l83 -108h2l81 108h107zM224 204v-204h-159v625v0v0v0h1v0v0h1v0h1v0h1v0h1h1h1h1h1h1h1h1h1h1h1h1h1h1h1h1h1h1h1h1h1h1h1h1h1h1h1h1h1h1h1h1h1h1h1h1h1h1h1h1h1h2h1h1h1h1h1h1h1h2h1h1h1h1h1h2h1h1h1h1h2h1h1h1h2h1h1h2h1h1h2h1h1
h2h1h1h2h1h1h2h1h2h1h1h2h1h2h1h1h2h1h2h1h2h1h2h1h2h1h2h1h2h1h2h2h1h2h1h2h1h2h2h1h2h1h2h2h1h2h2h1h2h2h1h2h2h1h2h2h1h2h2h1h2h2h2h1h2h2h2h2h1h2h2h2h2h1h2h2h2h2h2h1h2h2h2h2h2h2h2h2h2h2h2h2h2h2h2h9q122 0 187.5 -53t65.5 -145q0 -131 -128 -180l160 -247h-179
l-125 210zM221 322l80 2q105 8 105 93q0 82 -118 82h-67v-177z" />
    <glyph glyph-name="rcaron" unicode="&#x159;" horiz-adv-x="401" 
d="M407 714l-119 -187h-140l-119 187h105l83 -108h2l81 108h107zM209 271v-271h-154v457l154 19v-68q41 72 112 72q40 0 77 -19l-31 -136q-28 14 -58 14q-61 0 -100 -68z" />
    <glyph glyph-name="Sacute" unicode="&#x15a;" horiz-adv-x="564" 
d="M457 872l-169 -185h-96l99 185h166zM273 116q43 0 69 15.5t26 43.5q0 29 -28 44t-100 35q-41 11 -71 23.5t-62.5 34t-50 56t-17.5 78.5q0 89 63 141t177 52q134 0 234 -55l-31 -131q-103 55 -202 55q-82 0 -82 -53q0 -15 8.5 -26t30.5 -21t39.5 -15.5t53.5 -15.5
q41 -11 72 -24.5t61 -35t46.5 -54t16.5 -75.5q0 -91 -67.5 -147t-188.5 -56q-141 0 -241 57l30 132q109 -58 214 -58z" />
    <glyph glyph-name="sacute" unicode="&#x15b;" horiz-adv-x="460" 
d="M424 712l-169 -185h-96l99 185h166zM432 138q0 -66 -56 -109.5t-155 -43.5q-50 0 -106 11t-91 30l30 111q85 -44 170 -44q63 0 63 38q0 18 -18 28t-61 20q-87 17 -132 52t-45 100q0 66 55 107.5t150 41.5q46 0 100 -11.5t89 -28.5l-31 -110q-86 42 -160 42q-57 0 -57 -35
q0 -18 19 -27.5t61 -18.5q89 -19 132 -53t43 -100z" />
    <glyph glyph-name="Scircumflex" unicode="&#x15c;" horiz-adv-x="564" 
d="M478 687h-105l-83 107h-2l-81 -107h-107l119 187h140zM273 116q43 0 69 15.5t26 43.5q0 29 -28 44t-100 35q-41 11 -71 23.5t-62.5 34t-50 56t-17.5 78.5q0 89 63 141t177 52q134 0 234 -55l-31 -131q-103 55 -202 55q-82 0 -82 -53q0 -15 8.5 -26t30.5 -21t39.5 -15.5
t53.5 -15.5q41 -11 72 -24.5t61 -35t46.5 -54t16.5 -75.5q0 -91 -67.5 -147t-188.5 -56q-141 0 -241 57l30 132q109 -58 214 -58z" />
    <glyph glyph-name="scircumflex" unicode="&#x15d;" horiz-adv-x="460" 
d="M428 527h-105l-83 107h-2l-81 -107h-107l119 187h140zM432 138q0 -66 -56 -109.5t-155 -43.5q-50 0 -106 11t-91 30l30 111q85 -44 170 -44q63 0 63 38q0 18 -18 28t-61 20q-87 17 -132 52t-45 100q0 66 55 107.5t150 41.5q46 0 100 -11.5t89 -28.5l-31 -110
q-86 42 -160 42q-57 0 -57 -35q0 -18 19 -27.5t61 -18.5q89 -19 132 -53t43 -100z" />
    <glyph glyph-name="Scedilla" unicode="&#x15e;" horiz-adv-x="564" 
d="M271 -51q54 -2 90.5 -28.5t36.5 -70.5q0 -109 -199 -133l-8 71q117 5 117 52q0 52 -116 43l-10 51l56 52q-124 8 -209 56l30 132q109 -58 214 -58q43 0 69 15.5t26 43.5q0 29 -28 44t-100 35q-41 11 -71 23.5t-62.5 34t-50 56t-17.5 78.5q0 89 63 141t177 52
q134 0 234 -55l-31 -131q-103 55 -202 55q-82 0 -82 -53q0 -15 8.5 -26t30.5 -21t39.5 -15.5t53.5 -15.5q41 -11 72 -24.5t61 -35t46.5 -54t16.5 -75.5q0 -82 -55.5 -136.5t-156.5 -64.5l-17 -14.5l-16 -14t-10 -9.5z" />
    <glyph glyph-name="scedilla" unicode="&#x15f;" horiz-adv-x="460" 
d="M218 -51q54 -2 90.5 -28.5t36.5 -70.5q0 -109 -199 -133l-8 71q117 5 117 52q0 52 -116 43l-10 51l56 53q-103 7 -161 39l30 111q85 -44 170 -44q63 0 63 38q0 18 -18 28t-61 20q-87 17 -132 52t-45 100q0 66 55 107.5t150 41.5q46 0 100 -11.5t89 -28.5l-31 -110
q-86 42 -160 42q-57 0 -57 -35q0 -18 19 -27.5t61 -18.5q89 -19 132 -53t43 -100q0 -59 -45 -100.5t-127 -50.5q-36 -32 -42 -38z" />
    <glyph glyph-name="Scaron" unicode="&#x160;" horiz-adv-x="564" 
d="M273 116q43 0 69 15.5t26 43.5q0 29 -28 44t-100 35q-41 11 -71 23.5t-62.5 34t-50 56t-17.5 78.5q0 89 63 141t177 52q134 0 234 -55l-31 -131q-103 55 -202 55q-82 0 -82 -53q0 -15 8.5 -26t30.5 -21t39.5 -15.5t53.5 -15.5q41 -11 72 -24.5t61 -35t46.5 -54
t16.5 -75.5q0 -91 -67.5 -147t-188.5 -56q-141 0 -241 57l30 132q109 -58 214 -58zM472 861l-119 -187h-140l-119 187h105l83 -108h2l81 108h107z" />
    <glyph glyph-name="scaron" unicode="&#x161;" horiz-adv-x="460" 
d="M432 138q0 -66 -56 -109.5t-155 -43.5q-50 0 -106 11t-91 30l30 111q85 -44 170 -44q63 0 63 38q0 18 -18 28t-61 20q-87 17 -132 52t-45 100q0 66 55 107.5t150 41.5q46 0 100 -11.5t89 -28.5l-31 -110q-86 42 -160 42q-57 0 -57 -35q0 -18 19 -27.5t61 -18.5
q89 -19 132 -53t43 -100zM420 714l-119 -187h-140l-119 187h105l83 -108h2l81 108h107z" />
    <glyph glyph-name="Tcommaaccent" unicode="&#x162;" horiz-adv-x="602" 
d="M215 -122q1 29 23 50t55 21q40 0 65.5 -25t25.5 -65q0 -48 -36.5 -86.5t-100.5 -58.5l-34 36q66 37 66 72q0 18 -13 31t-51 25zM579 492h-199v-492h-159v492h-199v133h557v-133z" />
    <glyph glyph-name="tcommaaccent" unicode="&#x163;" horiz-adv-x="377" 
d="M133 -122q1 29 23 50t55 21q40 0 65.5 -25t25.5 -65q0 -48 -36.5 -86.5t-100.5 -58.5l-34 36q66 37 66 72q0 18 -13 31t-51 25zM355 2q-56 -17 -113 -17q-89 0 -132 40t-39 129l7 177l-70 12l3 98l70 23l2 106h149l-1 -111h116l-3 -121h-124l-5 -167q-3 -61 61 -61
q25 0 61 12z" />
    <glyph glyph-name="Tcaron" unicode="&#x164;" horiz-adv-x="602" 
d="M490 874l-119 -187h-140l-119 187h105l83 -108h2l81 108h107zM579 492h-199v-492h-159v492h-199v133h557v-133z" />
    <glyph glyph-name="tcaron" unicode="&#x165;" horiz-adv-x="377" 
d="M258 720q4 40 34 65t73 25q52 0 86 -37.5t34 -89.5q0 -113 -169 -204l-68 60q50 34 75 58.5t25 46.5q0 21 -19.5 38t-70.5 38zM355 2q-56 -17 -113 -17q-89 0 -132 40t-39 129l7 177l-70 12l3 98l70 23l2 106h149l-1 -111h116l-3 -121h-124l-5 -167q-3 -61 61 -61
q25 0 61 12z" />
    <glyph glyph-name="Umacron" unicode="&#x16a;" horiz-adv-x="672" 
d="M612 255q0 -133 -73.5 -201.5t-202.5 -68.5q-127 0 -201 64t-74 192v384h158v-363q0 -143 121 -143q57 0 85.5 33t28.5 104v0v0v0v0v1v0v0v1v0v1v0v1v0v1v0v1v0v1v1v1v1v1v1v1v1v1v1v1v1v1v1v1v1v1v1v1v1v1v1v1v1v1v1v1v1v1v1v1v1v1v1v1v1v1v1v1v1v1v1v1v1v1v1v1v1v1v1v1
v1v1v1v1v1v1v1v1v1v1v1v1v1v1v1v1v2v1v1v1v1v1v1v1v2v1v1v1v1v1v2v1v1v1v1v1v2v1v1v1v2v1v1v1v2v1v1v1v2v1v1v1v2v1v1v2v1v1v1v2v1v1v2v1v1v2v1v2v1v1v2v1v1v2v1v2v1v1v2v1v2v1v1v2v1v2v1v2v1v1v2v1v2v1v2v1v2v1v2v1v2v1v2v1v2v1v2v1v2v1v2v1v2v2v1v2v1v2v1v2v1v2v2v1v2v1v2
v2v1v2v1v2v2v1v2v2v1v2v1v2v2v1v2v2v1v2v2v1v2v2v1v2v2v2v1v2v2v1v2v2v2v1v2v2v1v2v2v2v1v2v2v2v1v2v2v2v2v1v2v2v2v2v1v2v2v2v2v1v2v2v2v2v2v1v2v2v2v2v2v2v1v2v2v2v2v8h158v-370zM519 709h-364l11 87h342z" />
    <glyph glyph-name="umacron" unicode="&#x16b;" horiz-adv-x="558" 
d="M52 465h154v-275q0 -75 64 -75q44 0 79 31v319h154v-458l-154 -19v69q-66 -72 -151 -72q-68 0 -107 43t-39 117v320zM460 549h-364l11 87h342z" />
    <glyph glyph-name="Ubreve" unicode="&#x16c;" horiz-adv-x="672" 
d="M612 255q0 -133 -73.5 -201.5t-202.5 -68.5q-127 0 -201 64t-74 192v384h158v-363q0 -143 121 -143q57 0 85.5 33t28.5 104v0v0v0v0v1v0v0v1v0v1v0v1v0v1v0v1v0v1v1v1v1v1v1v1v1v1v1v1v1v1v1v1v1v1v1v1v1v1v1v1v1v1v1v1v1v1v1v1v1v1v1v1v1v1v1v1v1v1v1v1v1v1v1v1v1v1v1v1
v1v1v1v1v1v1v1v1v1v1v1v1v1v1v1v1v2v1v1v1v1v1v1v1v2v1v1v1v1v1v2v1v1v1v1v1v2v1v1v1v2v1v1v1v2v1v1v1v2v1v1v1v2v1v1v2v1v1v1v2v1v1v2v1v1v2v1v2v1v1v2v1v1v2v1v2v1v1v2v1v2v1v1v2v1v2v1v2v1v1v2v1v2v1v2v1v2v1v2v1v2v1v2v1v2v1v2v1v2v1v2v1v2v2v1v2v1v2v1v2v1v2v2v1v2v1v2
v2v1v2v1v2v2v1v2v2v1v2v1v2v2v1v2v2v1v2v2v1v2v2v1v2v2v2v1v2v2v1v2v2v2v1v2v2v1v2v2v2v1v2v2v2v1v2v2v2v2v1v2v2v2v2v1v2v2v2v2v1v2v2v2v2v2v1v2v2v2v2v2v2v1v2v2v2v2v8h158v-370zM519 870q-8 -94 -59 -142t-123 -48q-71 0 -122.5 48.5t-59.5 141.5l93 -1q19 -101 89 -101
q72 0 89 101z" />
    <glyph glyph-name="ubreve" unicode="&#x16d;" horiz-adv-x="558" 
d="M52 465h154v-275q0 -75 64 -75q44 0 79 31v319h154v-458l-154 -19v69q-66 -72 -151 -72q-68 0 -107 43t-39 117v320zM457 710q-8 -94 -59 -142t-123 -48q-71 0 -122.5 48.5t-59.5 141.5l93 -1q19 -101 89 -101q72 0 89 101z" />
    <glyph glyph-name="Uring" unicode="&#x16e;" horiz-adv-x="672" 
d="M478 793q1 -51 -38 -84.5t-103 -33.5t-102.5 33.5t-38.5 84.5t38.5 84.5t102.5 33.5t102.5 -33.5t38.5 -84.5zM419 794q0 30 -22 49t-60 19q-37 0 -59 -19t-22 -49t22.5 -50t58.5 -20q38 0 60 19.5t22 50.5zM612 255q0 -133 -73.5 -201.5t-202.5 -68.5q-127 0 -201 64
t-74 192v384h158v-363q0 -143 121 -143q57 0 85.5 33t28.5 104v0v0v0v0v1v0v0v1v0v1v0v1v0v1v0v1v0v1v1v1v1v1v1v1v1v1v1v1v1v1v1v1v1v1v1v1v1v1v1v1v1v1v1v1v1v1v1v1v1v1v1v1v1v1v1v1v1v1v1v1v1v1v1v1v1v1v1v1v1v1v1v1v1v1v1v1v1v1v1v1v1v1v1v1v2v1v1v1v1v1v1v1v2v1v1v1v1
v1v2v1v1v1v1v1v2v1v1v1v2v1v1v1v2v1v1v1v2v1v1v1v2v1v1v2v1v1v1v2v1v1v2v1v1v2v1v2v1v1v2v1v1v2v1v2v1v1v2v1v2v1v1v2v1v2v1v2v1v1v2v1v2v1v2v1v2v1v2v1v2v1v2v1v2v1v2v1v2v1v2v1v2v2v1v2v1v2v1v2v1v2v2v1v2v1v2v2v1v2v1v2v2v1v2v2v1v2v1v2v2v1v2v2v1v2v2v1v2v2v1v2v2v2v1v2
v2v1v2v2v2v1v2v2v1v2v2v2v1v2v2v2v1v2v2v2v2v1v2v2v2v2v1v2v2v2v2v1v2v2v2v2v2v1v2v2v2v2v2v2v1v2v2v2v2v8h158v-370z" />
    <glyph glyph-name="uring" unicode="&#x16f;" horiz-adv-x="558" 
d="M414 640q1 -51 -38 -84.5t-103 -33.5t-102.5 33.5t-38.5 84.5t38.5 84.5t102.5 33.5t102.5 -33.5t38.5 -84.5zM355 641q0 30 -22 49t-60 19q-37 0 -59 -19t-22 -49t22.5 -50t58.5 -20q38 0 60 19.5t22 50.5zM52 465h154v-275q0 -75 64 -75q44 0 79 31v319h154v-458
l-154 -19v69q-66 -72 -151 -72q-68 0 -107 43t-39 117v320z" />
    <glyph glyph-name="Uhungarumlaut" unicode="&#x170;" horiz-adv-x="672" 
d="M612 255q0 -133 -73.5 -201.5t-202.5 -68.5q-127 0 -201 64t-74 192v384h158v-363q0 -143 121 -143q57 0 85.5 33t28.5 104v0v0v0v0v1v0v0v1v0v1v0v1v0v1v0v1v0v1v1v1v1v1v1v1v1v1v1v1v1v1v1v1v1v1v1v1v1v1v1v1v1v1v1v1v1v1v1v1v1v1v1v1v1v1v1v1v1v1v1v1v1v1v1v1v1v1v1v1
v1v1v1v1v1v1v1v1v1v1v1v1v1v1v1v1v2v1v1v1v1v1v1v1v2v1v1v1v1v1v2v1v1v1v1v1v2v1v1v1v2v1v1v1v2v1v1v1v2v1v1v1v2v1v1v2v1v1v1v2v1v1v2v1v1v2v1v2v1v1v2v1v1v2v1v2v1v1v2v1v2v1v1v2v1v2v1v2v1v1v2v1v2v1v2v1v2v1v2v1v2v1v2v1v2v1v2v1v2v1v2v1v2v2v1v2v1v2v1v2v1v2v2v1v2v1v2
v2v1v2v1v2v2v1v2v2v1v2v1v2v2v1v2v2v1v2v2v1v2v2v1v2v2v2v1v2v2v1v2v2v2v1v2v2v1v2v2v2v1v2v2v2v1v2v2v2v2v1v2v2v2v2v1v2v2v2v2v1v2v2v2v2v2v1v2v2v2v2v2v2v1v2v2v2v2v8h158v-370zM659 870l-185 -183h-100l143 183h142zM439 870l-162 -183h-103l123 183h142z" />
    <glyph glyph-name="uhungarumlaut" unicode="&#x171;" horiz-adv-x="558" 
d="M52 465h154v-275q0 -75 64 -75q44 0 79 31v319h154v-458l-154 -19v69q-66 -72 -151 -72q-68 0 -107 43t-39 117v320zM568 710l-185 -183h-100l143 183h142zM348 710l-162 -183h-103l123 183h142z" />
    <glyph glyph-name="Uogonek" unicode="&#x172;" horiz-adv-x="672" 
d="M612 255q0 -175 -133 -245q-76 -40 -76 -93q0 -45 43 -45q30 0 51 13l21 -78q-42 -27 -104 -27q-55 0 -88 27.5t-33 74.5q0 63 58 103h-15q-127 0 -201 64.5t-74 191.5v384h158v-363q0 -143 121 -143q57 0 85.5 33t28.5 104v369h158v-370z" />
    <glyph glyph-name="uogonek" unicode="&#x173;" horiz-adv-x="558" 
d="M52 465h154v-275q0 -75 64 -75q44 0 79 31v319h154v-461q-49 -6 -88 -32t-39 -55q0 -45 43 -45q30 0 51 13l21 -78q-42 -27 -104 -27q-55 0 -88 27.5t-33 74.5q0 38 23.5 68.5t59.5 49.5v57q-66 -72 -151 -72q-68 0 -107 43t-39 117v320z" />
    <glyph glyph-name="Wcircumflex" unicode="&#x174;" horiz-adv-x="955" 
d="M669 687h-105l-83 107h-2l-81 -107h-107l119 187h140zM478 445l-123 -445h-165l-167 625h170l84 -442l112 442h182l114 -442l84 442h163l-167 -625h-166z" />
    <glyph glyph-name="wcircumflex" unicode="&#x175;" horiz-adv-x="771" 
d="M575 527h-105l-83 107h-2l-81 -107h-107l119 187h140zM298 -2h-156l-131 467h156l63 -309l79 309h161l80 -304l54 304h160l-132 -467h-156l-89 306z" />
    <glyph glyph-name="Ycircumflex" unicode="&#x176;" horiz-adv-x="611" 
d="M601 625l-217 -388v-237h-156v238l-218 387h169l129 -247l125 247h168zM496 687h-105l-83 107h-2l-81 -107h-107l119 187h140z" />
    <glyph glyph-name="ycircumflex" unicode="&#x177;" horiz-adv-x="508" 
d="M512 465l-168 -443l-23 -61q-35 -99 -81.5 -138t-122.5 -39q-73 0 -138 30l46 117q48 -21 72 -21q25 0 39 12t27 45l13 36l-182 462h165l99 -306l90 306h164zM442 527h-105l-83 107h-2l-81 -107h-107l119 187h140z" />
    <glyph glyph-name="Ydieresis" unicode="&#x178;" horiz-adv-x="611" 
d="M601 625l-217 -388v-237h-156v238l-218 387h169l129 -247l125 247h168zM501 749q0 -37 -21 -57t-58 -20q-36 0 -57.5 20t-21.5 57t21.5 57t57.5 20q37 0 58 -20t21 -57zM269 749q0 -37 -22 -57t-58 -20t-58 20t-22 57t22 57t58 20t58 -20t22 -57z" />
    <glyph glyph-name="Zacute" unicode="&#x179;" horiz-adv-x="580" 
d="M484 872l-169 -185h-96l99 185h166zM542 0h-511v105l312 387h-306v133h506v-106l-311 -385h310v-134z" />
    <glyph glyph-name="zacute" unicode="&#x17a;" horiz-adv-x="459" 
d="M418 712l-169 -185h-96l99 185h166zM438 0h-420v92l218 246h-209v127h411v-92l-217 -247h217v-126z" />
    <glyph glyph-name="Zdotaccent" unicode="&#x17b;" horiz-adv-x="580" 
d="M542 0h-511v105l312 387h-306v133h506v-106l-311 -385h310v-134zM382 760q0 -37 -23 -62t-61 -25q-37 0 -60.5 25t-23.5 62q0 36 23.5 61.5t60.5 25.5q38 0 61 -25.5t23 -61.5z" />
    <glyph glyph-name="zdotaccent" unicode="&#x17c;" horiz-adv-x="459" 
d="M438 0h-420v92l218 246h-209v127h411v-92l-217 -247h217v-126zM315 600q0 -37 -23 -62t-61 -25q-37 0 -60.5 25t-23.5 62q0 36 23.5 61.5t60.5 25.5q38 0 61 -25.5t23 -61.5z" />
    <glyph glyph-name="Zcaron" unicode="&#x17d;" horiz-adv-x="580" 
d="M542 0h-511v105l312 387h-306v133h506v-106l-311 -385h310v-134zM478 855l-119 -187h-140l-119 187h105l83 -108h2l81 108h107z" />
    <glyph glyph-name="zcaron" unicode="&#x17e;" horiz-adv-x="459" 
d="M438 0h-420v92l218 246h-209v127h411v-92l-217 -247h217v-126zM415 714l-119 -187h-140l-119 187h105l83 -108h2l81 108h107z" />
    <glyph glyph-name="florin" unicode="&#x192;" horiz-adv-x="452" 
d="M107 185l18 97l-115 6l24 98l108 22l10 58q27 171 179 171q78 0 138 -34l-47 -113q-38 23 -71 23q-48 0 -59 -58l-8 -52h132l-21 -120h-123l-16 -85q-16 -101 -65.5 -149t-155.5 -67l-36 116q50 9 75.5 29.5t32.5 57.5z" />
    <glyph glyph-name="Aringacute" unicode="&#x1fa;" horiz-adv-x="643" 
d="M479 1014l-169 -185h-96l99 185h166zM402 257l-80 245l-83 -245h163zM219 610q-37 31 -37 81t38.5 84t101.5 34q64 0 102.5 -33.5t38.5 -84.5q0 -49 -37 -80l215 -611h-158l-46 133h-232l-45 -133h-158zM405 692q0 30 -22.5 49t-60.5 19q-37 0 -59 -19t-22 -49t22.5 -50
t58.5 -20q38 0 60.5 19.5t22.5 50.5z" />
    <glyph glyph-name="aringacute" unicode="&#x1fb;" horiz-adv-x="511" 
d="M305 118v89q-72 -8 -101 -23.5t-29 -46.5q0 -22 16 -36t42 -14q44 0 72 31zM309 56h-3q-60 -71 -134 -71q-60 0 -101 37.5t-41 91.5q0 157 275 165v9q0 37 -19.5 54t-62.5 17q-64 0 -158 -47l-32 113q104 55 214 55q116 0 165 -50.5t47 -152.5l-1 -138q0 -23 6.5 -29.5
t31.5 -8.5l-15 -110q-138 -18 -172 65zM415 967l-169 -185h-96l99 185h166zM376 640q1 -51 -38 -84.5t-103 -33.5t-102.5 33.5t-38.5 84.5t38.5 84.5t102.5 33.5t102.5 -33.5t38.5 -84.5zM317 641q0 30 -22 49t-60 19q-37 0 -59 -19t-22 -49t22.5 -50t58.5 -20q38 0 60 19.5
t22 50.5z" />
    <glyph glyph-name="AEacute" unicode="&#x1fc;" horiz-adv-x="897" 
d="M743 872l-169 -185h-96l99 185h166zM281 260h122v263zM225 133l-62 -133h-170l304 625h562v-128h-301v-120h249v-127h-249v-122h301v-128h-456v133h-178z" />
    <glyph glyph-name="aeacute" unicode="&#x1fd;" horiz-adv-x="786" 
d="M579 712l-169 -185h-96l99 185h166zM347 82q-79 -97 -175 -97q-60 0 -101 37.5t-41 91.5q0 72 66 117t215 48v8q0 72 -88 72q-64 0 -158 -47l-32 113q102 54 216 54q108 0 159 -49q63 50 147 50q95 0 146.5 -54t51.5 -141q0 -49 -10 -82l-296 -5v-2q5 -47 36.5 -72.5
t87.5 -25.5q74 0 151 45l15 -119q-74 -38 -180 -38q-143 0 -210 96zM449 275l160 1q1 2 1 9q0 89 -72 89q-37 0 -61 -28.5t-28 -70.5zM310 207q-72 -6 -103.5 -22.5t-31.5 -47.5q0 -22 16.5 -36t42.5 -14q49 0 89 43q-11 38 -13 77z" />
    <glyph glyph-name="Oslashacute" unicode="&#x1fe;" horiz-adv-x="733" 
d="M695 315q0 -147 -93.5 -238.5t-235.5 -91.5q-76 0 -142 26l-46 -78h-72l63 107q-129 88 -129 271q0 147 93 238t235 91q76 0 137 -24l45 76h72l-61 -104q134 -87 134 -273zM438 497q-33 15 -72 15q-78 0 -122.5 -54t-44.5 -143q0 -94 49 -148zM484 463l-192 -332
q33 -18 77 -18q78 0 122 54.5t44 143.5q0 98 -51 152zM562 859l-169 -185h-96l99 185h166z" />
    <glyph glyph-name="oslashacute" unicode="&#x1ff;" horiz-adv-x="559" 
d="M533 232q0 -113 -71 -180t-180 -67q-48 0 -96 16l-39 -68h-73l56 97q-95 68 -95 202q0 114 71 181t181 67q52 0 97 -17l38 63h72l-54 -93q93 -67 93 -201zM329 364q-21 14 -48 14q-47 0 -73 -38t-26 -104q0 -50 20 -91zM386 231q0 45 -18 88l-125 -219q25 -10 44 -10
q47 0 73 38t26 103zM467 712l-169 -185h-96l99 185h166z" />
    <glyph glyph-name="Scommaaccent" unicode="&#x218;" horiz-adv-x="564" 
d="M201 -122q1 29 23 50t55 21q40 0 65.5 -25t25.5 -65q0 -48 -36.5 -86.5t-100.5 -58.5l-34 36q66 37 66 72q0 18 -13 31t-51 25zM273 116q43 0 69 15.5t26 43.5q0 29 -28 44t-100 35q-41 11 -71 23.5t-62.5 34t-50 56t-17.5 78.5q0 89 63 141t177 52q134 0 234 -55
l-31 -131q-103 55 -202 55q-82 0 -82 -53q0 -15 8.5 -26t30.5 -21t39.5 -15.5t53.5 -15.5q41 -11 72 -24.5t61 -35t46.5 -54t16.5 -75.5q0 -91 -67.5 -147t-188.5 -56q-141 0 -241 57l30 132q109 -58 214 -58z" />
    <glyph glyph-name="scommaaccent" unicode="&#x219;" horiz-adv-x="460" 
d="M146 -122q1 29 23 50t55 21q40 0 65.5 -25t25.5 -65q0 -48 -36.5 -86.5t-100.5 -58.5l-34 36q66 37 66 72q0 18 -13 31t-51 25zM432 138q0 -66 -56 -109.5t-155 -43.5q-50 0 -106 11t-91 30l30 111q85 -44 170 -44q63 0 63 38q0 18 -18 28t-61 20q-87 17 -132 52t-45 100
q0 66 55 107.5t150 41.5q46 0 100 -11.5t89 -28.5l-31 -110q-86 42 -160 42q-57 0 -57 -35q0 -18 19 -27.5t61 -18.5q89 -19 132 -53t43 -100z" />
    <glyph glyph-name="uni021A" unicode="&#x21a;" horiz-adv-x="602" 
d="M215 -122q1 29 23 50t55 21q40 0 65.5 -25t25.5 -65q0 -48 -36.5 -86.5t-100.5 -58.5l-34 36q66 37 66 72q0 18 -13 31t-51 25zM579 492h-199v-492h-159v492h-199v133h557v-133z" />
    <glyph glyph-name="uni021B" unicode="&#x21b;" horiz-adv-x="377" 
d="M133 -122q1 29 23 50t55 21q40 0 65.5 -25t25.5 -65q0 -48 -36.5 -86.5t-100.5 -58.5l-34 36q66 37 66 72q0 18 -13 31t-51 25zM355 2q-56 -17 -113 -17q-89 0 -132 40t-39 129l7 177l-70 12l3 98l70 23l2 106h149l-1 -111h116l-3 -121h-124l-5 -167q-3 -61 61 -61
q25 0 61 12z" />
    <glyph glyph-name="dotlessj" unicode="&#x237;" horiz-adv-x="263" 
d="M61 -242l-88 104q45 21 63.5 54.5t18.5 104.5v0v0v0v0v0v0v0v0v0v1v0v0v1v0v1v0v1v0v1v1v0v1v0v1v1v1v1v1v1v1v1v1v1v1v1v1v1v1v1v1v1v1v1v1v1v1v1v1v1v1v1v1v1v1v1v1v1v1v1v1v1v1v1v1v1v1v1v1v1v1v1v1v1v1v1v1v1v1v1v1v1v1v1v1v1v1v1v1v1v1v1v1v1v1v1v1v1v1v1v1v1v1v1v2
v1v1v1v1v1v1v1v1v2v1v1v1v1v1v2v1v1v1v1v2v1v1v1v1v2v1v1v1v1v2v1v1v1v2v1v1v1v2v1v1v2v1v1v1v2v1v1v2v1v1v2v1v1v2v1v1v2v1v1v2v1v1v2v1v2v1v1v2v1v1v2v1v2v1v1v2v1v2v1v2v1v1v2v1v2v1v2v1v2v1v2v1v2v1v2v1v1v2v1v2v1v2v2v1v2v1v2v1v2v1v2v1v2v1v2v1v2v2v1v2v1v2v1v2v2v1v2
v1v2v2v1v2v1v2v2v1v2v2v1v2v1v2v2v1v2v2v1v2v2v1v2v2v1v2v2v1v2v2v1v2v2v1v2v2v2v1v2v2v1v2v2v2v1v2v2v2v1v2v2v2v1v2v2v2v1v2v2v2v2v1v2v2v2v2v1v2v2v2v2v1v2v2v2v2v2v1v2v2v2v2v2v2v1v2v2v2v2v2v2v1v2v2v9l154 19v0v0v0v0v-1v0v0v0v-1v0v0v-1v0v-1v0v-1v0v-1v0v-1v-1v0v-1
v-1v-1v0v-1v-1v-1v-1v-1v-1v-1v-1v-1v-1v-1v-1v-1v-1v-1v-1v-1v-1v-1v-1v-1v-1v-1v-1v-1v-1v-1v-1v-1v-1v-1v-1v-1v-1v-1v-1v-1v-1v-1v-1v-1v-1v-1v-1v-1v-1v-1v-1v-1v-1v-1v-1v-1v-1v-1v-1v-1v-1v-1v-1v-1v-1v-1v-1v-1v-1v-1v-1v-1v-1v-1v-1v-1v-1v-1v-1v-1v-1v-1v-1v-2v-1
v-1v-1v-1v-1v-1v-1v-2v-1v-1v-1v-1v-1v-1v-2v-1v-1v-1v-1v-2v-1v-1v-1v-1v-2v-1v-1v-1v-1v-2v-1v-1v-1v-2v-1v-1v-1v-2v-1v-1v-1v-2v-1v-1v-2v-1v-1v-2v-1v-1v-1v-2v-1v-1v-2v-1v-1v-2v-1v-1v-2v-1v-2v-1v-1v-2v-1v-1v-2v-1v-2v-1v-1v-2v-1v-2v-1v-1v-2v-1v-2v-1v-2v-1v-1
v-2v-1v-2v-1v-2v-1v-2v-1v-2v-1v-1v-2v-1v-2v-1v-2v-1v-2v-1v-2v-1v-2v-2v-1v-2v-1v-2v-1v-2v-1v-2v-1v-2v-1v-2v-2v-1v-2v-1v-2v-1v-2v-2v-1v-2v-1v-2v-2v-1v-2v-1v-2v-2v-1v-2v-1v-2v-2v-1v-2v-2v-1v-2v-2v-1v-2v-2v-1v-2v-2v-1v-2v-2v-1v-2v-2v-1v-2v-2v-1v-2v-2v-2v-1
v-2v-2v-1v-2v-2v-2v-1v-2v-2v-2v-1v-2v-2v-2v-1v-2v-2v-2v-2v-1v-2v-2v-2v-2v-1v-2v-2v-2v-2v-1v-2v-2v-2v-2v-1v-2v-2v-2v-2v-2v-2v-1v-2v-2v-2v-2v-2v-2v-2v-1v-2v-2v-2v-2v-2v-2v-2v-2v-2v-2v-2v-2v-2v-1v-2v-2v-10q0 -105 -34 -165t-114 -88z" />
    <glyph glyph-name="circumflex" unicode="&#x2c6;" horiz-adv-x="398" 
d="M389 527h-105l-83 107h-2l-81 -107h-107l119 187h140z" />
    <glyph glyph-name="caron" unicode="&#x2c7;" horiz-adv-x="398" 
d="M389 714l-119 -187h-140l-119 187h105l83 -108h2l81 108h107z" />
    <glyph glyph-name="breve" unicode="&#x2d8;" horiz-adv-x="398" 
d="M382 710q-8 -94 -59 -142t-123 -48q-71 0 -122.5 48.5t-59.5 141.5l93 -1q19 -101 89 -101q72 0 89 101z" />
    <glyph glyph-name="dotaccent" unicode="&#x2d9;" horiz-adv-x="398" 
d="M284 600q0 -37 -23 -62t-61 -25q-37 0 -60.5 25t-23.5 62q0 36 23.5 61.5t60.5 25.5q38 0 61 -25.5t23 -61.5z" />
    <glyph glyph-name="ring" unicode="&#x2da;" horiz-adv-x="398" 
d="M341 640q1 -51 -38 -84.5t-103 -33.5t-102.5 33.5t-38.5 84.5t38.5 84.5t102.5 33.5t102.5 -33.5t38.5 -84.5zM282 641q0 30 -22 49t-60 19q-37 0 -59 -19t-22 -49t22.5 -50t58.5 -20q38 0 60 19.5t22 50.5z" />
    <glyph glyph-name="ogonek" unicode="&#x2db;" horiz-adv-x="398" 
d="M332 -220q-66 -56 -140 -56q-57 0 -94 32.5t-37 85.5q0 60 54 114t137 75h93q-93 -33 -142.5 -79.5t-49.5 -91.5q0 -25 16 -40t44 -15q49 0 110 36z" />
    <glyph glyph-name="tilde" unicode="&#x2dc;" horiz-adv-x="397" 
d="M391 683q-9 -86 -36 -119.5t-74 -33.5q-35 0 -87 28.5t-64 28.5q-14 0 -21 -10.5t-11 -39.5v0h-1v0h-1h-1h-1h-1h-1h-1h-1h-1h-1h-1h-1h-1h-1h-1h-1h-1h-2h-1h-1h-1h-1h-2h-1h-1h-2h-1h-1h-2h-1h-2h-1h-1h-2h-1h-2h-2h-1h-2h-1h-2h-2h-1h-2h-2h-1h-2h-2h-2h-2h-1h-2h-2
h-2h-2h-2h-2h-2h-9q9 85 35.5 118.5t73.5 33.5q35 0 87.5 -28.5t64.5 -28.5q13 0 20 11t11 40v0h1v0h1h1h1h1h1h1h1h1h1h1h1h1h1h1h1h1h1h1h2h1h1h1h1h2h1h1h2h1h1h2h1h2h1h2h1h2h1h2h1h2h2h1h2h2h1h2h2h1h2h2h2h2h1h2h2h2h2h2h2h8z" />
    <glyph glyph-name="hungarumlaut" unicode="&#x2dd;" horiz-adv-x="397" 
d="M527 710l-185 -183h-100l143 183h142zM307 710l-162 -183h-103l123 183h142z" />
    <glyph glyph-name="Wgrave" unicode="&#x1e80;" horiz-adv-x="955" 
d="M478 445l-123 -445h-165l-167 625h170l84 -442l112 442h182l114 -442l84 442h163l-167 -625h-166zM543 687h-96l-169 185h166z" />
    <glyph glyph-name="wgrave" unicode="&#x1e81;" horiz-adv-x="771" 
d="M298 -2h-156l-131 467h156l63 -309l79 309h161l80 -304l54 304h160l-132 -467h-156l-89 306zM457 527h-96l-169 185h166z" />
    <glyph glyph-name="Wacute" unicode="&#x1e82;" horiz-adv-x="955" 
d="M668 872l-169 -185h-96l99 185h166zM478 445l-123 -445h-165l-167 625h170l84 -442l112 442h182l114 -442l84 442h163l-167 -625h-166z" />
    <glyph glyph-name="wacute" unicode="&#x1e83;" horiz-adv-x="771" 
d="M580 712l-169 -185h-96l99 185h166zM298 -2h-156l-131 467h156l63 -309l79 309h161l80 -304l54 304h160l-132 -467h-156l-89 306z" />
    <glyph glyph-name="Wdieresis" unicode="&#x1e84;" horiz-adv-x="955" 
d="M678 768q0 -37 -21 -57t-58 -20q-36 0 -57.5 20t-21.5 57t21.5 57t57.5 20q37 0 58 -20t21 -57zM446 768q0 -37 -22 -57t-58 -20t-58 20t-22 57t22 57t58 20t58 -20t22 -57zM478 445l-123 -445h-165l-167 625h170l84 -442l112 442h182l114 -442l84 442h163l-167 -625
h-166z" />
    <glyph glyph-name="wdieresis" unicode="&#x1e85;" horiz-adv-x="771" 
d="M581 608q0 -37 -21 -57t-58 -20q-36 0 -57.5 20t-21.5 57t21.5 57t57.5 20q37 0 58 -20t21 -57zM349 608q0 -37 -22 -57t-58 -20t-58 20t-22 57t22 57t58 20t58 -20t22 -57zM298 -2h-156l-131 467h156l63 -309l79 309h161l80 -304l54 304h160l-132 -467h-156l-89 306z
" />
    <glyph glyph-name="thinspace" unicode="&#x2009;" horiz-adv-x="76" 
 />
    <glyph glyph-name="endash" unicode="&#x2013;" horiz-adv-x="526" 
d="M502 182h-477l3 117h471z" />
    <glyph glyph-name="emdash" unicode="&#x2014;" horiz-adv-x="996" 
d="M972 182h-947l3 117h941z" />
    <glyph glyph-name="quoteleft" unicode="&#x2018;" horiz-adv-x="271" 
d="M248 416q-4 -40 -34.5 -65t-73.5 -25q-51 0 -85 37.5t-34 89.5q0 114 169 203l68 -59q-49 -33 -74.5 -58t-25.5 -48q0 -21 19.5 -37.5t70.5 -37.5z" />
    <glyph glyph-name="quoteright" unicode="&#x2019;" horiz-adv-x="271" 
d="M24 578q4 40 34 65t73 25q52 0 86 -37.5t34 -89.5q0 -113 -169 -204l-68 60q50 34 75 58.5t25 46.5q0 21 -19.5 38t-70.5 38z" />
    <glyph glyph-name="quotesinglbase" unicode="&#x201a;" horiz-adv-x="271" 
d="M24 82q4 40 34 65t73 25q52 0 86 -37.5t34 -89.5q0 -113 -169 -204l-68 60q50 34 75 58.5t25 46.5q0 21 -19.5 38t-70.5 38z" />
    <glyph glyph-name="quotedblleft" unicode="&#x201c;" horiz-adv-x="540" 
d="M516 416q-4 -40 -34.5 -65t-73.5 -25q-51 0 -85 37.5t-34 89.5q0 114 169 203l68 -59q-49 -33 -74.5 -58t-25.5 -48q0 -21 19.5 -37.5t70.5 -37.5zM248 416q-4 -40 -34.5 -65t-73.5 -25q-51 0 -85 37.5t-34 89.5q0 114 169 203l68 -59q-49 -33 -74.5 -58t-25.5 -48
q0 -21 19.5 -37.5t70.5 -37.5z" />
    <glyph glyph-name="quotedblright" unicode="&#x201d;" horiz-adv-x="540" 
d="M292 578q4 40 34 65t74 25q51 0 85 -37.5t34 -89.5q0 -113 -169 -204l-68 60q49 34 74.5 58t25.5 47q0 21 -19.5 38t-70.5 38zM24 578q4 40 34 65t73 25q52 0 86 -37.5t34 -89.5q0 -113 -169 -204l-68 60q50 34 75 58.5t25 46.5q0 21 -19.5 38t-70.5 38z" />
    <glyph glyph-name="quotedblbase" unicode="&#x201e;" horiz-adv-x="535" 
d="M292 82q4 40 34 65t74 25q51 0 85 -37.5t34 -89.5q0 -113 -169 -204l-68 60q49 34 74.5 58t25.5 47q0 21 -19.5 38t-70.5 38zM24 82q4 40 34 65t73 25q52 0 86 -37.5t34 -89.5q0 -113 -169 -204l-68 60q50 34 75 58.5t25 46.5q0 21 -19.5 38t-70.5 38z" />
    <glyph glyph-name="dagger" unicode="&#x2020;" horiz-adv-x="526" 
d="M200 331h-169l-3 116h172v178h126v-178h173l-3 -116h-170v-457h-126v457z" />
    <glyph glyph-name="daggerdbl" unicode="&#x2021;" horiz-adv-x="526" 
d="M202 343h-171l-3 116h172v166h126v-166h173l-3 -116h-172v-187h172l3 -116h-173v-166h-126v166h-172l3 116h171v187z" />
    <glyph glyph-name="bullet" unicode="&#x2022;" horiz-adv-x="438" 
d="M412 232q0 -22 -20 -71.5t-36 -65.5q-15 -15 -65 -35.5t-72 -20.5q-21 0 -71 20.5t-64 35.5q-15 16 -36 66t-21 71q0 22 21 71.5t36 64.5t65 35.5t71 20.5q22 0 71.5 -20.5t64.5 -35.5t35.5 -64.5t20.5 -71.5z" />
    <glyph glyph-name="ellipsis" unicode="&#x2026;" horiz-adv-x="824" 
d="M780 73q0 -38 -26 -63t-64 -25t-64.5 25t-26.5 63q0 39 26.5 63.5t64.5 24.5t64 -24.5t26 -63.5zM505 73q0 -38 -26 -63t-64 -25q-39 0 -65.5 25t-26.5 63q0 39 26.5 63.5t65.5 24.5q38 0 64 -24.5t26 -63.5zM229 73q0 -38 -26 -63t-64 -25t-64.5 25t-26.5 63
q0 39 26.5 63.5t64.5 24.5t64 -24.5t26 -63.5z" />
    <glyph glyph-name="perthousand" unicode="&#x2030;" horiz-adv-x="1232" 
d="M369 475q0 -79 -47 -127t-129 -48q-81 0 -128 48t-47 127t47.5 126.5t128.5 47.5t128 -48t47 -126zM734 639l-518 -654h-116l518 654h116zM814 150q0 -80 -47 -127.5t-129 -47.5q-81 0 -128 48t-47 127q0 78 47.5 126t128.5 48t128 -48t47 -126zM266 474q0 44 -20 69.5
t-53 25.5t-52.5 -25.5t-19.5 -69.5q0 -43 19.5 -68t53.5 -25q32 0 52 25.5t20 67.5zM711 149q0 43 -19.5 68.5t-52.5 25.5q-34 0 -53.5 -25.5t-19.5 -68.5q0 -44 19.5 -69t53.5 -25q33 0 52.5 25.5t19.5 68.5zM1214 150q0 -79 -47.5 -127t-129.5 -48q-81 0 -128 48t-47 127
q0 78 47.5 126t128.5 48t128.5 -48t47.5 -126zM1110 149q0 43 -19.5 68.5t-52.5 25.5q-34 0 -53.5 -25.5t-19.5 -68.5q0 -44 19.5 -69t53.5 -25q33 0 52.5 25.5t19.5 68.5z" />
    <glyph glyph-name="guilsinglleft" unicode="&#x2039;" horiz-adv-x="363" 
d="M328 109l-26 -97l-277 159v125l277 160l26 -98l-165 -124v-2z" />
    <glyph glyph-name="guilsinglright" unicode="&#x203a;" horiz-adv-x="363" 
d="M338 171l-277 -160l-26 98l165 123v2l-165 123l26 98l277 -159v-125z" />
    <glyph glyph-name="fraction" unicode="&#x2044;" horiz-adv-x="652" 
d="M643 639l-519 -654h-115l518 654h116z" />
    <glyph glyph-name="zerosuperior" unicode="&#x2070;" horiz-adv-x="330" 
d="M317 459q0 -195 -155 -195q-149 0 -149 194t153 194q151 0 151 -193zM206 456q0 118 -42 118t-42 -116q0 -114 44 -114q40 0 40 112z" />
    <glyph glyph-name="foursuperior" unicode="&#x2074;" horiz-adv-x="330" 
d="M322 358h-44v-85h-105v85h-162l-4 75l126 214h145v-211h42zM177 435v140l-78 -140h78z" />
    <glyph glyph-name="fivesuperior" unicode="&#x2075;" horiz-adv-x="330" 
d="M135 504q3 0 13.5 0.5t15.5 0.5q69 0 106.5 -30t37.5 -80q0 -59 -42 -95t-125 -36q-74 0 -126 20l9 89q44 -22 109 -22q26 0 43 10.5t17 30.5q0 44 -73 44q-50 0 -83 -12l-14 15l27 206h248l2 -88h-159z" />
    <glyph glyph-name="sixsuperior" unicode="&#x2076;" horiz-adv-x="330" 
d="M14 435q0 88 64 150t174 73l26 -81q-59 -5 -104.5 -33t-56.5 -68l3 -1q39 37 91 37q46 0 75 -29.5t29 -80.5q0 -62 -38.5 -100.5t-112.5 -38.5q-72 0 -111 47t-39 125zM116 399q0 -24 14 -41t38 -17q22 0 35 14.5t13 38.5q0 21 -13 33.5t-34 12.5q-33 0 -51 -16
q-2 -9 -2 -25z" />
    <glyph glyph-name="sevensuperior" unicode="&#x2077;" horiz-adv-x="330" 
d="M199 555h-176l2 90h285l-1 -80l-156 -292h-111z" />
    <glyph glyph-name="eightsuperior" unicode="&#x2078;" horiz-adv-x="330" 
d="M321 380q0 -52 -39.5 -84t-118.5 -32q-67 0 -110.5 27.5t-43.5 77.5q0 56 81 80q-75 30 -75 88q0 52 38 83.5t115 31.5q66 0 106.5 -27t40.5 -77q0 -56 -75 -77q81 -31 81 -91zM214 540q0 20 -12.5 31.5t-34.5 11.5t-33.5 -11t-11.5 -29q0 -37 59 -53q33 19 33 50z
M220 378q0 36 -72 56q-35 -19 -35 -51q0 -20 14 -33t41 -13q52 0 52 41z" />
    <glyph glyph-name="ninesuperior" unicode="&#x2079;" horiz-adv-x="330" 
d="M316 482q0 -89 -64.5 -151t-174.5 -73l-25 81q63 9 108 32.5t56 61.5l-3 1q-37 -35 -94 -35q-45 0 -74.5 30.5t-29.5 81.5q0 63 38.5 102.5t112.5 39.5q72 0 111 -46.5t39 -124.5zM214 517q0 24 -14 41t-38 17q-22 0 -35 -14t-13 -38q0 -22 13 -37t34 -15q34 0 51 15
q2 10 2 31z" />
    <glyph glyph-name="plussuperior" unicode="&#x207a;" horiz-adv-x="330" 
d="M281 426h-91v-92h-67v92h-92l2 64h90v92h67v-92h90z" />
    <glyph glyph-name="minussuperior" unicode="&#x207b;" horiz-adv-x="330" 
d="M281 426h-250l2 64h247z" />
    <glyph glyph-name="zeroinferior" unicode="&#x2080;" horiz-adv-x="330" 
d="M317 43q0 -195 -155 -195q-149 0 -149 194t153 194q151 0 151 -193zM206 40q0 118 -42 118t-42 -116q0 -114 44 -114q40 0 40 112z" />
    <glyph glyph-name="oneinferior" unicode="&#x2081;" horiz-adv-x="330" 
d="M128 -143v265l-88 -15l-4 93l218 36v-379h-126z" />
    <glyph glyph-name="twoinferior" unicode="&#x2082;" horiz-adv-x="330" 
d="M295 -143h-278l-2 73q118 99 139 125q22 26 22 50q0 39 -44 39q-45 0 -81 -38q-1 0 -12 20t-20 39.5t-8 19.5q56 51 144 51q68 0 104 -34.5t36 -86.5q0 -39 -30 -72t-113 -96v0v0h1v0h1v0h1h1h1h1h1h1h1h1h1h1h1h1h1h1h1h1h1h1h1h1h1h1h1h2h1h1h1h1h1h1h1h2h1h1h1h1h2h1
h1h2h1h1h1h2h1h2h1h1h2h1h1h2h1h2h1h2h1h2h1h2h1h2h1h2h1h2h2h1h2h1h2h2h1h2h2h1h2h2h1h2h2h1h2h2h2h1h2h2h2h1h2h2h2h2h1h9z" />
    <glyph glyph-name="threeinferior" unicode="&#x2083;" horiz-adv-x="330" 
d="M190 50q55 3 85 -22.5t30 -65.5q0 -54 -45.5 -84t-120.5 -30q-64 0 -121 24l17 81q56 -20 96 -20q66 0 66 35q0 36 -66 36q-14 0 -59 -6v74q58 9 81.5 19t23.5 30q0 28 -41 28q-46 0 -85 -28l-34 80q59 35 135 35q64 0 100.5 -24t36.5 -72q0 -66 -99 -90z" />
    <glyph glyph-name="fourinferior" unicode="&#x2084;" horiz-adv-x="330" 
d="M322 -58h-44v-85h-105v85h-162l-4 75l126 214h145v-211h42zM177 19v140l-78 -140h78z" />
    <glyph glyph-name="fiveinferior" unicode="&#x2085;" horiz-adv-x="330" 
d="M135 88q3 0 13.5 0.5t15.5 0.5q69 0 106.5 -30t37.5 -80q0 -59 -42 -95t-125 -36q-74 0 -126 20l9 89q44 -22 109 -22q26 0 43 10.5t17 30.5q0 44 -73 44q-50 0 -83 -12l-14 15l27 206h248l2 -88h-159z" />
    <glyph glyph-name="sixinferior" unicode="&#x2086;" horiz-adv-x="330" 
d="M14 19q0 88 64 150t174 73l26 -81q-59 -5 -104.5 -33t-56.5 -68l3 -1q39 37 91 37q46 0 75 -29.5t29 -80.5q0 -62 -38.5 -100.5t-112.5 -38.5q-72 0 -111 47t-39 125zM116 -17q0 -24 14 -41t38 -17q22 0 35 14.5t13 38.5q0 21 -13 33.5t-34 12.5q-33 0 -51 -16
q-2 -9 -2 -25z" />
    <glyph glyph-name="seveninferior" unicode="&#x2087;" horiz-adv-x="330" 
d="M199 139h-176l2 90h285l-1 -80l-156 -292h-111z" />
    <glyph glyph-name="eightinferior" unicode="&#x2088;" horiz-adv-x="330" 
d="M321 -36q0 -52 -39.5 -84t-118.5 -32q-67 0 -110.5 27.5t-43.5 77.5q0 56 81 80q-75 30 -75 88q0 52 38 83.5t115 31.5q66 0 106.5 -27t40.5 -77q0 -56 -75 -77q81 -31 81 -91zM214 124q0 20 -12.5 31.5t-34.5 11.5t-33.5 -11t-11.5 -29q0 -37 59 -53q33 19 33 50z
M220 -38q0 37 -72 56q-35 -19 -35 -51q0 -20 14 -33t41 -13q52 0 52 41z" />
    <glyph glyph-name="nineinferior" unicode="&#x2089;" horiz-adv-x="330" 
d="M316 66q0 -89 -64.5 -151t-174.5 -73l-25 81q63 9 108 32.5t56 61.5l-3 1q-37 -35 -94 -35q-45 0 -74.5 30.5t-29.5 81.5q0 63 38.5 102.5t112.5 39.5q72 0 111 -46.5t39 -124.5zM214 101q0 24 -14 41t-38 17q-22 0 -35 -14t-13 -38q0 -22 13 -37t34 -15q34 0 51 15
q2 10 2 31z" />
    <glyph glyph-name="Euro" unicode="&#x20ac;" horiz-adv-x="550" 
d="M102 355h-72l-5 70h84q22 114 88 167.5t164 53.5q107 0 175 -39l-30 -115q-59 34 -126 34q-89 0 -114 -101h200l-4 -70h-206q-2 -22 -2 -37q0 -24 3 -46h175l4 -70h-165q28 -97 114 -97q68 0 125 34l23 -116q-60 -38 -174 -38q-214 0 -251 217h-83l5 70h72q-2 24 -2 38
q0 17 2 45z" />
    <glyph glyph-name="trademark" unicode="&#x2122;" horiz-adv-x="982" 
d="M911 252h-97l4 277h-12l-80 -265h-111l-67 266h-11l-3 -278h-91l7 373h170l49 -258h13l61 258h165zM400 538h-137v-286h-101v286h-126v87h364v-87z" />
    <glyph glyph-name="minus" unicode="&#x2212;" horiz-adv-x="526" 
d="M493 181h-459l3 116h453z" />
    <glyph glyph-name="uni2215" unicode="&#x2215;" horiz-adv-x="652" 
d="M643 639l-519 -654h-115l518 654h116z" />
    <glyph glyph-name="approxequal" unicode="&#x2248;" horiz-adv-x="506" 
d="M462 205q-2 -66 -33 -110t-88 -44q-31 0 -91.5 23.5t-72.5 23.5q-32 0 -36 -42h-97q2 66 33 110t88 44q31 0 93 -23.5t71 -23.5q17 0 26 7.5t11 34.5h96zM461 413q-2 -66 -33 -110t-88 -44q-31 0 -91.5 23.5t-72.5 23.5q-32 0 -36 -42h-97q2 66 33 110t88 44
q31 0 93 -23.5t71 -23.5q17 0 26 7.5t11 34.5h96z" />
    <glyph glyph-name="notequal" unicode="&#x2260;" horiz-adv-x="506" 
d="M126 -33l26 101h-110l5 115h135l27 103h-162l-5 115h197l24 91h117l-24 -91h110l-5 -115h-135l-27 -103h162l5 -115h-197l-26 -101h-117z" />
    <glyph glyph-name="lessequal" unicode="&#x2264;" horiz-adv-x="506" 
d="M445 0h-385l3 116h379zM441 253v-122l-381 162v108l381 162v-122l-219 -90v-9z" />
    <glyph glyph-name="greaterequal" unicode="&#x2265;" horiz-adv-x="506" 
d="M446 0h-385l3 116h379zM65 131v122l219 89v9l-219 90v122l381 -162v-108z" />
    <glyph glyph-name="pcircle" unicode="&#x24df;" horiz-adv-x="799" 
d="M399 -59q-154 0 -262 108.5t-108 261.5q0 154 108 263t262 109t262.5 -109t108.5 -263q0 -153 -108.5 -261.5t-262.5 -108.5zM736 311q0 140 -99 240t-238 100t-237.5 -100t-98.5 -240t98.5 -239.5t237.5 -99.5t238 99.5t99 239.5zM596 367q0 -69 -46 -105.5t-129 -36.5
h-38v-100h-122v375h165q82 0 126 -35t44 -98zM478 364q0 53 -67 53h-33v-112l31 1q69 3 69 58z" />
    <glyph glyph-name="commaaccent" unicode="&#xf6c3;" horiz-adv-x="398" 
d="M105 -122q1 29 23 50t55 21q40 0 65.5 -25t25.5 -65q0 -48 -36.5 -86.5t-100.5 -58.5l-34 36q66 37 66 72q0 18 -13 31t-51 25z" />
    <glyph glyph-name="J.alt" horiz-adv-x="430" 
d="M377 210q0 -224 -208 -224q-92 0 -155 41l12 139q67 -48 120 -48q72 0 72 95v412h159v-415z" />
    <glyph glyph-name="a.alt" horiz-adv-x="570" 
d="M360 345q-28 20 -71 20q-48 0 -76 -35.5t-28 -94.5q0 -58 27 -92.5t70 -34.5q45 0 78 33v0v0v0v1v0v1v0v1v0v1v1v1v1v1v1v1v1v1v1v1v1v1v1v1v1v1v1v1v1v1v1v1v1v1v1v1v1v1v1v1v1v1v1v1v1v1v1v1v1v1v2v1v1v1v1v1v2v1v1v1v1v2v1v1v1v2v1v1v2v1v1v2v1v1v2v1v1v2v1v1v2v1v2v1
v2v1v1v2v1v2v1v2v1v2v1v2v1v2v1v2v1v2v2v1v2v1v2v1v2v2v1v2v2v1v2v1v2v2v1v2v2v1v2v2v2v1v2v2v1v2v2v2v1v2v2v2v1v2v2v2v2v1v2v2v2v2v2v1v2v9zM230 -14q-87 0 -143 66t-56 175q0 112 68 182t165 70q62 0 112 -22l138 19v-337q0 -23 7 -29.5t31 -8.5l-15 -110
q-136 -17 -173 65q-61 -70 -134 -70z" />
    <glyph glyph-name="g.alt" horiz-adv-x="570" 
d="M515 44q0 -135 -62.5 -197.5t-189.5 -62.5q-111 0 -198 47l39 119q82 -41 151 -41q51 0 78.5 24t27.5 83v-1v0v0v1v1v1v1v1v1v1v1v1v2v1v1v1v2v1v2v1v2v1v2v9q-51 -56 -127 -56q-87 0 -145 64t-58 173q0 110 68 179.5t164 69.5q65 0 114 -22l138 20v0v0v0v0v-1v0v0v-1v0
v0v-1v0v-1v0v-1v0v-1v-1v0v-1v-1v0v-1v-1v-1v-1v-1v-1v-1v-1v-1v-1v-1v-1v-1v-1v-1v-1v-1v-1v-1v-1v-1v-1v-1v-1v-1v-1v-1v-1v-1v-1v-1v-1v-1v-1v-1v-1v-1v-1v-1v-1v-1v-1v-1v-1v-1v-1v-1v-1v-1v-1v-1v-1v-1v-1v-1v-1v-1v-1v-1v-1v-2v-1v-1v-1v-1v-1v-1v-1v-1v-1v-1v-1v-1
v-1v-2v-1v-1v-1v-1v-1v-1v-1v-2v-1v-1v-1v-1v-1v-2v-1v-1v-1v-1v-2v-1v-1v-1v-1v-2v-1v-1v-1v-2v-1v-1v-1v-2v-1v-1v-2v-1v-1v-1v-2v-1v-1v-2v-1v-1v-2v-1v-1v-2v-1v-1v-2v-1v-1v-2v-1v-1v-2v-1v-2v-1v-1v-2v-1v-2v-1v-1v-2v-1v-2v-1v-2v-1v-1v-2v-1v-2v-1v-2v-1v-2v-1v-2
v-1v-2v-1v-2v-1v-2v-1v-2v-1v-2v-1v-2v-1v-2v-1v-2v-1v-2v-1v-2v-2v-1v-2v-1v-2v-1v-2v-2v-1v-2v-1v-2v-2v-1v-2v-1v-2v-2v-1v-2v-2v-1v-2v-2v-1v-2v-2v-1v-2v-2v-1v-2v-2v-1v-2v-2v-1v-2v-2v-1v-2v-2v-2v-1v-2v-2v-2v-1v-2v-2v-2v-1v-2v-2v-2v-1v-2v-2v-2v-2v-1v-2v-2v-2
v-2v-1v-2v-2v-2v-2v-2v-1v-2v-2v-2v-2v-2v-2v-1v-2v-2v-2v-2v-2v-2v-2v-2v-2v-1v-2v-2v-2v-2v-2v-2v-2v-2v-2v-2v-2v-2v-2v-2v-2v-2v-2v-3v-2v-2v-2v-2v-2v-9zM361 145v0v0v0v1v0v0v1v0v1v0v1v1v1v1v1v1v1v1v1v1v1v1v1v1v1v1v1v1v1v1v1v1v1v1v1v1v1v1v1v1v1v1v1v1v1v1v2v1v1
v1v1v1v1v2v1v1v1v1v2v1v1v1v1v2v1v1v2v1v1v2v1v1v2v1v1v2v1v1v2v1v2v1v1v2v1v2v1v2v1v2v1v2v1v2v1v2v1v2v1v2v1v2v1v2v2v1v2v1v2v2v1v2v1v2v2v1v2v2v1v2v2v1v2v2v2v1v2v2v2v1v2v2v2v1v2v2v2v1v2v2v2v2v2v1v2v2v10q-30 20 -71 20q-49 0 -77 -35t-28 -92q0 -58 27.5 -92
t70.5 -34q45 0 78 33z" />
    <glyph glyph-name="agrave.alt" horiz-adv-x="570" 
d="M360 345q-28 20 -71 20q-48 0 -76 -35.5t-28 -94.5q0 -58 27 -92.5t70 -34.5q45 0 78 33v0v0v0v1v0v1v0v1v0v1v1v1v1v1v1v1v1v1v1v1v1v1v1v1v1v1v1v1v1v1v1v1v1v1v1v1v1v1v1v1v1v1v1v1v1v1v1v1v1v1v2v1v1v1v1v1v2v1v1v1v1v2v1v1v1v2v1v1v2v1v1v2v1v1v2v1v1v2v1v1v2v1v2v1
v2v1v1v2v1v2v1v2v1v2v1v2v1v2v1v2v1v2v2v1v2v1v2v1v2v2v1v2v2v1v2v1v2v2v1v2v2v1v2v2v2v1v2v2v1v2v2v2v1v2v2v2v1v2v2v2v2v1v2v2v2v2v2v1v2v9zM230 -14q-87 0 -143 66t-56 175q0 112 68 182t165 70q62 0 112 -22l138 19v-337q0 -23 7 -29.5t31 -8.5l-15 -110
q-136 -17 -173 65q-61 -70 -134 -70zM418 527h-96l-169 185h166z" />
    <glyph glyph-name="aacute.alt" horiz-adv-x="570" 
d="M514 712l-169 -185h-96l99 185h166zM360 345q-28 20 -71 20q-48 0 -76 -35.5t-28 -94.5q0 -58 27 -92.5t70 -34.5q45 0 78 33v0v0v0v1v0v1v0v1v0v1v1v1v1v1v1v1v1v1v1v1v1v1v1v1v1v1v1v1v1v1v1v1v1v1v1v1v1v1v1v1v1v1v1v1v1v1v1v1v1v1v2v1v1v1v1v1v2v1v1v1v1v2v1v1v1v2v1
v1v2v1v1v2v1v1v2v1v1v2v1v1v2v1v2v1v2v1v1v2v1v2v1v2v1v2v1v2v1v2v1v2v1v2v2v1v2v1v2v1v2v2v1v2v2v1v2v1v2v2v1v2v2v1v2v2v2v1v2v2v1v2v2v2v1v2v2v2v1v2v2v2v2v1v2v2v2v2v2v1v2v9zM230 -14q-87 0 -143 66t-56 175q0 112 68 182t165 70q62 0 112 -22l138 19v-337
q0 -23 7 -29.5t31 -8.5l-15 -110q-136 -17 -173 65q-61 -70 -134 -70z" />
    <glyph glyph-name="acircumflex.alt" horiz-adv-x="570" 
d="M499 527h-105l-83 107h-2l-81 -107h-107l119 187h140zM360 345q-28 20 -71 20q-48 0 -76 -35.5t-28 -94.5q0 -58 27 -92.5t70 -34.5q45 0 78 33v0v0v0v1v0v1v0v1v0v1v1v1v1v1v1v1v1v1v1v1v1v1v1v1v1v1v1v1v1v1v1v1v1v1v1v1v1v1v1v1v1v1v1v1v1v1v1v1v1v1v2v1v1v1v1v1v2v1
v1v1v1v2v1v1v1v2v1v1v2v1v1v2v1v1v2v1v1v2v1v1v2v1v2v1v2v1v1v2v1v2v1v2v1v2v1v2v1v2v1v2v1v2v2v1v2v1v2v1v2v2v1v2v2v1v2v1v2v2v1v2v2v1v2v2v2v1v2v2v1v2v2v2v1v2v2v2v1v2v2v2v2v1v2v2v2v2v2v1v2v9zM230 -14q-87 0 -143 66t-56 175q0 112 68 182t165 70q62 0 112 -22
l138 19v-337q0 -23 7 -29.5t31 -8.5l-15 -110q-136 -17 -173 65q-61 -70 -134 -70z" />
    <glyph glyph-name="atilde.alt" horiz-adv-x="570" 
d="M360 345q-28 20 -71 20q-48 0 -76 -35.5t-28 -94.5q0 -58 27 -92.5t70 -34.5q45 0 78 33v0v0v0v1v0v1v0v1v0v1v1v1v1v1v1v1v1v1v1v1v1v1v1v1v1v1v1v1v1v1v1v1v1v1v1v1v1v1v1v1v1v1v1v1v1v1v1v1v1v1v2v1v1v1v1v1v2v1v1v1v1v2v1v1v1v2v1v1v2v1v1v2v1v1v2v1v1v2v1v1v2v1v2v1
v2v1v1v2v1v2v1v2v1v2v1v2v1v2v1v2v1v2v2v1v2v1v2v1v2v2v1v2v2v1v2v1v2v2v1v2v2v1v2v2v2v1v2v2v1v2v2v2v1v2v2v2v1v2v2v2v2v1v2v2v2v2v2v1v2v9zM230 -14q-87 0 -143 66t-56 175q0 112 68 182t165 70q62 0 112 -22l138 19v-337q0 -23 7 -29.5t31 -8.5l-15 -110
q-136 -17 -173 65q-61 -70 -134 -70zM492 683q-9 -86 -36 -119.5t-74 -33.5q-35 0 -87 28.5t-64 28.5q-13 0 -20.5 -10.5t-11.5 -39.5v0h-1v0h-1h-1h-1h-1h-1h-1h-1h-1h-1h-1h-1h-1h-1h-1h-1h-1h-2h-1h-1h-1h-1h-2h-1h-1h-2h-1h-1h-2h-1h-2h-1h-1h-2h-1h-2h-2h-1h-2h-1h-2
h-2h-1h-2h-2h-1h-2h-2h-2h-2h-1h-2h-2h-2h-2h-2h-2h-2h-9q9 85 35.5 118.5t73.5 33.5q35 0 87.5 -28.5t64.5 -28.5q13 0 20 11t11 40v0h1v0h1h1h1h1h1h1h1h1h1h1h1h1h1h1h1h1h1h1h2h1h1h1h1h2h1h1h2h1h1h2h1h2h1h2h1h2h1h2h1h2h2h1h2h2h1h2h2h1h2h2h2h2h1h2h2h2h2h2h2h8z
" />
    <glyph glyph-name="adieresis.alt" horiz-adv-x="570" 
d="M500 602q0 -37 -21 -57t-58 -20q-36 0 -57.5 20t-21.5 57t21.5 57t57.5 20q37 0 58 -20t21 -57zM268 602q0 -37 -22 -57t-58 -20t-58 20t-22 57t22 57t58 20t58 -20t22 -57zM360 345q-28 20 -71 20q-48 0 -76 -35.5t-28 -94.5q0 -58 27 -92.5t70 -34.5q45 0 78 33v0v0v0
v1v0v1v0v1v0v1v1v1v1v1v1v1v1v1v1v1v1v1v1v1v1v1v1v1v1v1v1v1v1v1v1v1v1v1v1v1v1v1v1v1v1v1v1v1v1v1v2v1v1v1v1v1v2v1v1v1v1v2v1v1v1v2v1v1v2v1v1v2v1v1v2v1v1v2v1v1v2v1v2v1v2v1v1v2v1v2v1v2v1v2v1v2v1v2v1v2v1v2v2v1v2v1v2v1v2v2v1v2v2v1v2v1v2v2v1v2v2v1v2v2v2v1v2v2v1v2
v2v2v1v2v2v2v1v2v2v2v2v1v2v2v2v2v2v1v2v9zM230 -14q-87 0 -143 66t-56 175q0 112 68 182t165 70q62 0 112 -22l138 19v-337q0 -23 7 -29.5t31 -8.5l-15 -110q-136 -17 -173 65q-61 -70 -134 -70z" />
    <glyph glyph-name="aring.alt" horiz-adv-x="570" 
d="M451 640q1 -51 -38 -84.5t-103 -33.5t-102.5 33.5t-38.5 84.5t38.5 84.5t102.5 33.5t102.5 -33.5t38.5 -84.5zM392 641q0 30 -22 49t-60 19q-37 0 -59 -19t-22 -49t22.5 -50t58.5 -20q38 0 60 19.5t22 50.5zM360 345q-28 20 -71 20q-48 0 -76 -35.5t-28 -94.5
q0 -58 27 -92.5t70 -34.5q45 0 78 33v0v0v0v1v0v1v0v1v0v1v1v1v1v1v1v1v1v1v1v1v1v1v1v1v1v1v1v1v1v1v1v1v1v1v1v1v1v1v1v1v1v1v1v1v1v1v1v1v1v1v2v1v1v1v1v1v2v1v1v1v1v2v1v1v1v2v1v1v2v1v1v2v1v1v2v1v1v2v1v1v2v1v2v1v2v1v1v2v1v2v1v2v1v2v1v2v1v2v1v2v1v2v2v1v2v1v2v1v2
v2v1v2v2v1v2v1v2v2v1v2v2v1v2v2v2v1v2v2v1v2v2v2v1v2v2v2v1v2v2v2v2v1v2v2v2v2v2v1v2v9zM230 -14q-87 0 -143 66t-56 175q0 112 68 182t165 70q62 0 112 -22l138 19v-337q0 -23 7 -29.5t31 -8.5l-15 -110q-136 -17 -173 65q-61 -70 -134 -70z" />
    <glyph glyph-name="aringacute.alt" horiz-adv-x="537" 
d="M488 967l-169 -185h-96l99 185h166zM451 640q1 -51 -38 -84.5t-103 -33.5t-102.5 33.5t-38.5 84.5t38.5 84.5t102.5 33.5t102.5 -33.5t38.5 -84.5zM392 641q0 30 -22 49t-60 19q-37 0 -59 -19t-22 -49t22.5 -50t58.5 -20q38 0 60 19.5t22 50.5zM360 345q-28 20 -71 20
q-48 0 -76 -35.5t-28 -94.5q0 -58 27 -92.5t70 -34.5q45 0 78 33v0v0v0v1v0v1v0v1v0v1v1v1v1v1v1v1v1v1v1v1v1v1v1v1v1v1v1v1v1v1v1v1v1v1v1v1v1v1v1v1v1v1v1v1v1v1v1v1v1v1v2v1v1v1v1v1v2v1v1v1v1v2v1v1v1v2v1v1v2v1v1v2v1v1v2v1v1v2v1v1v2v1v2v1v2v1v1v2v1v2v1v2v1v2v1v2
v1v2v1v2v1v2v2v1v2v1v2v1v2v2v1v2v2v1v2v1v2v2v1v2v2v1v2v2v2v1v2v2v1v2v2v2v1v2v2v2v1v2v2v2v2v1v2v2v2v2v2v1v2v9zM230 -14q-87 0 -143 66t-56 175q0 112 68 182t165 70q62 0 112 -22l138 19v-337q0 -23 7 -29.5t31 -8.5l-15 -110q-136 -17 -173 65q-61 -70 -134 -70z" />
    <glyph glyph-name="amacron.alt" horiz-adv-x="570" 
d="M360 345q-28 20 -71 20q-48 0 -76 -35.5t-28 -94.5q0 -58 27 -92.5t70 -34.5q45 0 78 33v0v0v0v1v0v1v0v1v0v1v1v1v1v1v1v1v1v1v1v1v1v1v1v1v1v1v1v1v1v1v1v1v1v1v1v1v1v1v1v1v1v1v1v1v1v1v1v1v1v1v2v1v1v1v1v1v2v1v1v1v1v2v1v1v1v2v1v1v2v1v1v2v1v1v2v1v1v2v1v1v2v1v2v1
v2v1v1v2v1v2v1v2v1v2v1v2v1v2v1v2v1v2v2v1v2v1v2v1v2v2v1v2v2v1v2v1v2v2v1v2v2v1v2v2v2v1v2v2v1v2v2v2v1v2v2v2v1v2v2v2v2v1v2v2v2v2v2v1v2v9zM230 -14q-87 0 -143 66t-56 175q0 112 68 182t165 70q62 0 112 -22l138 19v-337q0 -23 7 -29.5t31 -8.5l-15 -110
q-136 -17 -173 65q-61 -70 -134 -70zM491 549h-364l11 87h342z" />
    <glyph glyph-name="abreve.alt" horiz-adv-x="570" 
d="M360 345q-28 20 -71 20q-48 0 -76 -35.5t-28 -94.5q0 -58 27 -92.5t70 -34.5q45 0 78 33v0v0v0v1v0v1v0v1v0v1v1v1v1v1v1v1v1v1v1v1v1v1v1v1v1v1v1v1v1v1v1v1v1v1v1v1v1v1v1v1v1v1v1v1v1v1v1v1v1v1v2v1v1v1v1v1v2v1v1v1v1v2v1v1v1v2v1v1v2v1v1v2v1v1v2v1v1v2v1v1v2v1v2v1
v2v1v1v2v1v2v1v2v1v2v1v2v1v2v1v2v1v2v2v1v2v1v2v1v2v2v1v2v2v1v2v1v2v2v1v2v2v1v2v2v2v1v2v2v1v2v2v2v1v2v2v2v1v2v2v2v2v1v2v2v2v2v2v1v2v9zM230 -14q-87 0 -143 66t-56 175q0 112 68 182t165 70q62 0 112 -22l138 19v-337q0 -23 7 -29.5t31 -8.5l-15 -110
q-136 -17 -173 65q-61 -70 -134 -70zM498 710q-8 -94 -59 -142t-123 -48q-71 0 -122.5 48.5t-59.5 141.5l93 -1q19 -101 89 -101q72 0 89 101z" />
    <glyph glyph-name="aogonek.alt" horiz-adv-x="570" 
d="M552 101l-15 -110q-51 -5 -83 -26t-31 -48q0 -45 43 -45q30 0 51 13l21 -78q-44 -27 -105 -27q-54 0 -87 27.5t-33 74.5q0 41 26 73.5t68 51.5q-28 15 -43 49q-61 -70 -134 -70q-87 0 -143 66t-56 175q0 112 68 182t165 70q62 0 112 -22l138 19v-337q0 -23 7 -29.5
t31 -8.5zM360 345q-28 20 -71 20q-48 0 -76 -35.5t-28 -94.5q0 -58 27 -92.5t70 -34.5q45 0 78 33v204z" />
    <glyph glyph-name="gcircumflex.alt" horiz-adv-x="570" 
d="M486 527h-105l-83 107h-2l-81 -107h-107l119 187h140zM515 44q0 -135 -62.5 -197.5t-189.5 -62.5q-111 0 -198 47l39 119q82 -41 151 -41q51 0 78.5 24t27.5 83v-1v0v0v1v1v1v1v1v1v1v1v1v2v1v1v1v2v1v2v1v2v1v2v9q-51 -56 -127 -56q-87 0 -145 64t-58 173
q0 110 68 179.5t164 69.5q65 0 114 -22l138 20v0v0v0v0v-1v0v0v-1v0v0v-1v0v-1v0v-1v0v-1v-1v0v-1v-1v0v-1v-1v-1v-1v-1v-1v-1v-1v-1v-1v-1v-1v-1v-1v-1v-1v-1v-1v-1v-1v-1v-1v-1v-1v-1v-1v-1v-1v-1v-1v-1v-1v-1v-1v-1v-1v-1v-1v-1v-1v-1v-1v-1v-1v-1v-1v-1v-1v-1v-1v-1v-1
v-1v-1v-1v-1v-1v-1v-1v-1v-2v-1v-1v-1v-1v-1v-1v-1v-1v-1v-1v-1v-1v-1v-2v-1v-1v-1v-1v-1v-1v-1v-2v-1v-1v-1v-1v-1v-2v-1v-1v-1v-1v-2v-1v-1v-1v-1v-2v-1v-1v-1v-2v-1v-1v-1v-2v-1v-1v-2v-1v-1v-1v-2v-1v-1v-2v-1v-1v-2v-1v-1v-2v-1v-1v-2v-1v-1v-2v-1v-1v-2v-1v-2v-1v-1
v-2v-1v-2v-1v-1v-2v-1v-2v-1v-2v-1v-1v-2v-1v-2v-1v-2v-1v-2v-1v-2v-1v-2v-1v-2v-1v-2v-1v-2v-1v-2v-1v-2v-1v-2v-1v-2v-1v-2v-1v-2v-2v-1v-2v-1v-2v-1v-2v-2v-1v-2v-1v-2v-2v-1v-2v-1v-2v-2v-1v-2v-2v-1v-2v-2v-1v-2v-2v-1v-2v-2v-1v-2v-2v-1v-2v-2v-1v-2v-2v-1v-2v-2v-2
v-1v-2v-2v-2v-1v-2v-2v-2v-1v-2v-2v-2v-1v-2v-2v-2v-2v-1v-2v-2v-2v-2v-1v-2v-2v-2v-2v-2v-1v-2v-2v-2v-2v-2v-2v-1v-2v-2v-2v-2v-2v-2v-2v-2v-2v-1v-2v-2v-2v-2v-2v-2v-2v-2v-2v-2v-2v-2v-2v-2v-2v-2v-2v-3v-2v-2v-2v-2v-2v-9zM361 145v0v0v0v1v0v0v1v0v1v0v1v1v1v1v1v1v1
v1v1v1v1v1v1v1v1v1v1v1v1v1v1v1v1v1v1v1v1v1v1v1v1v1v1v1v1v1v2v1v1v1v1v1v1v2v1v1v1v1v2v1v1v1v1v2v1v1v2v1v1v2v1v1v2v1v1v2v1v1v2v1v2v1v1v2v1v2v1v2v1v2v1v2v1v2v1v2v1v2v1v2v1v2v1v2v2v1v2v1v2v2v1v2v1v2v2v1v2v2v1v2v2v1v2v2v2v1v2v2v2v1v2v2v2v1v2v2v2v1v2v2v2v2v2v1
v2v2v10q-30 20 -71 20q-49 0 -77 -35t-28 -92q0 -58 27.5 -92t70.5 -34q45 0 78 33z" />
    <glyph glyph-name="gbreve.alt" horiz-adv-x="570" 
d="M515 44q0 -135 -62.5 -197.5t-189.5 -62.5q-111 0 -198 47l39 119q82 -41 151 -41q51 0 78.5 24t27.5 83v-1v0v0v1v1v1v1v1v1v1v1v1v2v1v1v1v2v1v2v1v2v1v2v9q-51 -56 -127 -56q-87 0 -145 64t-58 173q0 110 68 179.5t164 69.5q65 0 114 -22l138 20v0v0v0v0v-1v0v0v-1v0
v0v-1v0v-1v0v-1v0v-1v-1v0v-1v-1v0v-1v-1v-1v-1v-1v-1v-1v-1v-1v-1v-1v-1v-1v-1v-1v-1v-1v-1v-1v-1v-1v-1v-1v-1v-1v-1v-1v-1v-1v-1v-1v-1v-1v-1v-1v-1v-1v-1v-1v-1v-1v-1v-1v-1v-1v-1v-1v-1v-1v-1v-1v-1v-1v-1v-1v-1v-1v-1v-1v-1v-2v-1v-1v-1v-1v-1v-1v-1v-1v-1v-1v-1v-1
v-1v-2v-1v-1v-1v-1v-1v-1v-1v-2v-1v-1v-1v-1v-1v-2v-1v-1v-1v-1v-2v-1v-1v-1v-1v-2v-1v-1v-1v-2v-1v-1v-1v-2v-1v-1v-2v-1v-1v-1v-2v-1v-1v-2v-1v-1v-2v-1v-1v-2v-1v-1v-2v-1v-1v-2v-1v-1v-2v-1v-2v-1v-1v-2v-1v-2v-1v-1v-2v-1v-2v-1v-2v-1v-1v-2v-1v-2v-1v-2v-1v-2v-1v-2
v-1v-2v-1v-2v-1v-2v-1v-2v-1v-2v-1v-2v-1v-2v-1v-2v-1v-2v-1v-2v-2v-1v-2v-1v-2v-1v-2v-2v-1v-2v-1v-2v-2v-1v-2v-1v-2v-2v-1v-2v-2v-1v-2v-2v-1v-2v-2v-1v-2v-2v-1v-2v-2v-1v-2v-2v-1v-2v-2v-1v-2v-2v-2v-1v-2v-2v-2v-1v-2v-2v-2v-1v-2v-2v-2v-1v-2v-2v-2v-2v-1v-2v-2v-2
v-2v-1v-2v-2v-2v-2v-2v-1v-2v-2v-2v-2v-2v-2v-1v-2v-2v-2v-2v-2v-2v-2v-2v-2v-1v-2v-2v-2v-2v-2v-2v-2v-2v-2v-2v-2v-2v-2v-2v-2v-2v-2v-3v-2v-2v-2v-2v-2v-9zM361 145v0v0v0v1v0v0v1v0v1v0v1v1v1v1v1v1v1v1v1v1v1v1v1v1v1v1v1v1v1v1v1v1v1v1v1v1v1v1v1v1v1v1v1v1v1v1v2v1v1
v1v1v1v1v2v1v1v1v1v2v1v1v1v1v2v1v1v2v1v1v2v1v1v2v1v1v2v1v1v2v1v2v1v1v2v1v2v1v2v1v2v1v2v1v2v1v2v1v2v1v2v1v2v1v2v2v1v2v1v2v2v1v2v1v2v2v1v2v2v1v2v2v1v2v2v2v1v2v2v2v1v2v2v2v1v2v2v2v1v2v2v2v2v2v1v2v2v10q-30 20 -71 20q-49 0 -77 -35t-28 -92q0 -58 27.5 -92
t70.5 -34q45 0 78 33zM482 710q-8 -94 -59 -142t-123 -48q-71 0 -122.5 48.5t-59.5 141.5l93 -1q19 -101 89 -101q72 0 89 101z" />
    <glyph glyph-name="gdotaccent.alt" horiz-adv-x="570" 
d="M515 44q0 -135 -62.5 -197.5t-189.5 -62.5q-111 0 -198 47l39 119q82 -41 151 -41q51 0 78.5 24t27.5 83v-1v0v0v1v1v1v1v1v1v1v1v1v2v1v1v1v2v1v2v1v2v1v2v9q-51 -56 -127 -56q-87 0 -145 64t-58 173q0 110 68 179.5t164 69.5q65 0 114 -22l138 20v0v0v0v0v-1v0v0v-1v0
v0v-1v0v-1v0v-1v0v-1v-1v0v-1v-1v0v-1v-1v-1v-1v-1v-1v-1v-1v-1v-1v-1v-1v-1v-1v-1v-1v-1v-1v-1v-1v-1v-1v-1v-1v-1v-1v-1v-1v-1v-1v-1v-1v-1v-1v-1v-1v-1v-1v-1v-1v-1v-1v-1v-1v-1v-1v-1v-1v-1v-1v-1v-1v-1v-1v-1v-1v-1v-1v-1v-1v-2v-1v-1v-1v-1v-1v-1v-1v-1v-1v-1v-1v-1
v-1v-2v-1v-1v-1v-1v-1v-1v-1v-2v-1v-1v-1v-1v-1v-2v-1v-1v-1v-1v-2v-1v-1v-1v-1v-2v-1v-1v-1v-2v-1v-1v-1v-2v-1v-1v-2v-1v-1v-1v-2v-1v-1v-2v-1v-1v-2v-1v-1v-2v-1v-1v-2v-1v-1v-2v-1v-1v-2v-1v-2v-1v-1v-2v-1v-2v-1v-1v-2v-1v-2v-1v-2v-1v-1v-2v-1v-2v-1v-2v-1v-2v-1v-2
v-1v-2v-1v-2v-1v-2v-1v-2v-1v-2v-1v-2v-1v-2v-1v-2v-1v-2v-1v-2v-2v-1v-2v-1v-2v-1v-2v-2v-1v-2v-1v-2v-2v-1v-2v-1v-2v-2v-1v-2v-2v-1v-2v-2v-1v-2v-2v-1v-2v-2v-1v-2v-2v-1v-2v-2v-1v-2v-2v-1v-2v-2v-2v-1v-2v-2v-2v-1v-2v-2v-2v-1v-2v-2v-2v-1v-2v-2v-2v-2v-1v-2v-2v-2
v-2v-1v-2v-2v-2v-2v-2v-1v-2v-2v-2v-2v-2v-2v-1v-2v-2v-2v-2v-2v-2v-2v-2v-2v-1v-2v-2v-2v-2v-2v-2v-2v-2v-2v-2v-2v-2v-2v-2v-2v-2v-2v-3v-2v-2v-2v-2v-2v-9zM361 145v0v0v0v1v0v0v1v0v1v0v1v1v1v1v1v1v1v1v1v1v1v1v1v1v1v1v1v1v1v1v1v1v1v1v1v1v1v1v1v1v1v1v1v1v1v1v2v1v1
v1v1v1v1v2v1v1v1v1v2v1v1v1v1v2v1v1v2v1v1v2v1v1v2v1v1v2v1v1v2v1v2v1v1v2v1v2v1v2v1v2v1v2v1v2v1v2v1v2v1v2v1v2v1v2v2v1v2v1v2v2v1v2v1v2v2v1v2v2v1v2v2v1v2v2v2v1v2v2v2v1v2v2v2v1v2v2v2v1v2v2v2v2v2v1v2v2v10q-30 20 -71 20q-49 0 -77 -35t-28 -92q0 -58 27.5 -92
t70.5 -34q45 0 78 33zM385 600q0 -37 -23 -62t-61 -25q-37 0 -60.5 25t-23.5 62q0 36 23.5 61.5t60.5 25.5q38 0 61 -25.5t23 -61.5z" />
    <glyph glyph-name="gcommaaccent.alt" horiz-adv-x="570" 
d="M385 597q-1 -29 -23 -50t-55 -21q-40 0 -65.5 25t-25.5 65q0 48 36.5 86.5t100.5 58.5l34 -36q-66 -37 -66 -72q0 -18 13 -31t51 -25zM515 44q0 -135 -62.5 -197.5t-189.5 -62.5q-111 0 -198 47l39 119q82 -41 151 -41q51 0 78.5 24t27.5 83v-1v0v0v1v1v1v1v1v1v1v1v1v2
v1v1v1v2v1v2v1v2v1v2v9q-51 -56 -127 -56q-87 0 -145 64t-58 173q0 110 68 179.5t164 69.5q65 0 114 -22l138 20v0v0v0v0v-1v0v0v-1v0v0v-1v0v-1v0v-1v0v-1v-1v0v-1v-1v0v-1v-1v-1v-1v-1v-1v-1v-1v-1v-1v-1v-1v-1v-1v-1v-1v-1v-1v-1v-1v-1v-1v-1v-1v-1v-1v-1v-1v-1v-1v-1v-1
v-1v-1v-1v-1v-1v-1v-1v-1v-1v-1v-1v-1v-1v-1v-1v-1v-1v-1v-1v-1v-1v-1v-1v-1v-1v-1v-1v-1v-2v-1v-1v-1v-1v-1v-1v-1v-1v-1v-1v-1v-1v-1v-2v-1v-1v-1v-1v-1v-1v-1v-2v-1v-1v-1v-1v-1v-2v-1v-1v-1v-1v-2v-1v-1v-1v-1v-2v-1v-1v-1v-2v-1v-1v-1v-2v-1v-1v-2v-1v-1v-1v-2v-1v-1
v-2v-1v-1v-2v-1v-1v-2v-1v-1v-2v-1v-1v-2v-1v-1v-2v-1v-2v-1v-1v-2v-1v-2v-1v-1v-2v-1v-2v-1v-2v-1v-1v-2v-1v-2v-1v-2v-1v-2v-1v-2v-1v-2v-1v-2v-1v-2v-1v-2v-1v-2v-1v-2v-1v-2v-1v-2v-1v-2v-1v-2v-2v-1v-2v-1v-2v-1v-2v-2v-1v-2v-1v-2v-2v-1v-2v-1v-2v-2v-1v-2v-2v-1v-2
v-2v-1v-2v-2v-1v-2v-2v-1v-2v-2v-1v-2v-2v-1v-2v-2v-1v-2v-2v-2v-1v-2v-2v-2v-1v-2v-2v-2v-1v-2v-2v-2v-1v-2v-2v-2v-2v-1v-2v-2v-2v-2v-1v-2v-2v-2v-2v-2v-1v-2v-2v-2v-2v-2v-2v-1v-2v-2v-2v-2v-2v-2v-2v-2v-2v-1v-2v-2v-2v-2v-2v-2v-2v-2v-2v-2v-2v-2v-2v-2v-2v-2v-2v-3
v-2v-2v-2v-2v-2v-9zM361 145v0v0v0v1v0v0v1v0v1v0v1v1v1v1v1v1v1v1v1v1v1v1v1v1v1v1v1v1v1v1v1v1v1v1v1v1v1v1v1v1v1v1v1v1v1v1v2v1v1v1v1v1v1v2v1v1v1v1v2v1v1v1v1v2v1v1v2v1v1v2v1v1v2v1v1v2v1v1v2v1v2v1v1v2v1v2v1v2v1v2v1v2v1v2v1v2v1v2v1v2v1v2v1v2v2v1v2v1v2v2v1v2v1
v2v2v1v2v2v1v2v2v1v2v2v2v1v2v2v2v1v2v2v2v1v2v2v2v1v2v2v2v2v2v1v2v2v10q-30 20 -71 20q-49 0 -77 -35t-28 -92q0 -58 27.5 -92t70.5 -34q45 0 78 33z" />
    <glyph glyph-name="Jcircumflex.alt" horiz-adv-x="430" 
d="M482 687h-105l-83 107h-2l-81 -107h-107l119 187h140zM377 210q0 -224 -208 -224q-92 0 -155 41l12 139q67 -48 120 -48q72 0 72 95v412h159v-415z" />
    <glyph glyph-name="dot" horiz-adv-x="273" 
d="M234 256q0 -41 -26 -66t-68 -25q-43 0 -69 25t-26 66t26 66t69 25q42 0 68 -25t26 -66z" />
    <glyph glyph-name="a.smallcap" horiz-adv-x="564" 
d="M382 479l161 -479h-149l-31 89h-164l-27 -89h-152l164 479h198zM339 190l-58 187l-58 -187h116z" />
    <glyph glyph-name="b.smallcap" horiz-adv-x="529" 
d="M399 248q41 -12 67 -42t26 -70q0 -136 -198 -136h-236v479h232q187 0 187 -128q0 -67 -78 -103zM333 330q0 25 -18 36.5t-59 11.5h-57v-100h54q44 0 62 12.5t18 39.5zM350 152q0 26 -21.5 37.5t-68.5 11.5h-61v-100h61q50 0 70 11t20 40z" />
    <glyph glyph-name="c.smallcap" horiz-adv-x="498" 
d="M469 459l-46 -127q-55 32 -115 32q-53 0 -83.5 -33.5t-30.5 -89.5q0 -59 29 -92.5t85 -33.5q63 0 122 34l33 -131q-64 -32 -162 -32q-122 0 -191.5 64.5t-69.5 187.5q0 117 70.5 185.5t196.5 68.5q82 0 162 -33z" />
    <glyph glyph-name="d.smallcap" horiz-adv-x="571" 
d="M531 242q0 -112 -73.5 -177t-207.5 -65h-192v479h202q129 0 200 -64t71 -173zM377 238q0 63 -33.5 93.5t-88.5 30.5h-44v-246h45q54 0 87.5 31.5t33.5 90.5z" />
    <glyph glyph-name="e.smallcap" horiz-adv-x="478" 
d="M432 0h-374v479h374v-112h-232v-75h193v-104h-193v-76h232v-112z" />
    <glyph glyph-name="f.smallcap" horiz-adv-x="460" 
d="M58 0v479h367v-112h-224v-84h184v-106h-178v-177h-149z" />
    <glyph glyph-name="g.smallcap" horiz-adv-x="555" 
d="M187 242q0 -142 125 -142q48 0 75 12v63h-111v102h232v-245q-92 -46 -201 -46q-123 0 -195 65.5t-72 186.5q0 118 74 186t194 68q53 0 107 -11.5t85 -29.5l-44 -116q-75 36 -138 36q-61 0 -96 -33t-35 -96z" />
    <glyph glyph-name="h.smallcap" horiz-adv-x="585" 
d="M527 0h-153v185h-163v-185h-153v479h153v-181h163v181h153v-479z" />
    <glyph glyph-name="i.smallcap" horiz-adv-x="269" 
d="M211 0h-153v479h153v-479z" />
    <glyph glyph-name="j.smallcap" horiz-adv-x="409" 
d="M359 182q0 -94 -47.5 -145t-139.5 -51q-90 0 -160 40l33 118q51 -33 94 -33q37 0 52 19.5t15 63.5v285h153v-297z" />
    <glyph glyph-name="j.smallcap.alt" horiz-adv-x="366" 
d="M324 176q0 -187 -174 -187q-88 0 -136 34l10 131q54 -39 94 -39q28 0 40 14.5t12 49.5v300h154v-303z" />
    <glyph glyph-name="k.smallcap" horiz-adv-x="537" 
d="M211 277h1l134 202h170l-170 -230l177 -249h-180l-131 202h-1v-202h-153v479h153v-202z" />
    <glyph glyph-name="l.smallcap" horiz-adv-x="452" 
d="M425 0h-367v479h153v-355h214v-124z" />
    <glyph glyph-name="m.smallcap" horiz-adv-x="724" 
d="M678 0h-143l-6 328l-86 -328h-164l-86 334l-5 -334h-141l15 479h219l83 -333l82 333h216z" />
    <glyph glyph-name="n.smallcap" horiz-adv-x="591" 
d="M395 209l-1 270h140v-484h-160l-178 274v-269h-138v479h160z" />
    <glyph glyph-name="o.smallcap" horiz-adv-x="597" 
d="M557 241q0 -114 -75 -184.5t-185 -70.5q-112 0 -184.5 65.5t-72.5 186.5q0 115 74.5 184.5t184.5 69.5q113 0 185.5 -65.5t72.5 -185.5zM406 238q0 64 -28 101.5t-81 37.5q-52 0 -79.5 -37t-27.5 -99q0 -64 28.5 -102t81.5 -38q52 0 79 37.5t27 99.5z" />
    <glyph glyph-name="p.smallcap" horiz-adv-x="516" 
d="M482 309q0 -88 -58.5 -134t-163.5 -46h-49v-129h-153v479h210q102 0 158 -45t56 -125zM336 305q0 69 -87 69h-44v-145l40 2q91 3 91 74z" />
    <glyph glyph-name="q.smallcap" horiz-adv-x="597" 
d="M459 42l111 -45l-59 -119l-209 110h-5q-113 0 -185 65t-72 185q0 115 74.5 184.5t184.5 69.5q113 0 185.5 -65.5t72.5 -185.5q0 -64 -26 -116t-72 -83zM406 238q0 64 -28 101.5t-81 37.5q-52 0 -79.5 -37t-27.5 -99q0 -64 28.5 -102t81.5 -38q52 0 79 37.5t27 99.5z" />
    <glyph glyph-name="r.smallcap" horiz-adv-x="536" 
d="M208 153v-153h-150v479h228q99 0 152 -42t53 -115q0 -46 -23.5 -82t-68.5 -54l111 -186h-161l-84 156zM207 244l52 1q80 2 80 68q0 63 -82 63h-50v-132z" />
    <glyph glyph-name="s.smallcap" horiz-adv-x="482" 
d="M238 101q69 0 69 37q0 21 -49 35q-6 2 -56 15q-31 8 -55.5 17.5t-50.5 26t-40.5 43.5t-14.5 62q0 72 50.5 113.5t147.5 41.5q112 0 194 -42l-24 -118q-87 41 -164 41q-58 0 -58 -32q0 -6 3 -10.5t9.5 -8.5t12.5 -7t17 -6.5t18.5 -5.5t20.5 -5t20 -5q70 -17 113 -49
t43 -94q0 -74 -55 -119t-157 -45q-117 0 -198 44l23 117q90 -46 181 -46z" />
    <glyph glyph-name="t.smallcap" horiz-adv-x="505" 
d="M481 355h-152v-355h-154v355h-150v124h456v-124z" />
    <glyph glyph-name="u.smallcap" horiz-adv-x="552" 
d="M503 201q0 -107 -62 -161t-165 -54q-102 0 -164.5 49.5t-62.5 153.5v290h153v-273q0 -93 76 -93q38 0 55.5 21t17.5 69v276h152v-278z" />
    <glyph glyph-name="v.smallcap" horiz-adv-x="539" 
d="M526 479l-160 -479h-194l-159 479h151l105 -346l106 346h151z" />
    <glyph glyph-name="w.smallcap" horiz-adv-x="785" 
d="M392 316l-84 -316h-156l-130 479h159l59 -315l72 315h164l73 -315l59 315h155l-130 -479h-157z" />
    <glyph glyph-name="x.smallcap" horiz-adv-x="537" 
d="M267 153l-88 -153h-165l163 239l-158 240h169l80 -145l84 145h166l-159 -235l163 -244h-168z" />
    <glyph glyph-name="y.smallcap" horiz-adv-x="513" 
d="M498 479l-166 -303v-176h-150v177l-167 302h159l83 -178l81 178h160z" />
    <glyph glyph-name="z.smallcap" horiz-adv-x="503" 
d="M452 0h-418v97l229 261h-224v121h414v-99l-227 -259h226v-121z" />
    <glyph glyph-name="fi.smallcap" horiz-adv-x="729" 
d="M671 0h-153v479h153v-479zM58 0v479h367v-112h-224v-84h184v-106h-178v-177h-149z" />
    <glyph glyph-name="fl.smallcap" horiz-adv-x="912" 
d="M884 0h-366v479h153v-355h213v-124zM58 0v479h367v-112h-224v-84h184v-106h-178v-177h-149z" />
    <glyph glyph-name="ff.smallcap" horiz-adv-x="920" 
d="M518 0v479h366v-112h-223v-84h184v-106h-178v-177h-149zM58 0v479h367v-112h-224v-84h184v-106h-178v-177h-149z" />
    <glyph glyph-name="ffi.smallcap" horiz-adv-x="1189" 
d="M1131 0h-153v479h153v-479zM518 0v479h366v-112h-223v-84h184v-106h-178v-177h-149zM58 0v479h367v-112h-224v-84h184v-106h-178v-177h-149z" />
    <glyph glyph-name="ffl.smallcap" horiz-adv-x="1372" 
d="M1344 0h-366v479h153v-355h213v-124zM518 0v479h366v-112h-223v-84h184v-106h-178v-177h-149zM58 0v479h367v-112h-224v-84h184v-106h-178v-177h-149z" />
    <glyph glyph-name="germandbls.smallcap" horiz-adv-x="965" 
d="M721 101q69 0 69 37q0 21 -49 35q-6 2 -56 15q-31 8 -55.5 17.5t-50.5 26t-40.5 43.5t-14.5 62q0 72 50.5 113.5t147.5 41.5q112 0 194 -42l-24 -118q-87 41 -164 41q-58 0 -58 -32q0 -6 3 -10.5t9.5 -8.5t12.5 -7t17 -6.5t18.5 -5.5t20.5 -5t20 -5q70 -17 113 -49
t43 -94q0 -74 -55 -119t-156 -45q-119 0 -198 44l22 117q90 -46 181 -46zM239 101q69 0 69 37q0 16 -19 24.5t-68 20.5q-12 3 -19 5q-160 39 -160 149q0 72 50.5 113.5t146.5 41.5q112 0 194 -42l-23 -118q-89 41 -164 41q-58 0 -58 -32q0 -6 3 -10.5t9.5 -8.5t12.5 -7
t17 -6.5t18.5 -5.5t20 -5t19.5 -5q70 -17 113 -49t43 -94q0 -74 -55 -119t-156 -45q-119 0 -198 44l22 117q92 -46 182 -46z" />
    <glyph glyph-name="agrave.smallcap" horiz-adv-x="562" 
d="M342 527h-96l-169 185h166zM382 479l161 -479h-149l-31 89h-164l-27 -89h-152l164 479h198zM339 190l-58 187l-58 -187h116z" />
    <glyph glyph-name="aacute.smallcap" horiz-adv-x="562" 
d="M382 479l161 -479h-149l-31 89h-164l-27 -89h-152l164 479h198zM339 190l-58 187l-58 -187h116zM485 712l-169 -185h-96l99 185h166z" />
    <glyph glyph-name="acircumflex.smallcap" horiz-adv-x="562" 
d="M382 479l161 -479h-149l-31 89h-164l-27 -89h-152l164 479h198zM339 190l-58 187l-58 -187h116zM470 527h-105l-83 107h-2l-81 -107h-107l119 187h140z" />
    <glyph glyph-name="atilde.smallcap" horiz-adv-x="562" 
d="M382 479l161 -479h-149l-31 89h-164l-27 -89h-152l164 479h198zM339 190l-58 187l-58 -187h116zM472 683q-9 -86 -36 -119.5t-74 -33.5q-35 0 -87 28.5t-64 28.5q-14 0 -21 -10.5t-11 -39.5v0h-1v0h-1h-1h-1h-1h-1h-1h-1h-1h-1h-1h-1h-1h-1h-1h-1h-1h-2h-1h-1h-1h-1h-2
h-1h-1h-2h-1h-1h-2h-1h-2h-1h-1h-2h-1h-2h-2h-1h-2h-1h-2h-2h-1h-2h-2h-1h-2h-2h-2h-2h-1h-2h-2h-2h-2h-2h-2h-2h-9q9 85 35.5 118.5t73.5 33.5q35 0 87.5 -28.5t64.5 -28.5q13 0 20 11t11 40v0h1v0h1h1h1h1h1h1h1h1h1h1h1h1h1h1h1h1h1h1h2h1h1h1h1h2h1h1h2h1h1h2h1h2h1h2h1
h2h1h2h1h2h2h1h2h2h1h2h2h1h2h2h2h2h1h2h2h2h2h2h2h8z" />
    <glyph glyph-name="adieresis.smallcap" horiz-adv-x="562" 
d="M382 479l161 -479h-149l-31 89h-164l-27 -89h-152l164 479h198zM339 190l-58 187l-58 -187h116zM476 608q0 -37 -21 -57t-58 -20q-36 0 -57.5 20t-21.5 57t21.5 57t57.5 20q37 0 58 -20t21 -57zM244 608q0 -37 -22 -57t-58 -20t-58 20t-22 57t22 57t58 20t58 -20t22 -57z
" />
    <glyph glyph-name="aring.smallcap" horiz-adv-x="562" 
d="M179 467q-39 30 -39 80q0 51 38.5 84.5t102.5 33.5t102 -33.5t39 -84.5q0 -50 -37 -79l157 -468h-149l-31 89h-164l-27 -89h-152zM363 548q0 30 -22 49t-60 19q-37 0 -59 -19t-22 -49q0 -31 22 -50.5t59 -19.5q38 0 60 19.5t22 50.5zM337 190l-57 187l-58 -187h115z" />
    <glyph glyph-name="aringacute.smallcap" horiz-adv-x="563" 
d="M446 880l-169 -185h-96l99 185h166zM179 467q-39 30 -39 80q0 51 38.5 84.5t102.5 33.5t102 -33.5t39 -84.5q0 -50 -37 -79l157 -468h-149l-31 89h-164l-27 -89h-152zM363 548q0 30 -22 49t-60 19q-37 0 -59 -19t-22 -49q0 -31 22 -50.5t59 -19.5q38 0 60 19.5t22 50.5z
M337 190l-57 187l-58 -187h115z" />
    <glyph glyph-name="amacron.smallcap" horiz-adv-x="565" 
d="M382 479l161 -479h-149l-31 89h-164l-27 -89h-152l164 479h198zM339 190l-58 187l-58 -187h116zM465 549h-364l11 87h342z" />
    <glyph glyph-name="abreve.smallcap" horiz-adv-x="565" 
d="M382 479l161 -479h-149l-31 89h-164l-27 -89h-152l164 479h198zM339 190l-58 187l-58 -187h116zM465 710q-8 -94 -59 -142t-123 -48q-71 0 -122.5 48.5t-59.5 141.5l93 -1q19 -101 89 -101q72 0 89 101z" />
    <glyph glyph-name="aogonek.smallcap" horiz-adv-x="565" 
d="M383 479l161 -479q-53 -6 -87 -28.5t-34 -54.5q0 -45 43 -45q30 0 51 13l22 -78q-44 -27 -105 -27q-55 0 -88 27.5t-33 74.5q0 75 81 118l-30 88h-164l-27 -88h-153l164 479h199zM339 190l-57 187l-58 -187h115z" />
    <glyph glyph-name="ae.smallcap" horiz-adv-x="779" 
d="M215 89l-43 -89h-153l240 479h474v-112h-232v-74h193v-106h-193v-75h232v-112h-374v89h-144zM261 190h98v209z" />
    <glyph glyph-name="aeacute.smallcap" horiz-adv-x="780" 
d="M661 712l-169 -185h-96l99 185h166zM215 89l-43 -89h-153l240 479h474v-112h-232v-74h193v-106h-193v-75h232v-112h-374v89h-144zM261 190h98v209z" />
    <glyph glyph-name="ccedilla.smallcap" horiz-adv-x="501" 
d="M247 -10q-98 13 -152.5 76t-54.5 172q0 117 70.5 185.5t196.5 68.5q82 0 162 -33l-46 -127q-55 32 -115 32q-53 0 -83.5 -33.5t-30.5 -89.5q0 -59 29 -92.5t85 -33.5q63 0 122 34l33 -131q-54 -27 -145 -32l-42 -37q54 -2 90.5 -28.5t36.5 -70.5q0 -109 -199 -133l-8 71
q117 5 117 52q0 52 -116 43l-10 51z" />
    <glyph glyph-name="cacute.smallcap" horiz-adv-x="498" 
d="M464 712l-169 -185h-96l99 185h166zM469 459l-46 -127q-55 32 -115 32q-53 0 -83.5 -33.5t-30.5 -89.5q0 -59 29 -92.5t85 -33.5q63 0 122 34l33 -131q-64 -32 -162 -32q-122 0 -191.5 64.5t-69.5 187.5q0 117 70.5 185.5t196.5 68.5q82 0 162 -33z" />
    <glyph glyph-name="ccircumflex.smallcap" horiz-adv-x="498" 
d="M475 527h-105l-83 107h-2l-81 -107h-107l119 187h140zM469 459l-46 -127q-55 32 -115 32q-53 0 -83.5 -33.5t-30.5 -89.5q0 -59 29 -92.5t85 -33.5q63 0 122 34l33 -131q-64 -32 -162 -32q-122 0 -191.5 64.5t-69.5 187.5q0 117 70.5 185.5t196.5 68.5q82 0 162 -33z" />
    <glyph glyph-name="cdotaccent.smallcap" horiz-adv-x="498" 
d="M469 459l-46 -127q-55 32 -115 32q-53 0 -83.5 -33.5t-30.5 -89.5q0 -59 29 -92.5t85 -33.5q63 0 122 34l33 -131q-64 -32 -162 -32q-122 0 -191.5 64.5t-69.5 187.5q0 117 70.5 185.5t196.5 68.5q82 0 162 -33zM374 606q0 -37 -23 -62t-61 -25q-37 0 -60.5 25t-23.5 62
q0 36 23.5 61.5t60.5 25.5q38 0 61 -25.5t23 -61.5z" />
    <glyph glyph-name="ccaron.smallcap" horiz-adv-x="498" 
d="M478 714l-119 -187h-140l-119 187h105l83 -108h2l81 108h107zM469 459l-46 -127q-55 32 -115 32q-53 0 -83.5 -33.5t-30.5 -89.5q0 -59 29 -92.5t85 -33.5q63 0 122 34l33 -131q-64 -32 -162 -32q-122 0 -191.5 64.5t-69.5 187.5q0 117 70.5 185.5t196.5 68.5
q82 0 162 -33z" />
    <glyph glyph-name="dcaron.smallcap" horiz-adv-x="572" 
d="M442 714l-119 -187h-141l-119 187h106l82 -108h3l80 108h108zM531 242q0 -112 -73.5 -177t-207.5 -65h-192v479h202q129 0 200 -64t71 -173zM377 238q0 63 -33.5 93.5t-88.5 30.5h-44v-246h45q54 0 87.5 31.5t33.5 90.5z" />
    <glyph glyph-name="eth.smallcap" horiz-adv-x="611" 
d="M570 242q0 -112 -73 -177t-207 -65h-193v186h-76v108h76v185h203q129 0 199.5 -64t70.5 -173zM417 238q0 63 -34.5 96.5t-88.5 33.5h-50v-77h87v-101h-87v-79h51q54 0 88 33.5t34 93.5z" />
    <glyph glyph-name="dcroat.smallcap" horiz-adv-x="611" 
d="M570 242q0 -112 -73 -177t-207 -65h-193v186h-76v108h76v185h203q129 0 199.5 -64t70.5 -173zM417 238q0 63 -34.5 96.5t-88.5 33.5h-50v-77h87v-101h-87v-79h51q54 0 88 33.5t34 93.5z" />
    <glyph glyph-name="egrave.smallcap" horiz-adv-x="478" 
d="M310 527h-96l-169 185h166zM432 0h-374v479h374v-112h-232v-75h193v-104h-193v-76h232v-112z" />
    <glyph glyph-name="eacute.smallcap" horiz-adv-x="478" 
d="M432 0h-374v479h374v-112h-232v-75h193v-104h-193v-76h232v-112zM453 712l-169 -185h-96l99 185h166z" />
    <glyph glyph-name="ecircumflex.smallcap" horiz-adv-x="478" 
d="M432 0h-374v479h374v-112h-232v-75h193v-104h-193v-76h232v-112zM431 527h-105l-83 107h-2l-81 -107h-107l119 187h140z" />
    <glyph glyph-name="edieresis.smallcap" horiz-adv-x="478" 
d="M432 0h-374v479h374v-112h-232v-75h193v-104h-193v-76h232v-112zM445 608q0 -37 -21 -57t-58 -20q-36 0 -57.5 20t-21.5 57t21.5 57t57.5 20q37 0 58 -20t21 -57zM213 608q0 -37 -22 -57t-58 -20t-58 20t-22 57t22 57t58 20t58 -20t22 -57z" />
    <glyph glyph-name="emacron.smallcap" horiz-adv-x="479" 
d="M432 0h-374v479h374v-112h-232v-75h193v-104h-193v-76h232v-112zM424 549h-364l11 87h342z" />
    <glyph glyph-name="ebreve.smallcap" horiz-adv-x="479" 
d="M432 0h-374v479h374v-112h-232v-75h193v-104h-193v-76h232v-112zM429 710q-8 -94 -59 -142t-123 -48q-71 0 -122.5 48.5t-59.5 141.5l93 -1q19 -101 89 -101q72 0 89 101z" />
    <glyph glyph-name="edotaccent.smallcap" horiz-adv-x="479" 
d="M432 0h-374v479h374v-112h-232v-75h193v-104h-193v-76h232v-112zM328 602q0 -37 -23 -62t-61 -25q-37 0 -60.5 25t-23.5 62q0 36 23.5 61.5t60.5 25.5q38 0 61 -25.5t23 -61.5z" />
    <glyph glyph-name="eogonek.smallcap" horiz-adv-x="479" 
d="M433 0h-55q-59 -41 -59 -86t43 -45q30 0 51 13l21 -78q-44 -28 -105 -28q-54 0 -87 28t-33 75q0 77 86 121h-237v479h375v-112h-232v-75h192v-104h-192v-76h232v-112z" />
    <glyph glyph-name="ecaron.smallcap" horiz-adv-x="479" 
d="M435 714l-119 -187h-140l-119 187h105l83 -108h2l81 108h107zM432 0h-374v479h374v-112h-232v-75h193v-104h-193v-76h232v-112z" />
    <glyph glyph-name="gcircumflex.smallcap" horiz-adv-x="556" 
d="M483 527h-105l-83 107h-2l-81 -107h-107l119 187h140zM187 242q0 -142 125 -142q48 0 75 12v63h-111v102h232v-245q-92 -46 -201 -46q-123 0 -195 65.5t-72 186.5q0 118 74 186t194 68q53 0 107 -11.5t85 -29.5l-44 -116q-75 36 -138 36q-61 0 -96 -33t-35 -96z" />
    <glyph glyph-name="gbreve.smallcap" horiz-adv-x="556" 
d="M187 242q0 -142 125 -142q48 0 75 12v63h-111v102h232v-245q-92 -46 -201 -46q-123 0 -195 65.5t-72 186.5q0 118 74 186t194 68q53 0 107 -11.5t85 -29.5l-44 -116q-75 36 -138 36q-61 0 -96 -33t-35 -96zM470 710q-8 -94 -59 -142t-123 -48q-71 0 -122.5 48.5
t-59.5 141.5l93 -1q19 -101 89 -101q72 0 89 101z" />
    <glyph glyph-name="gdotaccent.smallcap" horiz-adv-x="556" 
d="M187 242q0 -142 125 -142q48 0 75 12v63h-111v102h232v-245q-92 -46 -201 -46q-123 0 -195 65.5t-72 186.5q0 118 74 186t194 68q53 0 107 -11.5t85 -29.5l-44 -116q-75 36 -138 36q-61 0 -96 -33t-35 -96zM380 604q0 -37 -23 -62t-61 -25q-37 0 -60.5 25t-23.5 62
q0 36 23.5 61.5t60.5 25.5q38 0 61 -25.5t23 -61.5z" />
    <glyph glyph-name="gcommaaccent.smallcap" horiz-adv-x="556" 
d="M187 242q0 -142 125 -142q48 0 75 12v63h-111v102h232v-245q-92 -46 -201 -46q-123 0 -195 65.5t-72 186.5q0 118 74 186t194 68q53 0 107 -11.5t85 -29.5l-44 -116q-75 36 -138 36q-61 0 -96 -33t-35 -96zM215 -122q1 29 23 50t55 21q40 0 65.5 -25t25.5 -65
q0 -48 -36.5 -86.5t-100.5 -58.5l-34 36q66 37 66 72q0 18 -13 31t-51 25z" />
    <glyph glyph-name="hcircumflex.smallcap" horiz-adv-x="585" 
d="M482 514h-105l-83 107h-2l-81 -107h-107l119 187h140zM527 0h-153v185h-163v-185h-153v479h153v-181h163v181h153v-479z" />
    <glyph glyph-name="hbar.smallcap" horiz-adv-x="585" 
d="M528 0h-155v185h-161v-185h-154v349h-67l1 60h66v70h154v-70h161v70h155v-70h65l3 -60h-68v-349zM212 298h161v51h-161v-51z" />
    <glyph glyph-name="igrave.smallcap" horiz-adv-x="269" 
d="M192 527h-96l-169 185h166zM211 0h-153v479h153v-479z" />
    <glyph glyph-name="iacute.smallcap" horiz-adv-x="269" 
d="M344 712l-169 -185h-96l99 185h166zM211 0h-153v479h153v-479z" />
    <glyph glyph-name="icircumflex.smallcap" horiz-adv-x="269" 
d="M211 0h-153v479h153v-479zM324 527h-105l-83 107h-2l-81 -107h-107l119 187h140z" />
    <glyph glyph-name="idieresis.smallcap" horiz-adv-x="269" 
d="M330 608q0 -37 -21 -57t-58 -20q-36 0 -57.5 20t-21.5 57t21.5 57t57.5 20q37 0 58 -20t21 -57zM98 608q0 -37 -22 -57t-58 -20t-58 20t-22 57t22 57t58 20t58 -20t22 -57zM211 0h-153v479h153v-479z" />
    <glyph glyph-name="imacron.smallcap" horiz-adv-x="270" 
d="M211 0h-153v479h153v-479zM318 549h-364l11 87h342z" />
    <glyph glyph-name="ibreve.smallcap" horiz-adv-x="270" 
d="M211 0h-153v479h153v-479zM318 710q-8 -94 -59 -142t-123 -48q-71 0 -122.5 48.5t-59.5 141.5l93 -1q19 -101 89 -101q72 0 89 101z" />
    <glyph glyph-name="iogonek.smallcap" horiz-adv-x="270" 
d="M126 -220q-55 0 -88 27.5t-33 74.5q0 74 81 118h-28v479h154v-479q-41 -8 -69 -31.5t-28 -51.5q0 -45 43 -45q30 0 51 13l22 -78q-44 -27 -105 -27z" />
    <glyph glyph-name="idotaccent.smallcap" horiz-adv-x="269" 
d="M211 0h-153v479h153v-479zM219 600q0 -37 -23 -62t-61 -25q-37 0 -60.5 25t-23.5 62q0 36 23.5 61.5t60.5 25.5q38 0 61 -25.5t23 -61.5z" />
    <glyph glyph-name="dotlessi.smallcap" horiz-adv-x="269" 
d="M211 0h-153v479h153v-479z" />
    <glyph glyph-name="jcircumflex.smallcap" horiz-adv-x="410" 
d="M360 182q0 -95 -48 -145.5t-140 -50.5q-90 0 -160 40l33 119q51 -33 94 -33q37 0 52 19.5t15 63.5v284h154v-297zM469 527h-105l-83 107h-2l-81 -107h-107l119 187h140z" />
    <glyph glyph-name="jcircumflex.smallcap.alt" horiz-adv-x="410" 
d="M360 182q0 -95 -48 -145.5t-140 -50.5q-90 0 -160 40l33 119q51 -33 94 -33q37 0 52 19.5t15 63.5v284h154v-297zM469 527h-105l-83 107h-2l-81 -107h-107l119 187h140z" />
    <glyph glyph-name="dotlessj.smallcap" horiz-adv-x="410" 
d="M360 182q0 -95 -48 -145.5t-140 -50.5q-90 0 -160 40l33 119q51 -33 94 -33q37 0 52 19.5t15 63.5v284h154v-297z" />
    <glyph glyph-name="kcommaaccent.smallcap" horiz-adv-x="538" 
d="M189 -122q1 29 23 50t55 21q40 0 65.5 -25t25.5 -65q0 -48 -36.5 -86.5t-100.5 -58.5l-34 36q66 37 66 72q0 18 -13 31t-51 25zM211 277h1l134 202h170l-170 -230l177 -249h-180l-131 202h-1v-202h-153v479h153v-202z" />
    <glyph glyph-name="lacute.smallcap" horiz-adv-x="453" 
d="M322 704l-169 -185h-96l99 185h166zM425 0h-367v479h153v-355h214v-124z" />
    <glyph glyph-name="lcommaaccent.smallcap" horiz-adv-x="453" 
d="M425 0h-367v479h153v-355h214v-124zM142 -122q1 29 23 50t55 21q40 0 65.5 -25t25.5 -65q0 -48 -36.5 -86.5t-100.5 -58.5l-34 36q66 37 66 72q0 18 -13 31t-51 25z" />
    <glyph glyph-name="lcaron.smallcap" horiz-adv-x="725" 
d="M457 403q4 40 34 65t73 25q52 0 86 -37.5t34 -89.5q0 -113 -169 -204l-68 60q50 34 75 58.5t25 46.5q0 21 -19.5 38t-70.5 38zM425 0h-367v479h153v-355h214v-124z" />
    <glyph glyph-name="ldotaccent.smallcap" horiz-adv-x="682" 
d="M425 0h-367v479h153v-355h214v-124zM624 256q0 -41 -26 -66t-68 -25q-43 0 -69 25t-26 66t26 66t69 25q42 0 68 -25t26 -66z" />
    <glyph glyph-name="lslash.smallcap" horiz-adv-x="485" 
d="M244 205v-81h214v-124h-367v160l-74 -22v109l74 22v210h153v-165l112 33v-109z" />
    <glyph glyph-name="ntilde.smallcap" horiz-adv-x="591" 
d="M395 209l-1 270h140v-484h-160l-178 274v-269h-138v479h160zM487 683q-9 -86 -36 -119.5t-74 -33.5q-35 0 -87 28.5t-64 28.5q-14 0 -21 -10.5t-11 -39.5v0h-1v0h-1h-1h-1h-1h-1h-1h-1h-1h-1h-1h-1h-1h-1h-1h-1h-1h-2h-1h-1h-1h-1h-2h-1h-1h-2h-1h-1h-2h-1h-2h-1h-1h-2
h-1h-2h-2h-1h-2h-1h-2h-2h-1h-2h-2h-1h-2h-2h-2h-2h-1h-2h-2h-2h-2h-2h-2h-2h-9q9 85 35.5 118.5t73.5 33.5q35 0 87.5 -28.5t64.5 -28.5q13 0 20 11t11 40v0h1v0h1h1h1h1h1h1h1h1h1h1h1h1h1h1h1h1h1h1h2h1h1h1h1h2h1h1h2h1h1h2h1h2h1h2h1h2h1h2h1h2h2h1h2h2h1h2h2h1h2h2h2
h2h1h2h2h2h2h2h2h8z" />
    <glyph glyph-name="nacute.smallcap" horiz-adv-x="592" 
d="M486 712l-169 -185h-96l99 185h166zM395 209l-1 270h140v-484h-160l-178 274v-269h-138v479h160z" />
    <glyph glyph-name="ncommaaccent.smallcap" horiz-adv-x="592" 
d="M395 209l-1 270h140v-484h-160l-178 274v-269h-138v479h160zM212 -122q1 29 23 50t55 21q40 0 65.5 -25t25.5 -65q0 -48 -36.5 -86.5t-100.5 -58.5l-34 36q66 37 66 72q0 18 -13 31t-51 25z" />
    <glyph glyph-name="ncaron.smallcap" horiz-adv-x="592" 
d="M488 714l-119 -187h-140l-119 187h105l83 -108h2l81 108h107zM395 209l-1 270h140v-484h-160l-178 274v-269h-138v479h160z" />
    <glyph glyph-name="ograve.smallcap" horiz-adv-x="597" 
d="M356 527h-96l-169 185h166zM557 241q0 -114 -75 -184.5t-185 -70.5q-112 0 -184.5 65.5t-72.5 186.5q0 115 74.5 184.5t184.5 69.5q113 0 185.5 -65.5t72.5 -185.5zM406 238q0 64 -28 101.5t-81 37.5q-52 0 -79.5 -37t-27.5 -99q0 -64 28.5 -102t81.5 -38q52 0 79 37.5
t27 99.5z" />
    <glyph glyph-name="oacute.smallcap" horiz-adv-x="597" 
d="M557 241q0 -114 -75 -184.5t-185 -70.5q-112 0 -184.5 65.5t-72.5 186.5q0 115 74.5 184.5t184.5 69.5q113 0 185.5 -65.5t72.5 -185.5zM406 238q0 64 -28 101.5t-81 37.5q-52 0 -79.5 -37t-27.5 -99q0 -64 28.5 -102t81.5 -38q52 0 79 37.5t27 99.5zM506 712l-169 -185
h-96l99 185h166z" />
    <glyph glyph-name="ocircumflex.smallcap" horiz-adv-x="597" 
d="M557 241q0 -114 -75 -184.5t-185 -70.5q-112 0 -184.5 65.5t-72.5 186.5q0 115 74.5 184.5t184.5 69.5q113 0 185.5 -65.5t72.5 -185.5zM406 238q0 64 -28 101.5t-81 37.5q-52 0 -79.5 -37t-27.5 -99q0 -64 28.5 -102t81.5 -38q52 0 79 37.5t27 99.5zM488 527h-105
l-83 107h-2l-81 -107h-107l119 187h140z" />
    <glyph glyph-name="otilde.smallcap" horiz-adv-x="597" 
d="M557 241q0 -114 -75 -184.5t-185 -70.5q-112 0 -184.5 65.5t-72.5 186.5q0 115 74.5 184.5t184.5 69.5q113 0 185.5 -65.5t72.5 -185.5zM406 238q0 64 -28 101.5t-81 37.5q-52 0 -79.5 -37t-27.5 -99q0 -64 28.5 -102t81.5 -38q52 0 79 37.5t27 99.5zM490 683
q-9 -86 -36 -119.5t-74 -33.5q-35 0 -87 28.5t-64 28.5q-13 0 -20.5 -10.5t-11.5 -39.5v0h-1v0h-1h-1h-1h-1h-1h-1h-1h-1h-1h-1h-1h-1h-1h-1h-1h-1h-2h-1h-1h-1h-1h-2h-1h-1h-2h-1h-1h-2h-1h-2h-1h-1h-2h-1h-2h-2h-1h-2h-1h-2h-2h-1h-2h-2h-1h-2h-2h-2h-2h-1h-2h-2h-2h-2h-2
h-2h-2h-9q9 85 35.5 118.5t73.5 33.5q35 0 87.5 -28.5t64.5 -28.5q13 0 20 11t11 40v0h1v0h1h1h1h1h1h1h1h1h1h1h1h1h1h1h1h1h1h1h2h1h1h1h1h2h1h1h2h1h1h2h1h2h1h2h1h2h1h2h1h2h2h1h2h2h1h2h2h1h2h2h2h2h1h2h2h2h2h2h2h8z" />
    <glyph glyph-name="odieresis.smallcap" horiz-adv-x="597" 
d="M557 241q0 -114 -75 -184.5t-185 -70.5q-112 0 -184.5 65.5t-72.5 186.5q0 115 74.5 184.5t184.5 69.5q113 0 185.5 -65.5t72.5 -185.5zM406 238q0 64 -28 101.5t-81 37.5q-52 0 -79.5 -37t-27.5 -99q0 -64 28.5 -102t81.5 -38q52 0 79 37.5t27 99.5zM494 608
q0 -37 -21 -57t-58 -20q-36 0 -57.5 20t-21.5 57t21.5 57t57.5 20q37 0 58 -20t21 -57zM262 608q0 -37 -22 -57t-58 -20t-58 20t-22 57t22 57t58 20t58 -20t22 -57z" />
    <glyph glyph-name="omacron.smallcap" horiz-adv-x="597" 
d="M487 549h-364l11 87h342zM557 241q0 -114 -75 -184.5t-185 -70.5q-112 0 -184.5 65.5t-72.5 186.5q0 115 74.5 184.5t184.5 69.5q113 0 185.5 -65.5t72.5 -185.5zM406 238q0 64 -28 101.5t-81 37.5q-52 0 -79.5 -37t-27.5 -99q0 -64 28.5 -102t81.5 -38q52 0 79 37.5
t27 99.5z" />
    <glyph glyph-name="obreve.smallcap" horiz-adv-x="597" 
d="M557 241q0 -114 -75 -184.5t-185 -70.5q-112 0 -184.5 65.5t-72.5 186.5q0 115 74.5 184.5t184.5 69.5q113 0 185.5 -65.5t72.5 -185.5zM406 238q0 64 -28 101.5t-81 37.5q-52 0 -79.5 -37t-27.5 -99q0 -64 28.5 -102t81.5 -38q52 0 79 37.5t27 99.5zM487 710
q-8 -94 -59 -142t-123 -48q-71 0 -122.5 48.5t-59.5 141.5l93 -1q19 -101 89 -101q72 0 89 101z" />
    <glyph glyph-name="ohungarumlaut.smallcap" horiz-adv-x="597" 
d="M604 710l-185 -183h-100l143 183h142zM384 710l-162 -183h-103l123 183h142zM557 241q0 -114 -75 -184.5t-185 -70.5q-112 0 -184.5 65.5t-72.5 186.5q0 115 74.5 184.5t184.5 69.5q113 0 185.5 -65.5t72.5 -185.5zM406 238q0 64 -28 101.5t-81 37.5q-52 0 -79.5 -37
t-27.5 -99q0 -64 28.5 -102t81.5 -38q52 0 79 37.5t27 99.5z" />
    <glyph glyph-name="oslash.smallcap" horiz-adv-x="597" 
d="M389 335l-137 -232q20 -10 48 -10q55 0 83.5 39.5t28.5 105.5q0 59 -23 97zM207 144l137 232q-21 9 -47 9q-55 0 -83.5 -39t-28.5 -105q0 -60 22 -97zM140 29q-100 67 -100 209q0 115 74.5 184.5t184.5 69.5q55 0 103 -17l27 46h69l-42 -72q101 -67 101 -208
q0 -114 -75 -184.5t-185 -70.5q-55 0 -104 17l-7 -13l-16 -28l-8 -13h-69z" />
    <glyph glyph-name="oslashacute.smallcap" horiz-adv-x="597" 
d="M389 335l-137 -232q20 -10 48 -10q55 0 83.5 39.5t28.5 105.5q0 59 -23 97zM207 144l137 232q-21 9 -47 9q-55 0 -83.5 -39t-28.5 -105q0 -60 22 -97zM140 29q-100 67 -100 209q0 115 74.5 184.5t184.5 69.5q55 0 103 -17l27 46h69l-42 -72q101 -67 101 -208
q0 -114 -75 -184.5t-185 -70.5q-55 0 -104 17l-7 -13l-16 -28l-8 -13h-69zM501 712l-169 -185h-96l99 185h166z" />
    <glyph glyph-name="oe.smallcap" horiz-adv-x="781" 
d="M735 479v-112h-232v-74h192v-106h-192v-75h232v-112h-424q-129 0 -200 63.5t-71 172.5q0 112 73.5 177.5t207.5 65.5h414zM194 240q0 -63 33.5 -93.5t88.5 -30.5h44v246h-45q-54 0 -87.5 -31.5t-33.5 -90.5z" />
    <glyph glyph-name="thorn.smallcap" horiz-adv-x="516" 
d="M482 245q0 -88 -58.5 -134.5t-163.5 -46.5h-49v-64h-153v479h153v-65h57q103 0 158.5 -45t55.5 -124zM336 240q0 70 -87 70h-44v-145l40 1q91 3 91 74z" />
    <glyph glyph-name="racute.smallcap" horiz-adv-x="537" 
d="M442 712l-169 -185h-96l99 185h166zM208 153v-153h-150v479h228q99 0 152 -42t53 -115q0 -46 -23.5 -82t-68.5 -54l111 -186h-161l-84 156zM207 244l52 1q80 2 80 68q0 63 -82 63h-50v-132z" />
    <glyph glyph-name="rcommaaccent.smallcap" horiz-adv-x="537" 
d="M208 153v-153h-150v479h228q99 0 152 -42t53 -115q0 -46 -23.5 -82t-68.5 -54l111 -186h-161l-84 156zM207 244l52 1q80 2 80 68q0 63 -82 63h-50v-132zM181 -122q1 29 23 50t55 21q40 0 65.5 -25t25.5 -65q0 -48 -36.5 -86.5t-100.5 -58.5l-34 36q66 37 66 72
q0 18 -13 31t-51 25z" />
    <glyph glyph-name="rcaron.smallcap" horiz-adv-x="537" 
d="M437 714l-119 -187h-140l-119 187h105l83 -108h2l81 108h107zM208 153v-153h-150v479h228q99 0 152 -42t53 -115q0 -46 -23.5 -82t-68.5 -54l111 -186h-161l-84 156zM207 244l52 1q80 2 80 68q0 63 -82 63h-50v-132z" />
    <glyph glyph-name="sacute.smallcap" horiz-adv-x="483" 
d="M426 712l-169 -185h-96l99 185h166zM238 101q69 0 69 37q0 21 -49 35q-6 2 -56 15q-31 8 -55.5 17.5t-50.5 26t-40.5 43.5t-14.5 62q0 72 50.5 113.5t147.5 41.5q112 0 194 -42l-24 -118q-87 41 -164 41q-58 0 -58 -32q0 -6 3 -10.5t9.5 -8.5t12.5 -7t17 -6.5t18.5 -5.5
t20.5 -5t20 -5q70 -17 113 -49t43 -94q0 -74 -55 -119t-157 -45q-117 0 -198 44l23 117q90 -46 181 -46z" />
    <glyph glyph-name="scircumflex.smallcap" horiz-adv-x="483" 
d="M437 527h-105l-83 107h-2l-81 -107h-107l119 187h140zM238 101q69 0 69 37q0 21 -49 35q-6 2 -56 15q-31 8 -55.5 17.5t-50.5 26t-40.5 43.5t-14.5 62q0 72 50.5 113.5t147.5 41.5q112 0 194 -42l-24 -118q-87 41 -164 41q-58 0 -58 -32q0 -6 3 -10.5t9.5 -8.5t12.5 -7
t17 -6.5t18.5 -5.5t20.5 -5t20 -5q70 -17 113 -49t43 -94q0 -74 -55 -119t-157 -45q-117 0 -198 44l23 117q90 -46 181 -46z" />
    <glyph glyph-name="scedilla.smallcap" horiz-adv-x="483" 
d="M213 -51q54 -2 90.5 -28.5t36.5 -70.5q0 -109 -199 -133l-8 71q117 5 117 52q0 52 -116 43l-10 51l59 55q-90 9 -149 41l23 117q90 -46 181 -46q69 0 69 37q0 21 -49 35q-6 2 -56 15q-31 8 -55.5 17.5t-50.5 26t-40.5 43.5t-14.5 62q0 72 50.5 113.5t147.5 41.5
q112 0 194 -42l-24 -118q-87 41 -164 41q-58 0 -58 -32q0 -6 3 -10.5t9.5 -8.5t12.5 -7t17 -6.5t18.5 -5.5t20.5 -5t20 -5q70 -17 113 -49t43 -94q0 -70 -49 -114t-140 -49q-36 -32 -42 -38z" />
    <glyph glyph-name="scommaaccent.smallcap" horiz-adv-x="483" 
d="M238 101q69 0 69 37q0 21 -49 35q-6 2 -56 15q-31 8 -55.5 17.5t-50.5 26t-40.5 43.5t-14.5 62q0 72 50.5 113.5t147.5 41.5q112 0 194 -42l-24 -118q-87 41 -164 41q-58 0 -58 -32q0 -6 3 -10.5t9.5 -8.5t12.5 -7t17 -6.5t18.5 -5.5t20.5 -5t20 -5q70 -17 113 -49
t43 -94q0 -74 -55 -119t-157 -45q-117 0 -198 44l23 117q90 -46 181 -46zM153 -122q1 29 23 50t55 21q40 0 65.5 -25t25.5 -65q0 -48 -36.5 -86.5t-100.5 -58.5l-34 36q66 37 66 72q0 18 -13 31t-51 25z" />
    <glyph glyph-name="scaron.smallcap" horiz-adv-x="482" 
d="M238 101q69 0 69 37q0 21 -49 35q-6 2 -56 15q-31 8 -55.5 17.5t-50.5 26t-40.5 43.5t-14.5 62q0 72 50.5 113.5t147.5 41.5q112 0 194 -42l-24 -118q-87 41 -164 41q-58 0 -58 -32q0 -6 3 -10.5t9.5 -8.5t12.5 -7t17 -6.5t18.5 -5.5t20.5 -5t20 -5q70 -17 113 -49
t43 -94q0 -74 -55 -119t-157 -45q-117 0 -198 44l23 117q90 -46 181 -46zM433 721l-119 -187h-140l-119 187h105l83 -108h2l81 108h107z" />
    <glyph glyph-name="tcommaaccent.smallcap" horiz-adv-x="506" 
d="M481 355h-152v-355h-154v355h-150v124h456v-124zM164 -122q1 29 23 50t55 21q40 0 65.5 -25t25.5 -65q0 -48 -36.5 -86.5t-100.5 -58.5l-34 36q66 37 66 72q0 18 -13 31t-51 25z" />
    <glyph glyph-name="tcaron.smallcap" horiz-adv-x="506" 
d="M442 714l-119 -187h-140l-119 187h105l83 -108h2l80 108h108zM481 355h-152v-355h-154v355h-150v124h456v-124z" />
    <glyph glyph-name="ugrave.smallcap" horiz-adv-x="552" 
d="M333 527h-96l-169 185h166zM503 201q0 -107 -62 -161t-165 -54q-102 0 -164.5 49.5t-62.5 153.5v290h153v-273q0 -93 76 -93q38 0 55.5 21t17.5 69v276h152v-278z" />
    <glyph glyph-name="uacute.smallcap" horiz-adv-x="552" 
d="M503 201q0 -107 -62 -161t-165 -54q-102 0 -164.5 49.5t-62.5 153.5v290h153v-273q0 -93 76 -93q38 0 55.5 21t17.5 69v276h152v-278zM483 712l-169 -185h-96l99 185h166z" />
    <glyph glyph-name="ucircumflex.smallcap" horiz-adv-x="552" 
d="M503 201q0 -107 -62 -161t-165 -54q-102 0 -164.5 49.5t-62.5 153.5v290h153v-273q0 -93 76 -93q38 0 55.5 21t17.5 69v276h152v-278zM465 527h-105l-83 107h-2l-81 -107h-107l119 187h140z" />
    <glyph glyph-name="udieresis.smallcap" horiz-adv-x="552" 
d="M503 201q0 -107 -62 -161t-165 -54q-102 0 -164.5 49.5t-62.5 153.5v290h153v-273q0 -93 76 -93q38 0 55.5 21t17.5 69v276h152v-278zM471 608q0 -37 -21 -57t-58 -20q-36 0 -57.5 20t-21.5 57t21.5 57t57.5 20q37 0 58 -20t21 -57zM239 608q0 -37 -22 -57t-58 -20
t-58 20t-22 57t22 57t58 20t58 -20t22 -57z" />
    <glyph glyph-name="umacron.smallcap" horiz-adv-x="552" 
d="M503 201q0 -107 -62 -161t-165 -54q-102 0 -164.5 49.5t-62.5 153.5v290h153v-273q0 -93 76 -93q38 0 55.5 21t17.5 69v276h152v-278zM466 549h-364l11 87h342z" />
    <glyph glyph-name="ubreve.smallcap" horiz-adv-x="552" 
d="M503 201q0 -107 -62 -161t-165 -54q-102 0 -164.5 49.5t-62.5 153.5v290h153v-273q0 -93 76 -93q38 0 55.5 21t17.5 69v276h152v-278zM463 710q-8 -94 -59 -142t-123 -48q-71 0 -122.5 48.5t-59.5 141.5l93 -1q19 -101 89 -101q72 0 89 101z" />
    <glyph glyph-name="uring.smallcap" horiz-adv-x="552" 
d="M420 640q1 -51 -38 -84.5t-103 -33.5t-102.5 33.5t-38.5 84.5t38.5 84.5t102.5 33.5t102.5 -33.5t38.5 -84.5zM361 641q0 30 -22 49t-60 19q-37 0 -59 -19t-22 -49t22.5 -50t58.5 -20q38 0 60 19.5t22 50.5zM503 201q0 -107 -62 -161t-165 -54q-102 0 -164.5 49.5
t-62.5 153.5v290h153v-273q0 -93 76 -93q38 0 55.5 21t17.5 69v276h152v-278z" />
    <glyph glyph-name="uhungarumlaut.smallcap" horiz-adv-x="552" 
d="M503 201q0 -107 -62 -161t-165 -54q-102 0 -164.5 49.5t-62.5 153.5v290h153v-273q0 -93 76 -93q38 0 55.5 21t17.5 69v276h152v-278zM592 710l-185 -183h-100l143 183h142zM372 710l-162 -183h-103l123 183h142z" />
    <glyph glyph-name="uogonek.smallcap" horiz-adv-x="529" 
d="M318 -221q-54 0 -87.5 28t-33.5 75q0 59 62 104q3 0 3 1t3 1q-95 0 -148.5 50t-53.5 142v292h104v-276q0 -116 100 -116q95 0 95 107v285h104v-283q0 -123 -82 -175q-76 -49 -76 -93q0 -45 42 -45q32 0 52 14l21 -82q-44 -29 -105 -29z" />
    <glyph glyph-name="wcircumflex.smallcap" horiz-adv-x="786" 
d="M584 527h-105l-83 107h-2l-81 -107h-107l119 187h140zM392 316l-84 -316h-156l-130 479h159l59 -315l72 315h164l73 -315l59 315h155l-130 -479h-157z" />
    <glyph glyph-name="wgrave.smallcap" horiz-adv-x="786" 
d="M392 316l-84 -316h-156l-130 479h159l59 -315l72 315h164l73 -315l59 315h155l-130 -479h-157zM460 527h-96l-169 185h166z" />
    <glyph glyph-name="wacute.smallcap" horiz-adv-x="786" 
d="M592 712l-169 -185h-96l99 185h166zM392 316l-84 -316h-156l-130 479h159l59 -315l72 315h164l73 -315l59 315h155l-130 -479h-157z" />
    <glyph glyph-name="wdieresis.smallcap" horiz-adv-x="786" 
d="M590 608q0 -37 -21 -57t-58 -20q-36 0 -57.5 20t-21.5 57t21.5 57t57.5 20q37 0 58 -20t21 -57zM358 608q0 -37 -22 -57t-58 -20t-58 20t-22 57t22 57t58 20t58 -20t22 -57zM392 316l-84 -316h-156l-130 479h159l59 -315l72 315h164l73 -315l59 315h155l-130 -479h-157z
" />
    <glyph glyph-name="yacute.smallcap" horiz-adv-x="513" 
d="M498 479l-166 -303v-176h-150v177l-167 302h159l83 -178l81 178h160zM473 712l-169 -185h-96l99 185h166z" />
    <glyph glyph-name="ycircumflex.smallcap" horiz-adv-x="514" 
d="M498 479l-166 -303v-176h-150v177l-167 302h159l83 -178l81 178h160zM447 527h-105l-83 107h-2l-81 -107h-107l119 187h140z" />
    <glyph glyph-name="ydieresis.smallcap" horiz-adv-x="513" 
d="M498 479l-166 -303v-176h-150v177l-167 302h159l83 -178l81 178h160zM458 608q0 -37 -21 -57t-58 -20q-36 0 -57.5 20t-21.5 57t21.5 57t57.5 20q37 0 58 -20t21 -57zM226 608q0 -37 -22 -57t-58 -20t-58 20t-22 57t22 57t58 20t58 -20t22 -57z" />
    <glyph glyph-name="zacute.smallcap" horiz-adv-x="504" 
d="M438 712l-169 -185h-96l99 185h166zM452 0h-418v97l229 261h-224v121h414v-99l-227 -259h226v-121z" />
    <glyph glyph-name="zdotaccent.smallcap" horiz-adv-x="504" 
d="M452 0h-418v97l229 261h-224v121h414v-99l-227 -259h226v-121zM335 601q0 -37 -23 -62t-61 -25q-37 0 -60.5 25t-23.5 62q0 36 23.5 61.5t60.5 25.5q38 0 61 -25.5t23 -61.5z" />
    <glyph glyph-name="zcaron.smallcap" horiz-adv-x="503" 
d="M452 0h-418v97l229 261h-224v121h414v-99l-227 -259h226v-121zM440 714l-119 -187h-140l-119 187h105l83 -108h2l81 108h107z" />
    <glyph glyph-name="solidus" horiz-adv-x="226" 
d="M451 625l-560 -741h-116l560 741h116z" />
    <glyph glyph-name="plusinferior" horiz-adv-x="330" 
d="M281 10h-91v-92h-67v92h-92l2 64h90v92h67v-92h90z" />
    <glyph glyph-name="minusinferior" horiz-adv-x="330" 
d="M281 10h-250l2 64h247z" />
    <glyph glyph-name="zero.lnum" 
d="M476 309q0 -155 -59 -239.5t-170 -84.5q-110 0 -166.5 83t-56.5 239t59 240t169 84t167 -83.5t57 -238.5zM337 306q0 215 -89 215q-86 0 -86 -213q0 -211 90 -211q85 0 85 209z" />
    <glyph glyph-name="one.lnum" 
d="M213 0v470l-141 -30l-4 127l298 61v-628h-153z" />
    <glyph glyph-name="two.lnum" 
d="M463 0h-430l-3 107l71.5 67.5l62.5 58.5l46.5 46t39 42.5t24.5 34.5t17 36.5t4 34.5q0 34 -23.5 56.5t-60.5 22.5q-67 0 -136 -58l-47 110q95 73 209 73q98 0 153 -51t55 -130q0 -75 -54 -142t-192 -184v0v0v0v0v0v0h1v0v0h1v0h1v0h1h1v0h1h1h1h1h1h1h1h1h1h1h1h1h1h1h1
h1h1h1h1h1h1h1h1h1h1h1h1h1h1h1h1h1h1h1h1h1h1h1h1h1h1h1h1h1h1h1h1h1h1h1h2h1h1h1h1h1h1h2h1h1h1h1h2h1h1h1h2h1h1h1h2h1h1h1h2h1h1h2h1h1h2h1h1h2h1h2h1h1h2h1h1h2h1h2h1h2h1h1h2h1h2h1h2h1h2h1h2h1h2h1h2h1h2h1h2h1h2h2h1h2h1h2h1h2h2h1h2h1h2h2h1h2h1h2h2h1h2h2h1h2h2h1
h2h2h2h1h2h2h1h2h2h2h1h2h2h2h1h2h2h2h1h2h2h2h2h1h2h2h2h2h1h2h2h2h2h2h1h2h2h9z" />
    <glyph glyph-name="three.lnum" 
d="M285 323q85 3 131 -38t46 -105q0 -89 -70.5 -142t-177.5 -53q-96 0 -185 41l21 114q92 -38 159 -38q51 0 84 20t33 57q0 34 -32.5 55.5t-94.5 20.5q-36 0 -97 -9v104q103 20 150 41t47 59q0 27 -20.5 43.5t-60.5 16.5q-77 0 -145 -50l-43 110q93 61 203 61
q94 0 149.5 -40t55.5 -116q0 -111 -153 -152z" />
    <glyph glyph-name="four.lnum" 
d="M488 146h-74v-146h-130v146h-259l-7 101l223 375h173v-362h71zM288 255v255l-149 -255h149z" />
    <glyph glyph-name="five.lnum" 
d="M186 376q30 5 54 5q102 0 160 -49.5t58 -133.5q0 -96 -62.5 -154.5t-178.5 -58.5q-106 0 -184 36l14 125q30 -18 75.5 -30t86.5 -12q48 0 77.5 23t29.5 66q0 41 -32 64.5t-89 23.5q-78 0 -129 -23l-20 22l41 338h358l3 -122h-247z" />
    <glyph glyph-name="six.lnum" 
d="M23 259q0 142 96.5 247t263.5 131l32 -110q-98 -18 -164.5 -66t-84.5 -117l4 -3q71 58 141 58q72 0 119.5 -51.5t47.5 -136.5q0 -98 -60.5 -162.5t-165.5 -64.5q-108 0 -168.5 76.5t-60.5 198.5zM166 214q0 -50 23.5 -84.5t66.5 -34.5q37 0 60 28t23 75q0 43 -22.5 68
t-60.5 25q-50 0 -86 -36q-4 -19 -4 -41z" />
    <glyph glyph-name="seven.lnum" 
d="M326 495h-296l3 123h435l3 -109l-258 -509h-139z" />
    <glyph glyph-name="eight.lnum" 
d="M482 173q0 -82 -60 -135t-174 -53q-104 0 -167 46.5t-63 126.5q0 50 33.5 86.5t91.5 55.5q-115 53 -115 145q0 84 58.5 135.5t168.5 51.5q100 0 158.5 -46.5t58.5 -126.5q0 -47 -29.5 -82t-83.5 -54q123 -56 123 -150zM336 448q0 38 -23 61.5t-60 23.5q-40 0 -62 -22
t-22 -56q0 -69 107 -102q60 36 60 95zM344 167q0 72 -119 107q-67 -36 -67 -98q0 -38 25.5 -62.5t70.5 -24.5q44 0 67 20.5t23 57.5z" />
    <glyph glyph-name="nine.lnum" 
d="M477 357q0 -142 -96.5 -246.5t-263.5 -130.5l-33 110q98 17 164.5 65t85.5 117l-4 3q-73 -58 -142 -58q-71 0 -118.5 51.5t-47.5 136.5q0 99 60 163t166 64q108 0 168.5 -76.5t60.5 -198.5zM334 402q0 50 -23.5 84.5t-66.5 34.5q-38 0 -60.5 -27.5t-22.5 -74.5
q0 -43 22.5 -68t60.5 -25q51 0 86 35q4 28 4 41z" />
    <glyph glyph-name="dollar.lnum" 
d="M246 107q92 0 92 67q0 22 -17 36.5t-54 28.5zM272 638l15 93h69l-16 -101q66 -13 121 -46l-30 -126q-53 32 -111 47l-21 -132q37 -11 65 -24.5t54.5 -35.5t40.5 -54.5t14 -73.5q0 -90 -62.5 -145t-172.5 -55h-11l-17 -109h-68l18 115q-84 14 -143 51l28 127
q68 -40 134 -54l23 144q-36 11 -63 24.5t-54.5 35t-42.5 55t-15 75.5q0 87 58 138.5t162 51.5q17 0 25 -1zM234 393l19 123q-3 1 -9 1q-80 0 -80 -60q0 -40 70 -64z" />
    <glyph glyph-name="cent.lnum" 
d="M386 471q50 -11 82 -30l-29 -115q-35 21 -72 31q-43 -255 -44 -255q61 1 120 37l22 -116q-61 -36 -161 -38l-21 -121h-69l22 126q-90 16 -140.5 77.5t-50.5 161.5q0 115 69 183t185 68q14 0 20 -1l17 98h68zM299 363q-50 -5 -77.5 -40t-27.5 -89q0 -88 63 -119z" />
    <glyph glyph-name="sterling.lnum" 
d="M89 343q-5 47 -5 80q0 101 57 159t155 58q95 0 170 -40l-29 -120q-64 38 -130 38q-44 0 -67.5 -27.5t-23.5 -74.5l5 -73h159l-4 -69h-149q3 -29 3 -58q0 -37 -7 -65q50 -40 104 -40q32 0 51 18t26 70l98 -20q-6 -99 -51.5 -146.5t-114.5 -47.5q-77 0 -153 80
q-52 -61 -151 -83q-2 7 -5 19l-9.5 37l-11 41.5t-4.5 15.5q54 14 79 37.5t25 64.5q0 23 -6 77h-86l-4 69h79z" />
    <glyph glyph-name="yen.lnum" 
d="M175 269h-141l-5 69h123l-171 287h168l102 -222l100 222h167l-170 -287h122l-4 -69h-142v-66h142l4 -69h-143v-134h-155v134h-143l5 69h141v66z" />
    <glyph glyph-name="Euro.lnum" horiz-adv-x="550" 
d="M102 355h-72l-5 70h84q22 114 88 167.5t164 53.5q107 0 175 -39l-30 -115q-59 34 -126 34q-89 0 -114 -101h200l-4 -70h-206q-2 -22 -2 -37q0 -24 3 -46h175l4 -70h-165q28 -97 114 -97q68 0 125 34l23 -116q-60 -38 -174 -38q-214 0 -251 217h-83l5 70h72q-2 24 -2 38
q0 17 2 45z" />
    <glyph glyph-name="degree.lnum" 
d="M415 474q0 -69 -45.5 -116.5t-119.5 -47.5t-119.5 47.5t-45.5 116.5q0 70 45.5 118t119.5 48t119.5 -48t45.5 -118zM361 474q0 50 -30 82.5t-81 32.5t-81.5 -33t-30.5 -82q0 -47 30.5 -80t81.5 -33t81 33t30 80z" />
    <glyph glyph-name="plus.lnum" 
d="M480 181h-168v-170h-123v170h-168l3 116h165v170h123v-170h165z" />
    <glyph glyph-name="minus.lnum" 
d="M480 181h-459l3 116h453z" />
    <glyph glyph-name="plusminus.lnum" 
d="M480 273h-168v-140h-123v140h-168l3 116h165v140h123v-140h165zM480 0h-459l3 116h453z" />
    <glyph glyph-name="logicalnot.lnum" 
d="M485 341v-250h-116v134h-334l3 116h447z" />
    <glyph glyph-name="equal.lnum" 
d="M457 286h-414l-5 115h424zM462 68h-424l5 115h414z" />
    <glyph glyph-name="notequal.lnum" 
d="M122 -33l26 101h-110l5 115h135l27 103h-162l-5 115h197l24 91h117l-24 -91h110l-5 -115h-135l-27 -103h162l5 -115h-197l-26 -101h-117z" />
    <glyph glyph-name="approxequal.lnum" 
d="M460 205q-2 -66 -33 -110t-88 -44q-31 0 -91.5 23.5t-72.5 23.5q-32 0 -36 -42h-97q2 66 33 110t88 44q31 0 93 -23.5t71 -23.5q17 0 26 7.5t11 34.5h96zM459 413q-2 -66 -33 -110t-88 -44q-31 0 -91.5 23.5t-72.5 23.5q-32 0 -36 -42h-97q2 66 33 110t88 44
q31 0 93 -23.5t71 -23.5q17 0 26 7.5t11 34.5h96z" />
    <glyph glyph-name="multiply.lnum" 
d="M479 91l-81 -81l-148 149l-147 -149l-81 81l149 147l-150 148l81 81l148 -150l149 150l81 -81l-151 -147z" />
    <glyph glyph-name="divide.lnum" 
d="M480 181h-459l3 116h453zM332 54q0 -35 -22.5 -56.5t-58.5 -21.5t-58.5 21.5t-22.5 56.5t22.5 56.5t58.5 21.5t58.5 -21.5t22.5 -56.5zM332 424q0 -35 -22.5 -56.5t-59.5 -21.5q-36 0 -58 21.5t-22 56.5t22 56.5t58 21.5q37 0 59.5 -21.5t22.5 -56.5z" />
    <glyph glyph-name="less.lnum" 
d="M446 126v-122l-401 182v99l401 182v-122l-245 -105v-10z" />
    <glyph glyph-name="greater.lnum" 
d="M448 186l-401 -182v122l245 104v10l-245 105v122l401 -182v-99z" />
    <glyph glyph-name="lessequal.lnum" 
d="M443 0h-385l3 116h379zM439 253v-122l-381 162v108l381 162v-122l-219 -90v-9z" />
    <glyph glyph-name="greaterequal.lnum" 
d="M442 0h-385l3 116h379zM61 131v122l219 89v9l-219 90v122l381 -162v-108z" />
    <glyph glyph-name="bar.lnum" horiz-adv-x="250" 
d="M58 -200v901h133v-901h-133z" />
    <glyph glyph-name="brokenbar.lnum" horiz-adv-x="250" 
d="M58 307v335h133v-335h-133zM58 -139v335h133v-335h-133z" />
    <glyph glyph-name="bullet.lnum" 
d="M443 232q0 -22 -20 -71.5t-36 -65.5q-15 -15 -65 -35.5t-72 -20.5q-21 0 -71 20.5t-64 35.5q-15 16 -36 66t-21 71q0 22 21 71.5t36 64.5t65 35.5t71 20.5q22 0 71.5 -20.5t64.5 -35.5t35.5 -64.5t20.5 -71.5z" />
    <glyph glyph-name="asciitilde.lnum" 
d="M442 338q-9 -86 -36 -119.5t-74 -33.5q-35 0 -87 28.5t-64 28.5q-13 0 -20.5 -10.5t-11.5 -39.5v0h-1v0h-1h-1h-1h-1h-1h-1h-1h-1h-1h-1h-1h-1h-1h-1h-1h-1h-2h-1h-1h-1h-1h-2h-1h-1h-2h-1h-1h-2h-1h-2h-1h-1h-2h-1h-2h-2h-1h-2h-1h-2h-2h-1h-2h-2h-1h-2h-2h-2h-2h-1h-2
h-2h-2h-2h-2h-2h-2h-9q9 85 35.5 118.5t73.5 33.5q35 0 87.5 -28.5t64.5 -28.5q13 0 20 11t11 40v0h1v0h1h1h1h1h1h1h1h1h1h1h1h1h1h1h1h1h1h1h2h1h1h1h1h2h1h1h2h1h1h2h1h2h1h2h1h2h1h2h1h2h2h1h2h2h1h2h2h1h2h2h2h2h1h2h2h2h2h2h2h8z" />
    <glyph glyph-name="quotesingle.lnum" horiz-adv-x="250" 
d="M115 398h-99l115 247l133 -36z" />
    <glyph glyph-name="quotedbl.lnum" 
d="M344 398h-99l115 247l134 -36zM135 398h-99l115 247l133 -36z" />
    <glyph glyph-name="parenleft.lnum" 
d="M389 -265q-120 64 -208 196.5t-88 303.5q0 116 46 221t110.5 172t139.5 107l81 -105q-98 -60 -164.5 -163.5t-66.5 -231.5t66.5 -231.5t164.5 -163.5z" />
    <glyph glyph-name="parenright.lnum" 
d="M110 -265l-80 105q98 61 164.5 164t66.5 231t-66.5 231t-164.5 164l80 105q120 -64 208.5 -196.5t88.5 -303.5q0 -117 -46 -221.5t-110.5 -171.5t-140.5 -107z" />
    <glyph glyph-name="bracketleft.lnum" 
d="M450 -205h-340v897h340v-114h-203v-670h203v-113z" />
    <glyph glyph-name="bracketright.lnum" 
d="M49 -205v113h203v670h-203v114h341v-897h-341z" />
    <glyph glyph-name="asterisk.lnum" 
d="M237 406l-99 -126l-76 104l151 56v9l-149 57l75 104l98 -127l8 3l11 160l121 -40l-92 -134l6 -6l152 43v-128l-152 43l-5 -7l89 -135l-122 -39l-7 161z" />
    <glyph glyph-name="braceleft.lnum" 
d="M435 -212q-72 2 -119.5 7.5t-89 19.5t-61 40.5t-19.5 66.5q0 45 16.5 104.5t16.5 81.5q0 35 -29 52.5t-93 22.5l-3 65l3 64q65 5 93.5 20.5t28.5 51.5q0 22 -16.5 83t-16.5 106q0 40 19.5 66.5t61 40.5t89 20.5t119.5 8.5v-94q-80 -6 -111 -21t-31 -46q0 -17 13.5 -72.5
t13.5 -100.5q0 -50 -40.5 -84t-105.5 -38v-10q65 -4 105.5 -39t40.5 -85q0 -44 -13.5 -97t-13.5 -72q0 -33 31.5 -49t110.5 -21v-92z" />
    <glyph glyph-name="braceright.lnum" 
d="M446 248l-3 -65q-64 -5 -93 -22.5t-29 -52.5q0 -22 16 -81.5t16 -104.5q0 -40 -19.5 -66.5t-60.5 -40.5t-88.5 -19.5t-119.5 -7.5v92q79 5 110.5 21t31.5 49q0 19 -13.5 72t-13.5 97q0 51 40 85.5t106 38.5v10q-66 4 -106 37.5t-40 84.5q0 45 13.5 100.5t13.5 72.5
q0 31 -31.5 46t-110.5 21v94q72 -2 119.5 -8.5t88.5 -20.5t60.5 -40.5t19.5 -66.5q0 -45 -16 -106t-16 -83q0 -36 28.5 -51.5t93.5 -20.5z" />
    <glyph glyph-name="section.lnum" 
d="M487 299q0 -84 -88 -118q53 -38 53 -94q0 -66 -54.5 -109.5t-148.5 -43.5q-48 0 -102 11.5t-88 30.5l29 109q80 -44 163 -44q62 0 62 39q0 19 -28.5 31.5t-86.5 26.5q-33 8 -51.5 13.5t-47 18t-44 26t-27.5 36t-12 50.5q0 42 25.5 73t69.5 46q-47 37 -47 93
q0 66 52.5 107.5t143.5 41.5q44 0 96.5 -11t85.5 -29l-29 -109q-82 42 -154 42q-56 0 -56 -35q0 -6 3 -11.5t9.5 -10.5t13 -8.5t19 -7.5l20.5 -6.5t24 -7t25 -7.5q36 -10 61.5 -20.5t52.5 -27t41.5 -40.5t14.5 -55zM372 266q0 26 -28.5 42t-89 34.5t-88.5 30.5
q-35 -29 -35 -60q0 -15 12 -27t35 -21.5t47 -17l57.5 -18.5t56.5 -20q33 23 33 57z" />
    <glyph glyph-name="paragraph.lnum" 
d="M324 200q-10 -3 -29 -3q-133 0 -201 56t-68 160q0 100 73 156t207 56v0v0v0v0v0h1v0h1v0h1h1h1h1h1h1h1h1h1h1h1h1h1h1h1h1h1h1h1h1h1h1h1h1h1h1h1h1h1h1h1h1h1h2h1h1h1h1h2h1h1h1h2h1h1h2h1h1h2h1h1h2h1h1h2h1h2h1h2h1h2h1h2h1h2h1h2h1h2h1h2h1h2h1h2h2h1h2h2h1h2h2h1h2
h2h1h2h2h1h2h2h2h1h2h2h2h1h2h2h2h2h1h2h10v-696h-134v271z" />
    <glyph glyph-name="period.lnum" horiz-adv-x="250" 
d="M220 76q0 -41 -26 -66t-68 -25q-43 0 -69 25t-26 66t26 66t69 25q42 0 68 -25t26 -66z" />
    <glyph glyph-name="comma.lnum" horiz-adv-x="250" 
d="M10 79q4 40 34 65.5t73 25.5q51 0 85.5 -38t34.5 -90q0 -113 -169 -204l-68 60q50 36 75 60t25 46q0 21 -19.5 37.5t-70.5 37.5z" />
    <glyph glyph-name="colon.lnum" horiz-adv-x="250" 
d="M220 358q0 -41 -26 -66t-68 -25q-43 0 -69 25t-26 66t26 66t69 25q42 0 68 -25t26 -66zM220 76q0 -41 -26 -66t-68 -25q-43 0 -69 25t-26 66t26 66t69 25q42 0 68 -25t26 -66z" />
    <glyph glyph-name="semicolon.lnum" horiz-adv-x="250" 
d="M220 358q0 -41 -26 -66t-68 -25q-43 0 -69 25t-26 66t26 66t69 25q42 0 68 -25t26 -66zM10 79q4 40 34 65.5t73 25.5q51 0 85.5 -38t34.5 -90q0 -113 -169 -204l-68 60q50 36 75 60t25 46q0 21 -19.5 37.5t-70.5 37.5z" />
    <glyph glyph-name="guilsinglleft.lnum" horiz-adv-x="363" 
d="M328 109l-26 -97l-277 159v125l277 160l26 -98l-165 -124v-2z" />
    <glyph glyph-name="guilsinglright.lnum" horiz-adv-x="363" 
d="M338 171l-277 -160l-26 98l165 123v2l-165 123l26 98l277 -159v-125z" />
    <glyph glyph-name="guillemotleft.lnum" horiz-adv-x="605" 
d="M584 109l-25 -97l-257 159v125l257 160l25 -98l-140 -124v-2zM293 117l-27 -95l-249 152v120l249 151l27 -95l-137 -116v-2z" />
    <glyph glyph-name="guillemotright.lnum" horiz-adv-x="610" 
d="M594 174l-250 -152l-26 95l136 115v2l-136 116l26 95l250 -151v-120zM308 171l-256 -159l-25 97l140 123v2l-140 124l25 98l256 -160v-125z" />
    <glyph glyph-name="periodcentered.lnum" horiz-adv-x="250" 
d="M222 256q0 -41 -26 -66t-68 -25q-43 0 -69 25t-26 66t26 66t69 25q42 0 68 -25t26 -66z" />
    <glyph glyph-name="hyphen.lnum" horiz-adv-x="372" 
d="M346 181h-318v123h318v-123z" />
    <glyph glyph-name="endash.lnum" horiz-adv-x="526" 
d="M502 182h-477l3 117h471z" />
    <glyph glyph-name="emdash.lnum" horiz-adv-x="996" 
d="M972 182h-947l3 117h941z" />
    <glyph glyph-name="tribol_north.orn" horiz-adv-x="750" 
d="M88 45l288 539l286 -539h-574zM502 137l-127 261l-127 -261h254z" />
    <glyph glyph-name="tribol_east.orn" horiz-adv-x="750" 
d="M145 600l539 -288l-539 -286v574zM237 186l261 127l-261 127v-254z" />
    <glyph glyph-name="tribol_south.orn" horiz-adv-x="750" 
d="M88 584h574l-286 -539zM502 492h-254l127 -261z" />
    <glyph glyph-name="tribol_west.orn" horiz-adv-x="750" 
d="M604 600v-574l-539 286zM512 186v254l-261 -127z" />
    <glyph glyph-name="trisol_north.orn" horiz-adv-x="750" 
d="M88 45l288 539l286 -539h-574z" />
    <glyph glyph-name="trisol_east.orn" horiz-adv-x="750" 
d="M145 600l539 -288l-539 -286v574z" />
    <glyph glyph-name="trisol_south.orn" horiz-adv-x="750" 
d="M88 584h574l-286 -539z" />
    <glyph glyph-name="trisol_west.orn" horiz-adv-x="750" 
d="M604 600v-574l-539 286z" />
    <glyph glyph-name="arrow_north.orn" horiz-adv-x="750" 
d="M289 -22l27 452l-154 -205l-129 99l335 327h14l335 -327l-128 -99l-155 205l28 -452h-173z" />
    <glyph glyph-name="arrow_east.orn" horiz-adv-x="750" 
d="M386 -30l-100 128l205 155l-452 -28v173l452 -28l-205 155l100 128l326 -334v-15z" />
    <glyph glyph-name="arrow_south.orn" horiz-adv-x="750" 
d="M367 -26l-335 327l129 99l154 -205l-27 452h173l-27 -452l154 205l128 -99l-334 -327h-15z" />
    <glyph glyph-name="arrow_west.orn" horiz-adv-x="750" 
d="M362 -30l-327 334v15l327 334l99 -128l-205 -155l452 28v-173l-452 28l205 -155z" />
    <glyph glyph-name="sqrreg_2.orn" 
d="M41 417h418v-417h-418v417zM406 53v313h-313v-313h313z" />
    <glyph glyph-name="sqrbol_2.orn" 
d="M41 417h418v-417h-418v417zM368 91v236h-236v-236h236z" />
    <glyph glyph-name="sqrshd_2.orn" 
d="M41 417h418v-417h-418v417zM414 373h-37l37 -37v37zM414 307l-65 66h-65l130 -130v64zM414 215l-158 158h-64l222 -222v64zM414 123l-250 250h-64l314 -314v64zM400 46l-314 313v-65l250 -248h64zM307 46l-221 220v-64l157 -156h64zM214 46l-128 127v-64l64 -63h64z
M122 46l-36 36v-36h36z" />
    <glyph glyph-name="sqrsol_2.orn" 
d="M41 0v417h418v-417h-418z" />
    <glyph glyph-name="sqrreg_1.orn" horiz-adv-x="750" 
d="M688 626v-626h-626v626h626zM633 55v516h-516v-516h516z" />
    <glyph glyph-name="sqrbol_1.orn" horiz-adv-x="750" 
d="M688 626v-626h-626v626h626zM177 511v-396h396v396h-396z" />
    <glyph glyph-name="sqrshd_1.orn" horiz-adv-x="750" 
d="M688 626v-626h-626v626h626zM633 493v78h-78zM633 351v116l-104 104h-116zM633 209v116l-246 246h-116zM633 68v116l-387 387h-116zM505 55h116l-504 504v-116zM117 417v-116l246 -246h116zM221 55h116l-220 220v-116zM117 135v-80h80z" />
    <glyph glyph-name="sqrsol_1.orn" horiz-adv-x="750" 
d="M688 626v-626h-626v626h626z" />
    <glyph glyph-name="crcreg_2.orn" 
d="M250 -10q-92 0 -155.5 63.5t-63.5 155.5t63.5 155t155.5 63t155.5 -63t63.5 -155t-63.5 -155.5t-155.5 -63.5zM416 209q0 70 -48 119t-118 49t-118 -49t-48 -119t48 -119t118 -49t118 49t48 119z" />
    <glyph glyph-name="crcbol_2.orn" 
d="M250 -10q-92 0 -155.5 63.5t-63.5 155.5t63.5 155t155.5 63t155.5 -63t63.5 -155t-63.5 -155.5t-155.5 -63.5zM376 209q0 53 -36.5 90.5t-89.5 37.5t-89.5 -37.5t-36.5 -90.5q0 -54 36 -91t90 -37t90 37t36 91z" />
    <glyph glyph-name="crcshd_2.orn" 
d="M250 -10q-92 0 -155.5 63.5t-63.5 155.5t63.5 155t155.5 63t155.5 -63t63.5 -155t-63.5 -155.5t-155.5 -63.5zM376 337q-45 43 -101 50l151 -151q-7 58 -50 101zM428 205l-184 184q-32 -2 -55 -11l228 -229q9 24 11 56zM410 128l-241 242q-18 -7 -38 -27l253 -254
q17 17 26 39zM370 75l-254 254q-17 -17 -26 -40l242 -241q19 8 38 27zM311 39l-229 229q-8 -24 -10 -55l184 -184q31 0 55 10zM74 182q7 -60 53 -104q42 -41 98 -48z" />
    <glyph glyph-name="crcsol_2.orn" 
d="M250 -10q-92 0 -155.5 63.5t-63.5 155.5t63.5 155t155.5 63t155.5 -63t63.5 -155t-63.5 -155.5t-155.5 -63.5z" />
    <glyph glyph-name="crcreg_1.orn" horiz-adv-x="750" 
d="M703 313q0 -138 -95 -233t-233 -95t-233 95t-95 233t95 233t233 95t233 -95t95 -233zM375 37q116 0 194.5 80.5t78.5 195.5t-78.5 195.5t-194.5 80.5t-194.5 -80.5t-78.5 -195.5t78.5 -195.5t194.5 -80.5z" />
    <glyph glyph-name="crcbol_1.orn" horiz-adv-x="750" 
d="M703 313q0 -138 -95 -233t-233 -95t-233 95t-95 233t95 233t233 95t233 -95t95 -233zM375 529q-90 0 -151.5 -63t-61.5 -153t61.5 -153t151.5 -63t151.5 63t61.5 153t-61.5 153t-151.5 63z" />
    <glyph glyph-name="crcshd_1.orn" horiz-adv-x="750" 
d="M703 313q0 -138 -95 -233t-233 -95t-233 95t-95 233t95 234t233 96t233 -96t95 -234zM647 337q-8 102 -78.5 173t-172.5 78zM629 212q17 45 19 98l-279 279q-53 -2 -97 -19l60 -60l115.5 -115.5l130.5 -130.5zM576 125q28 29 46 69l-92 92l-183 184l-92 92
q-38 -18 -68 -48zM496 64q38 18 68 48l-390 390q-27 -28 -46 -70zM120 414q-16 -45 -18 -98l279 -279q49 0 97 19zM103 289q8 -102 78.5 -173t172.5 -78z" />
    <glyph glyph-name="crcsol_1.orn" horiz-adv-x="750" 
d="M703 313q0 -138 -95 -233t-233 -95t-233 95t-95 233t95 233t233 95t233 -95t95 -233z" />
    <glyph glyph-name="apple" horiz-adv-x="758" 
d="M763 233l-180 -85l69 -189l-189 69l-85 -181l-84 180l-187 -68l68 187l-181 86l181 83l-68 189l187 -69l86 181l83 -181l189 69l-69 -189zM663 232l-132 62l50 139l-139 -50l-63 133l-63 -133l-139 50l51 -139l-134 -63l134 -63l-51 -138l139 51l62 -135l64 135l139 -51
l-50 140z" />
    </font>
</defs>
</svg>
